SplineFontDB: 3.0
FontName: Hack-Italic
FullName: Hack Italic
FamilyName: Hack
Weight: Regular
Copyright: Copyright (c) 2017 Source Foundry Authors / Copyright (c) 2003 by Bitstream, Inc. All Rights Reserved.
Version: 3.0
StyleMapFamilyName: 
FONDName: Hack
ItalicAngle: -11
UnderlinePosition: -220
UnderlineWidth: 90
Ascent: 1556
Descent: 492
InvalidEm: 0
UFOAscent: 1556
UFODescent: -492
LayerCount: 2
Layer: 0 0 "Back" 1
Layer: 1 0 "Fore" 0
StyleMap: 0x0001
FSType: 1
OS2Version: 0
OS2_WeightWidthSlopeOnly: 0
OS2_UseTypoMetrics: 0
CreationTime: 1513717338
ModificationTime: 1513717394
PfmFamily: 16
TTFWeight: 400
TTFWidth: 5
LineGap: 0
VLineGap: 0
Panose: 2 11 6 9 3 2 2 9 2 4
OS2TypoAscent: 1556
OS2TypoAOffset: 0
OS2TypoDescent: -492
OS2TypoDOffset: 0
OS2TypoLinegap: 410
OS2WinAscent: 1901
OS2WinAOffset: 0
OS2WinDescent: 483
OS2WinDOffset: 0
HheadAscent: 1901
HheadAOffset: 0
HheadDescent: -483
HheadDOffset: 0
OS2SubXSize: 1331
OS2SubYSize: 1228
OS2SubXOff: -29
OS2SubYOff: 153
OS2SupXSize: 1331
OS2SupYSize: 1228
OS2SupXOff: 136
OS2SupYOff: 716
OS2StrikeYSize: 102
OS2StrikeYPos: 530
OS2CapHeight: 1493
OS2XHeight: 1120
OS2Vendor: 'SRC '
OS2CodePages: 0000019f.dfd70000
OS2UnicodeRanges: a50006ef.000038fb.00000000.00000000
Lookup: 1 0 0 "'locl' Localized Forms in Latin lookup 0" { "'locl' Localized Forms in Latin lookup 0 subtable"  } ['locl' ('latn' <'MOL ' > ) ]
Lookup: 1 0 0 "'locl' Localized Forms in Latin lookup 1" { "'locl' Localized Forms in Latin lookup 1 subtable"  } ['locl' ('latn' <'ROM ' > ) ]
Lookup: 1 0 0 "'subs' Subscript in Latin lookup 2" { "'subs' Subscript in Latin lookup 2 subtable" ("inferior") } ['subs' ('latn' <'dflt' 'MOL ' 'ROM ' > 'DFLT' <'dflt' > ) ]
Lookup: 1 0 0 "'subs' Subscript in Latin lookup 3" { "'subs' Subscript in Latin lookup 3 subtable" ("inferior") } ['subs' ('latn' <'dflt' > ) ]

StartChar: .notdef
Encoding: 0 -1 0
GlifName: _notdef
Width: 1233
VWidth: 0
Flags: W
LayerCount: 2
Fore
SplineSet
104 1444 m 257
NamedP: "hr00"
 1128 1444 l 257
NamedP: "dv02"
 1128 -362 l 257
NamedP: "sh01"
 104 -362 l 257
 104 1444 l 257
NamedP: "hr00"
1014 -248 m 257
NamedP: "ah01"
 1014 1329 l 257
NamedP: "dv01"
 219 1329 l 257
NamedP: "sh02"
 219 -248 l 257
 1014 -248 l 257
NamedP: "ah01"
EndSplineSet
PickledDataWithLists: "(dp1
S'com.schriftgestaltung.Glyphs.lastChange'
p2
S'2017-07-11 17:15:08 +0000'
p3
s."
EndChar

StartChar: A
Encoding: 1 65 1
GlifName: A_
Width: 1233
VWidth: 0
Flags: W
LayerCount: 2
Fore
SplineSet
639 1493 m 257
NamedP: "hr00"
 885 1493 l 257
 1051 0 l 257
NamedP: "ab01"
 850 0 l 257
 815 389 l 257
NamedP: "dv01"
 295 389 l 257
 111 0 l 257
NamedP: "ab02"
 -106 0 l 257
 639 1493 l 257
NamedP: "hr00"
801 551 m 257
NamedP: "dv02"
 735 1325 l 257
 371 551 l 257
 801 551 l 257
NamedP: "dv02"
EndSplineSet
PickledDataWithLists: "(dp1
S'com.schriftgestaltung.Glyphs.lastChange'
p2
S'2017-07-11 17:15:08 +0000'
p3
s."
Substitution2: "Single Substitution lookup 14 subtable" ordfeminine
Substitution2: "Single Substitution lookup 11 subtable" ordfeminine
EndChar

StartChar: AE
Encoding: 2 198 2
GlifName: A_E_
Width: 1233
VWidth: 0
Flags: W
LayerCount: 2
Fore
SplineSet
555 1493 m 257
NamedP: "hr00"
 1307 1493 l 257
 1274 1323 l 257
NamedP: "sv01"
 936 1323 l 257
 850 881 l 257
 1157 881 l 257
NamedP: "dv04"
 1124 711 l 257
NamedP: "dv03"
 817 711 l 257
 711 170 l 257
NamedP: "sv02"
 1067 170 l 257
 1034 0 l 257
NamedP: "ab01"
 492 0 l 257
 567 383 l 257
NamedP: "dv01"
 215 383 l 257
 39 0 l 257
NamedP: "ab02"
 -145 0 l 257
 555 1493 l 257
NamedP: "hr00"
600 551 m 257
NamedP: "dv02"
 750 1323 l 257
NamedP: "sv03"
 647 1323 l 257
NamedP: "sv04"
 291 551 l 257
 600 551 l 257
NamedP: "dv02"
EndSplineSet
PickledDataWithLists: "(dp1
S'com.schriftgestaltung.Glyphs.lastChange'
p2
S'2017-07-11 17:15:08 +0000'
p3
s."
EndChar

StartChar: Aacute
Encoding: 3 193 3
GlifName: A_acute
Width: 1233
VWidth: 0
Flags: W
LayerCount: 2
Fore
SplineSet
885 1852 m 257
NamedP: "hr00"
 1093 1852 l 257
 786 1588 l 257
 626 1588 l 257
NamedP: "iv01"
 885 1852 l 257
NamedP: "hr00"
639 1493 m 257
NamedP: "at01"
 885 1493 l 257
 1051 0 l 257
NamedP: "ab01"
 850 0 l 257
 815 389 l 257
NamedP: "dv01"
 295 389 l 257
 111 0 l 257
NamedP: "ab02"
 -106 0 l 257
 639 1493 l 257
NamedP: "at01"
801 551 m 257
NamedP: "dv02"
 735 1325 l 257
 371 551 l 257
 801 551 l 257
NamedP: "dv02"
EndSplineSet
PickledDataWithLists: "(dp1
S'com.schriftgestaltung.Glyphs.lastChange'
p2
S'2017-07-11 17:15:08 +0000'
p3
s."
EndChar

StartChar: Abreve
Encoding: 4 258 4
GlifName: A_breve
Width: 1233
VWidth: 0
Flags: W
LayerCount: 2
Fore
SplineSet
794 1612 m 256
NamedP: "dv01"
 616 1612 527 1680 527 1817 c 256
NamedP: "dh01"
 527 1829 528 1841 529 1854 c 257
 648 1854 l 257
NamedP: "dh02"
 649 1782 709 1743 822 1743 c 256
NamedP: "dv02"
 931 1743 1002 1780 1037 1854 c 257
NamedP: "sv01"
 1156 1854 l 257
 1109 1694 987 1612 794 1612 c 256
NamedP: "dv01"
639 1493 m 257
NamedP: "at01"
 885 1493 l 257
 1051 0 l 257
NamedP: "ab01"
 850 0 l 257
 815 389 l 257
NamedP: "dv03"
 295 389 l 257
 111 0 l 257
NamedP: "ab02"
 -106 0 l 257
NamedP: "hr01"
 639 1493 l 257
NamedP: "at01"
801 551 m 257
NamedP: "hr02"
 735 1325 l 257
 371 551 l 257
 801 551 l 257
NamedP: "hr02"
EndSplineSet
PickledDataWithLists: "(dp1
S'com.schriftgestaltung.Glyphs.lastChange'
p2
S'2017-07-11 17:15:08 +0000'
p3
s."
EndChar

StartChar: Acircumflex
Encoding: 5 194 5
GlifName: A_circumflex
Width: 1233
VWidth: 0
Flags: W
LayerCount: 2
Fore
SplineSet
704 1854 m 257
NamedP: "hr00"
 917 1854 l 257
 1075 1588 l 257
NamedP: "iv01"
 942 1588 l 257
 803 1766 l 257
 594 1588 l 257
 442 1588 l 257
NamedP: "iv02"
 704 1854 l 257
NamedP: "hr00"
639 1493 m 257
NamedP: "at01"
 885 1493 l 257
 1051 0 l 257
NamedP: "ab01"
 850 0 l 257
 815 389 l 257
NamedP: "dv01"
 295 389 l 257
 111 0 l 257
NamedP: "ab02"
 -106 0 l 257
 639 1493 l 257
NamedP: "at01"
801 551 m 257
NamedP: "dv02"
 735 1325 l 257
 371 551 l 257
 801 551 l 257
NamedP: "dv02"
EndSplineSet
PickledDataWithLists: "(dp1
S'com.schriftgestaltung.Glyphs.lastChange'
p2
S'2017-07-11 17:15:08 +0000'
p3
s."
EndChar

StartChar: Adieresis
Encoding: 6 196 6
GlifName: A_dieresis
Width: 1233
VWidth: 0
Flags: W
LayerCount: 2
Fore
SplineSet
500 1620 m 258
NamedP: "hr00"
 480 1620 469 1633 473 1653 c 258
 501 1796 l 257
 504 1814 514 1823 533 1823 c 258
NamedP: "dv01"
 677 1823 l 258
 695 1823 704 1815 704 1799 c 256
 704 1795 704 1792 703 1790 c 258
 674 1647 l 258
 670 1629 659 1620 642 1620 c 258
 500 1620 l 258
NamedP: "hr00"
891 1620 m 258
NamedP: "sv01"
 871 1620 860 1633 864 1653 c 258
 892 1796 l 257
 895 1814 905 1823 924 1823 c 258
NamedP: "sv02"
 1067 1823 l 258
 1087 1823 1098 1810 1094 1790 c 258
 1066 1647 l 258
 1063 1629 1052 1620 1034 1620 c 258
 891 1620 l 258
NamedP: "sv01"
639 1493 m 257
NamedP: "at01"
 885 1493 l 257
 1051 0 l 257
NamedP: "ab01"
 850 0 l 257
 815 389 l 257
NamedP: "dv02"
 295 389 l 257
 111 0 l 257
NamedP: "ab02"
 -106 0 l 257
 639 1493 l 257
NamedP: "at01"
801 551 m 257
NamedP: "dv03"
 735 1325 l 257
 371 551 l 257
 801 551 l 257
NamedP: "dv03"
EndSplineSet
PickledDataWithLists: "(dp1
S'com.schriftgestaltung.Glyphs.lastChange'
p2
S'2017-07-11 17:15:08 +0000'
p3
s."
EndChar

StartChar: Agrave
Encoding: 7 192 7
GlifName: A_grave
Width: 1233
VWidth: 0
Flags: W
LayerCount: 2
Fore
SplineSet
551 1853 m 257
NamedP: "hr00"
 733 1853 l 257
 880 1589 l 257
NamedP: "iv01"
 741 1589 l 257
 551 1853 l 257
NamedP: "hr00"
639 1493 m 257
NamedP: "at01"
 885 1493 l 257
 1051 0 l 257
NamedP: "ab01"
 850 0 l 257
 815 389 l 257
NamedP: "dv01"
 295 389 l 257
 111 0 l 257
NamedP: "ab02"
 -106 0 l 257
 639 1493 l 257
NamedP: "at01"
801 551 m 257
NamedP: "dv02"
 735 1325 l 257
 371 551 l 257
 801 551 l 257
NamedP: "dv02"
EndSplineSet
PickledDataWithLists: "(dp1
S'com.schriftgestaltung.Glyphs.lastChange'
p2
S'2017-07-11 17:15:08 +0000'
p3
s."
EndChar

StartChar: Alpha
Encoding: 8 913 8
GlifName: A_lpha
Width: 1233
VWidth: 0
Flags: W
LayerCount: 2
Fore
SplineSet
639 1493 m 257
NamedP: "hr00"
 885 1493 l 257
 1051 0 l 257
NamedP: "ab01"
 850 0 l 257
 815 389 l 257
NamedP: "dv01"
 295 389 l 257
 111 0 l 257
NamedP: "ab02"
 -106 0 l 257
 639 1493 l 257
NamedP: "hr00"
801 551 m 257
NamedP: "dv02"
 735 1325 l 257
 371 551 l 257
 801 551 l 257
NamedP: "dv02"
EndSplineSet
PickledDataWithLists: "(dp1
S'com.schriftgestaltung.Glyphs.lastChange'
p2
S'2017-07-11 17:15:08 +0000'
p3
s."
EndChar

StartChar: Alphatonos
Encoding: 9 902 9
GlifName: A_lphatonos
Width: 1233
VWidth: 0
Flags: W
LayerCount: 2
Fore
SplineSet
457 1638 m 257
NamedP: "hr00"
 676 1638 l 257
 281 1262 l 257
 125 1262 l 257
NamedP: "iv01"
 457 1638 l 257
NamedP: "hr00"
639 1493 m 257
NamedP: "at01"
 885 1493 l 257
 1051 0 l 257
NamedP: "ab01"
 850 0 l 257
 815 389 l 257
NamedP: "dv01"
 295 389 l 257
 111 0 l 257
NamedP: "ab02"
 -106 0 l 257
 639 1493 l 257
NamedP: "at01"
801 551 m 257
NamedP: "dv02"
 735 1325 l 257
 371 551 l 257
 801 551 l 257
NamedP: "dv02"
EndSplineSet
PickledDataWithLists: "(dp1
S'com.schriftgestaltung.Glyphs.lastChange'
p2
S'2017-07-11 17:15:08 +0000'
p3
s."
EndChar

StartChar: Amacron
Encoding: 10 256 10
GlifName: A_macron
Width: 1233
VWidth: 0
Flags: W
LayerCount: 2
Fore
SplineSet
531 1800 m 257
NamedP: "hr00"
 1129 1800 l 257
NamedP: "dv02"
 1100 1652 l 257
NamedP: "dv01"
 502 1652 l 257
 531 1800 l 257
NamedP: "hr00"
639 1493 m 257
NamedP: "at01"
 885 1493 l 257
 1051 0 l 257
NamedP: "ab01"
 850 0 l 257
 815 389 l 257
NamedP: "dv03"
 295 389 l 257
 111 0 l 257
NamedP: "ab02"
 -106 0 l 257
 639 1493 l 257
NamedP: "at01"
801 551 m 257
NamedP: "dv04"
 735 1325 l 257
 371 551 l 257
 801 551 l 257
NamedP: "dv04"
EndSplineSet
PickledDataWithLists: "(dp1
S'com.schriftgestaltung.Glyphs.lastChange'
p2
S'2017-07-11 17:15:08 +0000'
p3
s."
EndChar

StartChar: Aogonek
Encoding: 11 260 11
GlifName: A_ogonek
Width: 1233
VWidth: 0
Flags: W
LayerCount: 2
Fore
SplineSet
943 -272 m 256
NamedP: "hr00"
 982 -272 1027 -262 1070 -242 c 257
 1045 -375 l 257
 999 -388 953 -395 906 -395 c 256
NamedP: "dv01"
 775 -395 701 -338 701 -245 c 256
NamedP: "dh01"
 701 -170 749 -93 853 0 c 257
NamedP: "ab01"
 850 0 l 257
NamedP: "sh01"
 815 389 l 257
NamedP: "dv02"
 295 389 l 257
 111 0 l 257
NamedP: "ab02"
 -106 0 l 257
 639 1493 l 257
NamedP: "at01"
 885 1493 l 257
 1051 0 l 257
NamedP: "ab03"
 972 0 l 257
 891 -77 847 -144 847 -200 c 256
NamedP: "dh02"
 847 -247 879 -272 943 -272 c 256
NamedP: "hr00"
801 551 m 257
NamedP: "dv03"
 735 1325 l 257
NamedP: "ih01"
 371 551 l 257
 801 551 l 257
NamedP: "dv03"
EndSplineSet
PickledDataWithLists: "(dp1
S'com.schriftgestaltung.Glyphs.lastChange'
p2
S'2017-07-11 17:15:08 +0000'
p3
s."
EndChar

StartChar: Aring
Encoding: 12 197 12
GlifName: A_ring
Width: 1233
VWidth: 0
Flags: W
LayerCount: 2
Fore
SplineSet
600 1415 m 257
NamedP: "hr00"
 533 1460 498 1537 498 1624 c 256
NamedP: "sh01"
 498 1703 526 1770 577 1821 c 256
 626 1872 694 1901 773 1901 c 256
NamedP: "dv02"
 850 1901 916 1872 967 1821 c 256
 1016 1772 1047 1708 1047 1624 c 256
NamedP: "sh02"
 1047 1567 1032 1522 1007 1482 c 256
 980 1439 943 1407 897 1386 c 257
 1051 0 l 257
NamedP: "sh03"
 850 0 l 257
 815 389 l 257
NamedP: "dv03"
 295 389 l 257
 111 0 l 257
NamedP: "ab01"
 -106 0 l 257
 600 1415 l 257
NamedP: "hr00"
772 1475 m 256
 816 1475 853 1492 880 1519 c 256
 909 1548 924 1584 924 1626 c 256
NamedP: "ah01"
 924 1671 907 1707 880 1734 c 256
 849 1765 810 1778 771 1778 c 256
NamedP: "dv01"
 729 1778 694 1764 665 1735 c 256
 636 1706 621 1670 621 1627 c 256
NamedP: "sh04"
 621 1584 636 1547 665 1518 c 256
 690 1493 728 1475 772 1475 c 256
801 551 m 257
NamedP: "dv04"
 735 1325 l 257
NamedP: "ih01"
 371 551 l 257
 801 551 l 257
NamedP: "dv04"
EndSplineSet
PickledDataWithLists: "(dp1
S'com.schriftgestaltung.Glyphs.lastChange'
p2
S'2017-07-11 17:15:08 +0000'
p3
s."
EndChar

StartChar: Atilde
Encoding: 13 195 13
GlifName: A_tilde
Width: 1233
VWidth: 0
Flags: W
LayerCount: 2
Fore
SplineSet
442 1627 m 257
NamedP: "hr00"
 465 1698 497 1753 539 1791 c 256
 580 1828 629 1846 684 1846 c 256
NamedP: "dv02"
 711 1846 730 1842 751 1835 c 256
 773 1828 795 1816 817 1799 c 258
 852 1773 l 258
 865 1764 877 1757 888 1753 c 256
 899 1749 908 1746 924 1746 c 256
 955 1746 974 1756 993 1773 c 256
 1012 1791 1025 1815 1032 1846 c 257
NamedP: "sv01"
 1157 1846 l 257
 1136 1774 1105 1719 1062 1682 c 256
 1023 1647 972 1627 911 1627 c 256
NamedP: "sv02"
 884 1627 868 1631 849 1638 c 256
 828 1646 811 1655 790 1670 c 258
 756 1695 l 257
 754 1696 l 256
 725 1717 698 1728 673 1728 c 256
 650 1728 630 1720 613 1703 c 256
 596 1687 580 1662 567 1627 c 257
NamedP: "dv01"
 442 1627 l 257
NamedP: "hr00"
639 1493 m 257
NamedP: "at01"
 885 1493 l 257
 1051 0 l 257
NamedP: "ab01"
 850 0 l 257
 815 389 l 257
NamedP: "dv03"
 295 389 l 257
 111 0 l 257
NamedP: "ab02"
 -106 0 l 257
 639 1493 l 257
NamedP: "at01"
801 551 m 257
NamedP: "dv04"
 735 1325 l 257
 371 551 l 257
 801 551 l 257
NamedP: "dv04"
EndSplineSet
PickledDataWithLists: "(dp1
S'com.schriftgestaltung.Glyphs.lastChange'
p2
S'2017-07-11 17:15:08 +0000'
p3
s."
EndChar

StartChar: B
Encoding: 14 66 14
GlifName: B_
Width: 1233
VWidth: 0
Flags: W
LayerCount: 2
Fore
SplineSet
313 1493 m 257
NamedP: "at01"
 756 1493 l 258
 892 1493 994 1467 1063 1414 c 256
 1132 1361 1167 1285 1167 1178 c 256
NamedP: "sh01"
 1167 1077 1136 992 1075 923 c 256
 1014 853 931 812 827 799 c 257
NamedP: "iv01"
 910 784 974 750 1019 697 c 256
 1064 644 1085 578 1085 486 c 256
NamedP: "dh02"
 1085 341 1033 218 926 130 c 256
 820 43 670 0 475 0 c 258
NamedP: "ab01"
 23 0 l 257
 313 1493 l 257
NamedP: "at01"
639 877 m 258
NamedP: "hr01"
 740 877 820 901 877 950 c 256
 934 998 963 1064 963 1148 c 256
NamedP: "ih01"
 963 1211 945 1257 908 1285 c 256
 871 1313 810 1327 727 1327 c 258
NamedP: "sv01"
 483 1327 l 257
 395 877 l 257
NamedP: "hr02"
 639 877 l 258
NamedP: "hr01"
506 166 m 258
NamedP: "sv02"
 629 166 723 195 788 253 c 256
 853 312 885 399 885 496 c 256
NamedP: "dh01"
 885 580 862 627 817 662 c 256
NamedP: "hr03"
 772 696 701 713 606 713 c 258
NamedP: "dv01"
 365 713 l 257
 258 166 l 257
 506 166 l 258
NamedP: "sv02"
EndSplineSet
PickledDataWithLists: "(dp1
S'com.schriftgestaltung.Glyphs.lastChange'
p2
S'2017-07-11 17:15:08 +0000'
p3
s."
EndChar

StartChar: Beta
Encoding: 15 914 15
GlifName: B_eta
Width: 1233
VWidth: 0
Flags: W
LayerCount: 2
Fore
SplineSet
313 1493 m 257
NamedP: "at01"
 756 1493 l 258
 1028 1493 1167 1387 1167 1178 c 256
NamedP: "sh01"
 1167 975 1035 826 827 799 c 257
NamedP: "iv01"
 1008 763 1085 653 1085 482 c 256
NamedP: "dh02"
 1085 189 862 0 475 0 c 258
NamedP: "ab01"
 23 0 l 257
 313 1493 l 257
NamedP: "at01"
639 877 m 258
NamedP: "dv01"
 839 877 963 980 963 1148 c 256
NamedP: "hr01"
 963 1273 894 1327 727 1327 c 258
NamedP: "sv01"
 483 1327 l 257
 395 877 l 257
 639 877 l 258
NamedP: "dv01"
506 166 m 258
NamedP: "sv02"
 750 166 885 291 885 492 c 256
NamedP: "dh01"
 885 647 805 713 606 713 c 258
NamedP: "hr02"
 365 713 l 257
 258 166 l 257
 506 166 l 258
NamedP: "sv02"
EndSplineSet
PickledDataWithLists: "(dp1
S'com.schriftgestaltung.Glyphs.lastChange'
p2
S'2017-07-11 17:15:08 +0000'
p3
s."
EndChar

StartChar: C
Encoding: 16 67 16
GlifName: C_
Width: 1233
VWidth: 0
Flags: W
LayerCount: 2
Fore
SplineSet
597 -29 m 256
NamedP: "hr00"
 440 -29 321 20 241 103 c 256
 158 188 115 313 115 492 c 256
NamedP: "dh01"
 115 624 138 769 185 913 c 256
 232 1060 292 1170 369 1266 c 256
 444 1358 519 1417 606 1458 c 256
 693 1499 788 1520 893 1520 c 256
NamedP: "at01"
 954 1520 1005 1514 1058 1499 c 256
 1111 1485 1163 1465 1212 1438 c 257
 1171 1231 l 257
 1128 1272 1083 1304 1036 1325 c 256
 990 1346 939 1356 884 1356 c 256
NamedP: "sv01"
 757 1356 653 1304 557 1192 c 256
 489 1112 431 1003 390 878 c 256
 346 745 326 614 326 503 c 256
NamedP: "dh02"
 326 378 352 286 404 226 c 256
 449 174 521 135 628 135 c 256
NamedP: "dv01"
 685 135 744 146 805 167 c 256
 864 188 924 219 983 260 c 257
 944 53 l 257
 888 26 832 6 775 -9 c 256
 724 -21 661 -29 597 -29 c 256
NamedP: "hr00"
EndSplineSet
PickledDataWithLists: "(dp1
S'com.schriftgestaltung.Glyphs.lastChange'
p2
S'2017-07-11 17:15:08 +0000'
p3
s."
EndChar

StartChar: Cacute
Encoding: 18 262 18
GlifName: C_acute
Width: 1233
VWidth: 0
Flags: W
LayerCount: 2
Fore
SplineSet
1008 1859 m 257
NamedP: "hr00"
 1216 1859 l 257
 909 1595 l 257
 749 1595 l 257
NamedP: "iv01"
 1008 1859 l 257
NamedP: "hr00"
597 -29 m 256
NamedP: "dv01"
 440 -29 321 20 241 103 c 256
 158 188 115 313 115 492 c 256
NamedP: "dh01"
 115 624 138 769 185 913 c 256
 232 1060 292 1170 369 1266 c 256
 444 1358 519 1417 606 1458 c 256
 693 1499 788 1520 893 1520 c 256
NamedP: "at01"
 954 1520 1005 1514 1058 1499 c 256
 1111 1485 1163 1465 1212 1438 c 257
 1171 1231 l 257
 1128 1272 1083 1304 1036 1325 c 256
 990 1346 939 1356 884 1356 c 256
NamedP: "sv01"
 757 1356 653 1304 557 1192 c 256
 489 1112 431 1003 390 878 c 256
 346 745 326 614 326 503 c 256
NamedP: "dh02"
 326 378 352 286 404 226 c 256
 449 174 521 135 628 135 c 256
NamedP: "dv02"
 685 135 744 146 805 167 c 256
 864 188 924 219 983 260 c 257
 944 53 l 257
 888 26 832 6 775 -9 c 256
 724 -21 661 -29 597 -29 c 256
NamedP: "dv01"
EndSplineSet
PickledDataWithLists: "(dp1
S'com.schriftgestaltung.Glyphs.lastChange'
p2
S'2017-07-11 17:15:08 +0000'
p3
s."
EndChar

StartChar: Ccaron
Encoding: 19 268 19
GlifName: C_caron
Width: 1233
VWidth: 0
Flags: W
LayerCount: 2
Fore
SplineSet
616 1861 m 257
NamedP: "hr00"
 752 1861 l 257
NamedP: "sv02"
 891 1683 l 257
 1100 1861 l 257
NamedP: "sv03"
 1251 1861 l 257
 987 1595 l 257
 774 1595 l 257
 616 1861 l 257
NamedP: "hr00"
597 -29 m 256
NamedP: "dv01"
 440 -29 321 20 241 103 c 256
 158 188 115 313 115 492 c 256
NamedP: "dh01"
 115 624 138 769 185 913 c 256
 232 1060 292 1170 369 1266 c 256
 444 1358 519 1417 606 1458 c 256
 693 1499 788 1520 893 1520 c 256
NamedP: "at01"
 954 1520 1005 1514 1058 1499 c 256
 1111 1485 1163 1465 1212 1438 c 257
 1171 1231 l 257
 1128 1272 1083 1304 1036 1325 c 256
 990 1346 939 1356 884 1356 c 256
NamedP: "sv01"
 757 1356 653 1304 557 1192 c 256
 489 1112 431 1003 390 878 c 256
 346 745 326 614 326 503 c 256
NamedP: "dh02"
 326 378 352 286 404 226 c 256
 449 174 521 135 628 135 c 256
NamedP: "dv02"
 685 135 744 146 805 167 c 256
NamedP: "hr01"
 864 188 924 219 983 260 c 257
 944 53 l 257
 888 26 832 6 775 -9 c 256
 724 -21 661 -29 597 -29 c 256
NamedP: "dv01"
EndSplineSet
PickledDataWithLists: "(dp1
S'com.schriftgestaltung.Glyphs.lastChange'
p2
S'2017-07-11 17:15:08 +0000'
p3
s."
EndChar

StartChar: Ccedilla
Encoding: 20 199 20
GlifName: C_cedilla
Width: 1233
VWidth: 0
Flags: W
LayerCount: 2
Fore
SplineSet
1058 1499 m 256
NamedP: "hr00"
 1111 1485 1163 1465 1212 1438 c 257
 1171 1231 l 257
 1128 1272 1083 1304 1036 1325 c 256
 990 1346 939 1356 884 1356 c 256
NamedP: "sv01"
 757 1356 653 1304 557 1192 c 256
 489 1112 431 1003 390 878 c 256
 346 745 326 614 326 503 c 256
NamedP: "dh02"
 326 378 352 286 404 226 c 256
 449 174 521 135 628 135 c 256
NamedP: "dv04"
 685 135 744 146 805 167 c 256
 864 188 924 219 983 260 c 257
 944 53 l 257
 888 26 832 6 775 -9 c 257
 744 -16 710 -22 673 -25 c 257
NamedP: "ih01"
 692 -58 703 -86 714 -111 c 256
 725 -141 731 -170 731 -198 c 256
NamedP: "dh04"
 731 -254 708 -304 661 -341 c 256
 615 -377 551 -395 470 -395 c 256
NamedP: "dv01"
 443 -395 411 -393 380 -388 c 256
 350 -383 319 -376 286 -365 c 257
 311 -236 l 257
NamedP: "ih02"
 338 -249 369 -260 388 -265 c 256
 411 -271 434 -274 457 -274 c 256
NamedP: "dv02"
 544 -274 598 -230 598 -163 c 256
NamedP: "dh03"
 598 -140 592 -114 584 -93 c 256
 579 -81 569 -55 554 -28 c 257
NamedP: "dv03"
 417 -19 313 28 241 103 c 256
 158 188 115 313 115 492 c 256
NamedP: "dh01"
 115 624 138 769 185 913 c 256
 232 1060 292 1170 369 1266 c 256
 444 1358 519 1417 606 1458 c 256
 693 1499 788 1520 893 1520 c 256
NamedP: "at01"
 954 1520 1005 1514 1058 1499 c 256
NamedP: "hr00"
EndSplineSet
PickledDataWithLists: "(dp1
S'com.schriftgestaltung.Glyphs.lastChange'
p2
S'2017-07-11 17:15:08 +0000'
p3
s."
EndChar

StartChar: Ccircumflex
Encoding: 21 264 21
GlifName: C_circumflex
Width: 1233
VWidth: 0
Flags: W
LayerCount: 2
Fore
SplineSet
699 1595 m 257
NamedP: "hr00"
 908 1773 l 257
 1047 1595 l 257
 1180 1595 l 257
 1022 1861 l 257
 809 1861 l 257
 547 1595 l 257
 699 1595 l 257
NamedP: "hr00"
944 53 m 257
 983 260 l 257
 864 177 745 135 628 135 c 256
 531 135 455 167 404 226 c 256
 352 286 326 378 326 503 c 256
 326 622 347 753 390 878 c 256
 431 1003 487 1108 557 1192 c 257
 653 1304 757 1356 884 1356 c 256
 991 1356 1082 1315 1171 1231 c 257
 1212 1438 l 257
 1113 1493 1006 1520 893 1520 c 256
NamedP: "hr01"
 792 1520 696 1499 606 1458 c 256
 519 1418 440 1354 369 1266 c 256
 288 1163 229 1053 185 913 c 257
 138 772 115 632 115 492 c 256
 115 317 157 188 241 103 c 257
 322 18 446 -29 597 -29 c 256
 716 -29 832 -2 944 53 c 257
EndSplineSet
PickledDataWithLists: "(dp1
S'com.schriftgestaltung.Glyphs.lastChange'
p2
S'2017-07-11 17:15:08 +0000'
p3
s."
EndChar

StartChar: Cdotaccent
Encoding: 22 266 22
GlifName: C_dotaccent
Width: 1233
VWidth: 0
Flags: W
LayerCount: 2
Fore
SplineSet
808 1627 m 258
NamedP: "hr00"
 787 1627 772 1643 776 1666 c 258
 803 1809 l 258
 806 1824 817 1832 832 1832 c 258
NamedP: "dv03"
 973 1832 l 258
 994 1832 1010 1816 1006 1793 c 258
 978 1650 l 258
 975 1635 964 1627 949 1627 c 258
 808 1627 l 258
NamedP: "hr00"
598 -29 m 256
NamedP: "dv01"
 291 -29 115 144 115 499 c 256
NamedP: "dh01"
 115 773 219 1076 369 1266 c 256
 505 1437 684 1520 892 1520 c 256
NamedP: "at01"
 1007 1520 1104 1494 1212 1438 c 257
 1171 1231 l 257
 1087 1314 991 1356 884 1356 c 256
NamedP: "sv01"
 755 1356 648 1300 557 1192 c 256
 421 1030 326 749 326 508 c 256
NamedP: "dh02"
 326 253 433 135 626 135 c 256
NamedP: "dv02"
 743 135 866 179 983 260 c 257
 944 53 l 257
 833 -2 717 -29 598 -29 c 256
NamedP: "dv01"
EndSplineSet
PickledDataWithLists: "(dp1
S'com.schriftgestaltung.Glyphs.lastChange'
p2
S'2017-07-11 17:15:08 +0000'
p3
s."
EndChar

StartChar: Chi
Encoding: 23 935 23
GlifName: C_hi
Width: 1233
VWidth: 0
Flags: W
LayerCount: 2
Fore
SplineSet
530 797 m 257
NamedP: "hr00"
 242 1493 l 257
NamedP: "at01"
 442 1493 l 257
 666 961 l 257
NamedP: "iv01"
 1106 1493 l 257
NamedP: "at02"
 1337 1493 l 257
 741 774 l 257
 1065 0 l 257
NamedP: "ab01"
 864 0 l 257
 610 612 l 257
NamedP: "iv02"
 104 0 l 257
NamedP: "ab02"
 -127 0 l 257
 530 797 l 257
NamedP: "hr00"
EndSplineSet
PickledDataWithLists: "(dp1
S'com.schriftgestaltung.Glyphs.lastChange'
p2
S'2017-07-11 17:15:08 +0000'
p3
s."
EndChar

StartChar: D
Encoding: 24 68 24
GlifName: D_
Width: 1233
VWidth: 0
Flags: W
LayerCount: 2
Fore
SplineSet
283 1493 m 257
NamedP: "hr00"
 586 1493 l 258
 768 1493 904 1452 995 1369 c 256
 1087 1285 1130 1161 1130 986 c 256
NamedP: "dh02"
 1130 887 1116 775 1088 659 c 256
 1059 539 1018 434 975 354 c 256
 904 223 816 135 716 82 c 256
 613 27 472 0 295 0 c 258
NamedP: "ab01"
 -8 0 l 257
 283 1493 l 257
NamedP: "hr00"
324 166 m 258
NamedP: "sv01"
 447 166 546 187 621 229 c 256
 696 270 756 338 801 432 c 256
 834 501 866 596 890 707 c 256
 913 814 924 913 924 993 c 256
NamedP: "dh01"
 924 1120 898 1200 842 1251 c 256
 787 1302 696 1327 567 1327 c 258
NamedP: "sv02"
 453 1327 l 257
 227 166 l 257
 324 166 l 258
NamedP: "sv01"
EndSplineSet
PickledDataWithLists: "(dp1
S'com.schriftgestaltung.Glyphs.lastChange'
p2
S'2017-07-11 17:15:08 +0000'
p3
s."
EndChar

StartChar: Dcaron
Encoding: 25 270 25
GlifName: D_caron
Width: 1233
VWidth: 0
Flags: W
LayerCount: 2
Fore
SplineSet
484 1861 m 257
NamedP: "hr00"
 620 1861 l 257
 759 1683 l 257
 968 1861 l 257
NamedP: "av01"
 1119 1861 l 257
NamedP: "ih01"
 855 1595 l 257
 642 1595 l 257
 484 1861 l 257
NamedP: "hr00"
283 1493 m 257
NamedP: "at01"
 586 1493 l 258
 955 1493 1130 1328 1130 983 c 256
NamedP: "dh02"
 1130 783 1071 538 975 354 c 257
 839 98 641 0 295 0 c 258
NamedP: "ab01"
 -8 0 l 257
 283 1493 l 257
NamedP: "at01"
324 166 m 258
NamedP: "sv01"
 571 166 713 246 801 432 c 257
 870 576 924 820 924 996 c 256
NamedP: "dh01"
 924 1233 825 1327 567 1327 c 258
NamedP: "sv02"
 453 1327 l 257
 227 166 l 257
 324 166 l 258
NamedP: "sv01"
EndSplineSet
PickledDataWithLists: "(dp1
S'com.schriftgestaltung.Glyphs.lastChange'
p2
S'2017-07-11 17:15:08 +0000'
p3
s."
EndChar

StartChar: Dcroat
Encoding: 26 272 26
GlifName: D_croat
Width: 1233
VWidth: 0
Flags: W
LayerCount: 2
Fore
SplineSet
129 709 m 257
NamedP: "hr00"
 2 709 l 257
 31 858 l 257
 160 858 l 257
NamedP: "dv01"
 283 1493 l 257
NamedP: "at01"
 586 1493 l 258
 955 1493 1130 1328 1130 983 c 256
NamedP: "dh02"
 1130 783 1071 538 975 354 c 257
 839 98 641 0 295 0 c 258
NamedP: "ab01"
 -8 0 l 257
 129 709 l 257
NamedP: "hr00"
324 166 m 258
NamedP: "sv01"
 571 166 713 246 801 432 c 257
 870 576 924 820 924 996 c 256
NamedP: "dh01"
 924 1233 825 1327 567 1327 c 258
NamedP: "sv02"
 453 1327 l 257
 362 858 l 257
NamedP: "sv03"
 629 858 l 257
 600 709 l 257
NamedP: "sv04"
 334 709 l 257
 227 166 l 257
 324 166 l 258
NamedP: "sv01"
EndSplineSet
PickledDataWithLists: "(dp1
S'com.schriftgestaltung.Glyphs.lastChange'
p2
S'2017-07-11 17:15:08 +0000'
p3
s."
EndChar

StartChar: E
Encoding: 27 69 27
GlifName: E_
Width: 1233
VWidth: 0
Flags: W
LayerCount: 2
Fore
SplineSet
344 1493 m 257
NamedP: "hr00"
 1229 1493 l 257
 1196 1323 l 257
NamedP: "sv01"
 512 1323 l 257
 426 881 l 257
 1079 881 l 257
NamedP: "dv02"
 1047 711 l 257
NamedP: "dv01"
 393 711 l 257
 289 170 l 257
NamedP: "sv02"
 991 170 l 257
 958 0 l 257
NamedP: "ab01"
 53 0 l 257
 344 1493 l 257
NamedP: "hr00"
EndSplineSet
PickledDataWithLists: "(dp1
S'com.schriftgestaltung.Glyphs.lastChange'
p2
S'2017-07-11 17:15:08 +0000'
p3
s."
EndChar

StartChar: Eacute
Encoding: 28 201 28
GlifName: E_acute
Width: 1233
VWidth: 0
Flags: W
LayerCount: 2
Fore
SplineSet
930 1859 m 257
NamedP: "hr00"
 1138 1859 l 257
 831 1595 l 257
 671 1595 l 257
NamedP: "iv01"
 930 1859 l 257
NamedP: "hr00"
344 1493 m 257
NamedP: "at01"
 1229 1493 l 257
 1196 1323 l 257
NamedP: "sv01"
 512 1323 l 257
 426 881 l 257
 1079 881 l 257
NamedP: "dv02"
 1047 711 l 257
NamedP: "dv01"
 393 711 l 257
 289 170 l 257
NamedP: "sv02"
 991 170 l 257
 958 0 l 257
NamedP: "ab01"
 53 0 l 257
 344 1493 l 257
NamedP: "at01"
EndSplineSet
PickledDataWithLists: "(dp1
S'com.schriftgestaltung.Glyphs.lastChange'
p2
S'2017-07-11 17:15:08 +0000'
p3
s."
EndChar

StartChar: Ecaron
Encoding: 29 282 29
GlifName: E_caron
Width: 1233
VWidth: 0
Flags: W
LayerCount: 2
Fore
SplineSet
586 1861 m 257
NamedP: "hr00"
 722 1861 l 257
 861 1683 l 257
 1070 1861 l 257
NamedP: "av01"
 1221 1861 l 257
 957 1595 l 257
 744 1595 l 257
 586 1861 l 257
NamedP: "hr00"
344 1493 m 257
NamedP: "at01"
 1229 1493 l 257
 1196 1323 l 257
NamedP: "sv01"
 512 1323 l 257
 426 881 l 257
 1079 881 l 257
NamedP: "dv02"
 1047 711 l 257
NamedP: "dv01"
 393 711 l 257
 289 170 l 257
NamedP: "sv02"
 991 170 l 257
 958 0 l 257
NamedP: "ab01"
 53 0 l 257
 344 1493 l 257
NamedP: "at01"
EndSplineSet
PickledDataWithLists: "(dp1
S'com.schriftgestaltung.Glyphs.lastChange'
p2
S'2017-07-11 17:15:08 +0000'
p3
s."
EndChar

StartChar: Ecircumflex
Encoding: 30 202 30
GlifName: E_circumflex
Width: 1233
VWidth: 0
Flags: W
LayerCount: 2
Fore
SplineSet
749 1861 m 257
NamedP: "hr00"
 962 1861 l 257
 1120 1595 l 257
NamedP: "iv01"
 987 1595 l 257
 848 1773 l 257
 639 1595 l 257
 487 1595 l 257
NamedP: "iv02"
 749 1861 l 257
NamedP: "hr00"
344 1493 m 257
NamedP: "at01"
 1229 1493 l 257
 1196 1323 l 257
NamedP: "sv01"
 512 1323 l 257
 426 881 l 257
 1079 881 l 257
NamedP: "dv02"
 1047 711 l 257
NamedP: "dv01"
 393 711 l 257
 289 170 l 257
NamedP: "sv02"
 991 170 l 257
 958 0 l 257
NamedP: "ab01"
 53 0 l 257
 344 1493 l 257
NamedP: "at01"
EndSplineSet
PickledDataWithLists: "(dp1
S'com.schriftgestaltung.Glyphs.lastChange'
p2
S'2017-07-11 17:15:08 +0000'
p3
s."
EndChar

StartChar: Edieresis
Encoding: 31 203 31
GlifName: E_dieresis
Width: 1233
VWidth: 0
Flags: W
LayerCount: 2
Fore
SplineSet
545 1627 m 258
NamedP: "hr00"
 525 1627 514 1640 518 1660 c 258
 546 1803 l 257
 549 1821 559 1830 578 1830 c 258
NamedP: "dv01"
 722 1830 l 258
 740 1830 749 1822 749 1806 c 256
 749 1802 749 1799 748 1797 c 258
 719 1654 l 258
 715 1636 704 1627 687 1627 c 258
 545 1627 l 258
NamedP: "hr00"
936 1627 m 258
NamedP: "sv01"
 916 1627 905 1640 909 1660 c 258
 937 1803 l 257
 940 1821 950 1830 969 1830 c 258
NamedP: "sv02"
 1112 1830 l 258
 1132 1830 1143 1817 1139 1797 c 258
 1111 1654 l 258
 1108 1636 1097 1627 1079 1627 c 258
 936 1627 l 258
NamedP: "sv01"
344 1493 m 257
NamedP: "at01"
 1229 1493 l 257
 1196 1323 l 257
NamedP: "sv03"
 512 1323 l 257
 426 881 l 257
 1079 881 l 257
NamedP: "dv03"
 1047 711 l 257
NamedP: "dv02"
 393 711 l 257
 289 170 l 257
NamedP: "sv04"
 991 170 l 257
 958 0 l 257
NamedP: "ab01"
 53 0 l 257
 344 1493 l 257
NamedP: "at01"
EndSplineSet
PickledDataWithLists: "(dp1
S'com.schriftgestaltung.Glyphs.lastChange'
p2
S'2017-07-11 17:15:08 +0000'
p3
s."
EndChar

StartChar: Edotaccent
Encoding: 32 278 32
GlifName: E_dotaccent
Width: 1233
VWidth: 0
Flags: W
LayerCount: 2
Fore
SplineSet
751 1627 m 258
NamedP: "hr00"
 730 1627 715 1643 719 1666 c 258
 746 1809 l 258
 749 1824 760 1832 775 1832 c 258
NamedP: "dv01"
 916 1832 l 258
 937 1832 953 1816 949 1793 c 258
 921 1650 l 258
 918 1635 907 1627 892 1627 c 258
 751 1627 l 258
NamedP: "hr00"
344 1493 m 257
NamedP: "at01"
 1229 1493 l 257
 1196 1323 l 257
NamedP: "sv01"
 512 1323 l 257
 426 881 l 257
 1079 881 l 257
NamedP: "dv03"
 1047 711 l 257
NamedP: "dv02"
 393 711 l 257
 289 170 l 257
NamedP: "sv02"
 991 170 l 257
 958 0 l 257
NamedP: "ab01"
 53 0 l 257
 344 1493 l 257
NamedP: "at01"
EndSplineSet
PickledDataWithLists: "(dp1
S'com.schriftgestaltung.Glyphs.lastChange'
p2
S'2017-07-11 17:15:08 +0000'
p3
s."
EndChar

StartChar: Egrave
Encoding: 33 200 33
GlifName: E_grave
Width: 1233
VWidth: 0
Flags: W
LayerCount: 2
Fore
SplineSet
596 1849 m 257
NamedP: "hr00"
 778 1849 l 257
 925 1585 l 257
NamedP: "iv01"
 786 1585 l 257
 596 1849 l 257
NamedP: "hr00"
344 1493 m 257
NamedP: "at01"
 1229 1493 l 257
 1196 1323 l 257
NamedP: "sv01"
 512 1323 l 257
 426 881 l 257
 1079 881 l 257
NamedP: "dv02"
 1047 711 l 257
NamedP: "dv01"
 393 711 l 257
 289 170 l 257
NamedP: "sv02"
 991 170 l 257
 958 0 l 257
NamedP: "ab01"
 53 0 l 257
 344 1493 l 257
NamedP: "at01"
EndSplineSet
PickledDataWithLists: "(dp1
S'com.schriftgestaltung.Glyphs.lastChange'
p2
S'2017-07-11 17:15:08 +0000'
p3
s."
EndChar

StartChar: Emacron
Encoding: 34 274 34
GlifName: E_macron
Width: 1233
VWidth: 0
Flags: W
LayerCount: 2
Fore
SplineSet
549 1800 m 257
NamedP: "hr00"
 1147 1800 l 257
NamedP: "dv02"
 1118 1652 l 257
NamedP: "dv01"
 520 1652 l 257
 549 1800 l 257
NamedP: "hr00"
344 1493 m 257
NamedP: "at01"
 1229 1493 l 257
 1196 1323 l 257
NamedP: "sv01"
 512 1323 l 257
 426 881 l 257
 1079 881 l 257
NamedP: "dv04"
 1047 711 l 257
NamedP: "dv03"
 393 711 l 257
 289 170 l 257
NamedP: "sv02"
 991 170 l 257
 958 0 l 257
NamedP: "ab01"
 53 0 l 257
 344 1493 l 257
NamedP: "at01"
EndSplineSet
PickledDataWithLists: "(dp1
S'com.schriftgestaltung.Glyphs.lastChange'
p2
S'2017-07-11 17:15:08 +0000'
p3
s."
EndChar

StartChar: Eng
Encoding: 35 330 35
GlifName: E_ng
Width: 1233
VWidth: 0
Flags: W
LayerCount: 2
Fore
SplineSet
377 -270 m 257
NamedP: "hr00"
 544 -270 l 258
NamedP: "dv02"
 668 -270 738 -191 775 0 c 258
NamedP: "ab01"
 972 1009 l 258
 983 1062 988 1110 988 1153 c 256
NamedP: "dh01"
 988 1294 927 1358 800 1358 c 256
NamedP: "sv01"
 613 1358 480 1217 425 937 c 258
 242 0 l 257
NamedP: "hr01"
 40 0 l 257
 331 1493 l 257
NamedP: "at01"
 513 1493 l 257
 494 1295 l 257
NamedP: "iv01"
 595 1444 733 1522 902 1522 c 256
NamedP: "sv02"
 1097 1522 1195 1415 1195 1200 c 256
NamedP: "dh02"
 1195 1139 1188 1072 1173 999 c 258
 975 -20 l 258
 925 -280 772 -426 552 -426 c 258
NamedP: "dv01"
 347 -426 l 257
 377 -270 l 257
NamedP: "hr00"
EndSplineSet
PickledDataWithLists: "(dp1
S'com.schriftgestaltung.Glyphs.lastChange'
p2
S'2017-07-11 17:15:08 +0000'
p3
s."
EndChar

StartChar: Eogonek
Encoding: 36 280 36
GlifName: E_ogonek
Width: 1233
VWidth: 0
Flags: W
LayerCount: 2
Fore
SplineSet
512 1323 m 257
NamedP: "hr00"
 426 881 l 257
 1079 881 l 257
NamedP: "dv04"
 1047 711 l 257
NamedP: "dv03"
 393 711 l 257
 289 170 l 257
NamedP: "sv01"
 991 170 l 257
NamedP: "sv02"
 958 0 l 257
NamedP: "ab01"
 862 0 l 257
 781 -77 737 -144 737 -200 c 256
NamedP: "dh02"
 737 -247 769 -272 833 -272 c 256
NamedP: "dv02"
 872 -272 917 -262 960 -242 c 257
 935 -375 l 257
 889 -388 843 -395 796 -395 c 256
NamedP: "dv01"
 665 -395 591 -338 591 -245 c 256
NamedP: "dh01"
 591 -170 639 -93 743 0 c 257
NamedP: "ab02"
 53 0 l 257
 344 1493 l 257
NamedP: "at01"
 1229 1493 l 257
 1196 1323 l 257
 512 1323 l 257
NamedP: "hr00"
EndSplineSet
PickledDataWithLists: "(dp1
S'com.schriftgestaltung.Glyphs.lastChange'
p2
S'2017-07-11 17:15:08 +0000'
p3
s."
EndChar

StartChar: Epsilon
Encoding: 37 917 37
GlifName: E_psilon
Width: 1233
VWidth: 0
Flags: W
LayerCount: 2
Fore
SplineSet
344 1493 m 257
NamedP: "hr00"
 1229 1493 l 257
 1196 1323 l 257
NamedP: "sv01"
 512 1323 l 257
 426 881 l 257
 1079 881 l 257
NamedP: "dv02"
 1047 711 l 257
NamedP: "dv01"
 393 711 l 257
 289 170 l 257
NamedP: "sv02"
 991 170 l 257
 958 0 l 257
NamedP: "ab01"
 53 0 l 257
 344 1493 l 257
NamedP: "hr00"
EndSplineSet
PickledDataWithLists: "(dp1
S'com.schriftgestaltung.Glyphs.lastChange'
p2
S'2017-07-11 17:15:08 +0000'
p3
s."
EndChar

StartChar: Epsilontonos
Encoding: 38 904 38
GlifName: E_psilontonos
Width: 1233
VWidth: 0
Flags: W
LayerCount: 2
Fore
SplineSet
207 1638 m 257
NamedP: "hr00"
 426 1638 l 257
 31 1262 l 257
 -125 1262 l 257
NamedP: "iv01"
 207 1638 l 257
NamedP: "hr00"
344 1493 m 257
NamedP: "at01"
 1229 1493 l 257
 1196 1323 l 257
NamedP: "sv01"
 512 1323 l 257
 426 881 l 257
 1079 881 l 257
NamedP: "dv02"
 1047 711 l 257
NamedP: "dv01"
 393 711 l 257
 289 170 l 257
NamedP: "sv02"
 991 170 l 257
 958 0 l 257
NamedP: "ab01"
 53 0 l 257
 344 1493 l 257
NamedP: "at01"
EndSplineSet
PickledDataWithLists: "(dp1
S'com.schriftgestaltung.Glyphs.lastChange'
p2
S'2017-07-11 17:15:08 +0000'
p3
s."
EndChar

StartChar: Eta
Encoding: 39 919 39
GlifName: E_ta
Width: 1233
VWidth: 0
Flags: W
LayerCount: 2
Fore
SplineSet
283 1493 m 257
NamedP: "hr00"
 485 1493 l 257
 367 881 l 257
 920 881 l 257
NamedP: "dv02"
 1038 1493 l 257
NamedP: "at01"
 1241 1493 l 257
 950 0 l 257
NamedP: "ab01"
 748 0 l 257
 887 711 l 257
NamedP: "dv01"
 332 711 l 257
 195 0 l 257
NamedP: "ab02"
 -8 0 l 257
 283 1493 l 257
NamedP: "hr00"
EndSplineSet
PickledDataWithLists: "(dp1
S'com.schriftgestaltung.Glyphs.lastChange'
p2
S'2017-07-11 17:15:08 +0000'
p3
s."
EndChar

StartChar: Etatonos
Encoding: 40 905 40
GlifName: E_tatonos
Width: 1233
VWidth: 0
Flags: W
LayerCount: 2
Fore
SplineSet
157 1638 m 257
NamedP: "hr00"
 376 1638 l 257
 -19 1262 l 257
 -175 1262 l 257
NamedP: "iv01"
 157 1638 l 257
NamedP: "hr00"
283 1493 m 257
NamedP: "at01"
 485 1493 l 257
 367 881 l 257
 920 881 l 257
NamedP: "dv02"
 1038 1493 l 257
NamedP: "at02"
 1241 1493 l 257
 950 0 l 257
NamedP: "ab01"
 748 0 l 257
 887 711 l 257
NamedP: "dv01"
 332 711 l 257
 195 0 l 257
NamedP: "ab02"
 -8 0 l 257
 283 1493 l 257
NamedP: "at01"
EndSplineSet
PickledDataWithLists: "(dp1
S'com.schriftgestaltung.Glyphs.lastChange'
p2
S'2017-07-11 17:15:08 +0000'
p3
s."
EndChar

StartChar: Eth
Encoding: 41 208 41
GlifName: E_th
Width: 1233
VWidth: 0
Flags: W
LayerCount: 2
Fore
SplineSet
129 709 m 257
NamedP: "hr00"
 2 709 l 257
 31 858 l 257
 160 858 l 257
NamedP: "dv01"
 283 1493 l 257
NamedP: "at01"
 586 1493 l 258
 768 1493 904 1452 995 1369 c 256
 1087 1285 1130 1161 1130 986 c 256
NamedP: "dh02"
 1130 887 1116 775 1088 659 c 256
 1059 539 1018 434 975 354 c 256
 904 223 816 135 716 82 c 256
 613 27 472 0 295 0 c 258
NamedP: "ab01"
 -8 0 l 257
 129 709 l 257
NamedP: "hr00"
324 166 m 258
NamedP: "sv01"
 456 166 548 189 621 229 c 256
 705 276 756 340 800 432 c 256
 835 503 866 592 890 707 c 256
 913 814 924 913 924 993 c 256
NamedP: "dh01"
 924 1120 898 1200 842 1251 c 256
 787 1302 696 1327 567 1327 c 258
NamedP: "sv02"
 453 1327 l 257
 362 858 l 257
NamedP: "sv03"
 629 858 l 257
 600 709 l 257
NamedP: "sv04"
 334 709 l 257
 227 166 l 257
 324 166 l 258
NamedP: "sv01"
EndSplineSet
PickledDataWithLists: "(dp1
S'com.schriftgestaltung.Glyphs.lastChange'
p2
S'2017-07-11 17:15:08 +0000'
p3
s."
EndChar

StartChar: Euro
Encoding: 42 8364 42
GlifName: E_uro
Width: 1233
VWidth: 0
Flags: W
LayerCount: 2
Fore
SplineSet
612 -29 m 256
NamedP: "hr00"
 460 -29 350 20 277 105 c 256
 197 197 162 331 162 498 c 258
NamedP: "dh01"
 162 543 l 257
NamedP: "dv02"
 -10 543 l 257
 39 653 l 257
 172 653 l 257
NamedP: "dv03"
 177 692 182 726 189 757 c 257
 194 787 200 815 207 840 c 257
NamedP: "ih01"
 49 840 l 257
 98 948 l 257
 238 948 l 257
NamedP: "dv04"
 302 1143 389 1283 497 1376 c 256
 609 1472 742 1520 891 1520 c 256
NamedP: "at01"
 947 1520 994 1514 1045 1499 c 256
 1096 1485 1145 1465 1192 1438 c 257
 1153 1231 l 257
 1105 1275 1060 1307 1018 1326 c 256
 975 1346 929 1356 880 1356 c 256
NamedP: "sv01"
 789 1356 706 1321 632 1251 c 256
 557 1180 496 1079 449 948 c 257
NamedP: "sv02"
 922 948 l 257
 872 840 l 257
NamedP: "sv03"
 416 840 l 257
 408 807 406 805 395 751 c 256
 384 698 380 682 377 653 c 257
NamedP: "sh01"
 788 653 l 257
 741 543 l 257
NamedP: "sv04"
 365 543 l 257
 365 489 l 258
NamedP: "dh02"
 365 375 389 288 438 227 c 256
 485 167 552 135 644 135 c 256
NamedP: "dv01"
 697 135 750 146 807 167 c 256
 862 188 919 219 977 260 c 257
 938 53 l 257
 885 25 831 4 778 -9 c 256
 725 -22 671 -29 612 -29 c 256
NamedP: "hr00"
EndSplineSet
PickledDataWithLists: "(dp1
S'com.schriftgestaltung.Glyphs.lastChange'
p2
S'2017-07-11 17:15:08 +0000'
p3
s."
EndChar

StartChar: F
Encoding: 43 70 43
GlifName: F_
Width: 1233
VWidth: 0
Flags: W
LayerCount: 2
Fore
SplineSet
383 1493 m 257
NamedP: "hr00"
 1262 1493 l 257
 1229 1323 l 257
NamedP: "sv01"
 553 1323 l 257
 467 873 l 257
 1079 873 l 257
NamedP: "dv02"
 1047 703 l 257
NamedP: "dv01"
 434 703 l 257
 295 0 l 257
NamedP: "ab01"
 92 0 l 257
 383 1493 l 257
NamedP: "hr00"
EndSplineSet
PickledDataWithLists: "(dp1
S'com.schriftgestaltung.Glyphs.lastChange'
p2
S'2017-07-11 17:15:08 +0000'
p3
s."
EndChar

StartChar: G
Encoding: 44 71 44
GlifName: G_
Width: 1233
VWidth: 0
Flags: W
LayerCount: 2
Fore
SplineSet
564 -29 m 256
NamedP: "hr00"
 401 -29 283 18 202 106 c 256
 118 198 78 327 78 488 c 256
NamedP: "dh01"
 78 551 84 613 95 681 c 256
 106 742 123 825 143 893 c 256
 166 969 194 1041 225 1105 c 256
 258 1172 293 1223 328 1267 c 256
 395 1350 475 1415 566 1458 c 256
 653 1499 749 1520 854 1520 c 256
NamedP: "at01"
 915 1520 967 1514 1020 1499 c 256
 1074 1485 1126 1465 1176 1438 c 257
 1135 1231 l 257
 1088 1276 1040 1306 999 1325 c 256
 952 1346 901 1356 846 1356 c 256
NamedP: "sv01"
 779 1356 717 1342 662 1315 c 256
 606 1288 551 1244 508 1192 c 256
 478 1156 450 1113 425 1062 c 256
 397 1006 375 948 356 887 c 256
 333 812 316 738 305 673 c 256
 293 604 287 550 287 494 c 256
NamedP: "dh02"
 287 378 313 289 366 228 c 256
 419 165 492 135 592 135 c 256
NamedP: "dv01"
 640 135 677 142 712 154 c 256
 751 167 778 184 803 207 c 257
 879 600 l 257
 662 600 l 257
NamedP: "dv02"
 692 766 l 257
NamedP: "dv03"
 1102 766 l 257
 969 96 l 257
 912 55 848 24 779 3 c 256
 711 -18 643 -29 564 -29 c 256
NamedP: "hr00"
EndSplineSet
PickledDataWithLists: "(dp1
S'com.schriftgestaltung.Glyphs.lastChange'
p2
S'2017-07-11 17:15:08 +0000'
p3
s."
EndChar

StartChar: Gamma
Encoding: 45 915 45
GlifName: G_amma
Width: 1233
VWidth: 0
Flags: W
LayerCount: 2
Fore
SplineSet
360 1493 m 257
NamedP: "hr00"
 1284 1493 l 257
 1251 1323 l 257
NamedP: "sv01"
 530 1323 l 257
 273 0 l 257
NamedP: "ab01"
 70 0 l 257
 360 1493 l 257
NamedP: "hr00"
EndSplineSet
PickledDataWithLists: "(dp1
S'com.schriftgestaltung.Glyphs.lastChange'
p2
S'2017-07-11 17:15:08 +0000'
p3
s."
EndChar

StartChar: Gbreve
Encoding: 46 286 46
GlifName: G_breve
Width: 1233
VWidth: 0
Flags: W
LayerCount: 2
Fore
SplineSet
788 1619 m 256
NamedP: "dv03"
 708 1619 645 1639 598 1680 c 256
 554 1719 523 1773 508 1861 c 257
 622 1861 l 257
NamedP: "sv01"
 633 1820 652 1790 678 1773 c 256
 705 1754 740 1746 795 1746 c 256
NamedP: "dv04"
 850 1746 897 1755 933 1774 c 256
 968 1793 995 1822 1013 1861 c 257
NamedP: "sv02"
 1134 1861 l 257
 1112 1786 1070 1727 1009 1684 c 256
 946 1641 873 1619 788 1619 c 256
NamedP: "dv03"
564 -29 m 256
NamedP: "dv01"
 401 -29 283 18 202 106 c 256
 118 198 78 327 78 488 c 256
NamedP: "dh01"
 78 551 84 613 95 681 c 256
 106 744 122 821 143 893 c 256
 166 972 197 1049 225 1105 c 256
 262 1180 301 1232 328 1267 c 256
 393 1348 475 1415 566 1458 c 256
 653 1499 749 1520 854 1520 c 256
NamedP: "at01"
 915 1520 967 1514 1020 1499 c 256
 1074 1485 1126 1465 1176 1438 c 257
 1135 1231 l 257
 1088 1276 1040 1306 999 1325 c 256
 952 1346 901 1356 846 1356 c 256
NamedP: "sv03"
 779 1356 717 1342 662 1315 c 256
 606 1288 551 1244 508 1192 c 256
 478 1156 450 1113 425 1062 c 256
 398 1007 376 951 356 887 c 256
 332 810 316 737 305 673 c 256
 293 604 287 550 287 494 c 256
NamedP: "dh02"
 287 378 313 289 366 228 c 256
 419 165 492 135 592 135 c 256
NamedP: "dv02"
 640 135 677 142 712 154 c 256
 751 167 778 184 803 207 c 257
 879 600 l 257
 662 600 l 257
NamedP: "dv05"
 692 766 l 257
NamedP: "hr01"
 1102 766 l 257
 969 96 l 257
NamedP: "hr02"
 912 55 848 24 779 3 c 256
 711 -18 643 -29 564 -29 c 256
NamedP: "dv01"
EndSplineSet
PickledDataWithLists: "(dp1
S'com.schriftgestaltung.Glyphs.lastChange'
p2
S'2017-07-11 17:15:08 +0000'
p3
s."
EndChar

StartChar: Gcaron
Encoding: 47 486 47
GlifName: G_caron
Width: 1233
VWidth: 0
Flags: W
LayerCount: 2
Fore
SplineSet
529 1861 m 257
NamedP: "sv03"
 665 1861 l 257
 804 1683 l 257
 1013 1861 l 257
NamedP: "sv02"
 1164 1861 l 257
 900 1595 l 257
 687 1595 l 257
 529 1861 l 257
NamedP: "sv03"
563 -29 m 256
NamedP: "dv01"
 248 -29 78 156 78 487 c 256
NamedP: "dh01"
 78 612 102 754 143 893 c 256
 190 1050 248 1166 328 1266 c 256
 465 1435 640 1520 852 1520 c 256
NamedP: "at01"
 965 1520 1064 1495 1176 1438 c 257
 1135 1231 l 257
 1049 1314 952 1356 845 1356 c 256
NamedP: "sv01"
 716 1356 599 1300 508 1192 c 256
 443 1113 395 1010 356 887 c 257
 311 738 287 589 287 487 c 256
NamedP: "dh02"
 287 263 396 135 593 135 c 256
NamedP: "dv02"
 681 135 754 160 803 207 c 257
 879 600 l 257
 662 600 l 257
NamedP: "hr01"
 692 766 l 257
NamedP: "dv03"
 1102 766 l 257
 969 96 l 257
 854 13 715 -29 563 -29 c 256
NamedP: "dv01"
EndSplineSet
PickledDataWithLists: "(dp1
S'com.schriftgestaltung.Glyphs.lastChange'
p2
S'2017-07-11 17:15:08 +0000'
p3
s."
EndChar

StartChar: Gcircumflex
Encoding: 48 284 48
GlifName: G_circumflex
Width: 1233
VWidth: 0
Flags: W
LayerCount: 2
Fore
SplineSet
663 1595 m 257
NamedP: "hr00"
 872 1773 l 257
 1011 1595 l 257
 1144 1595 l 257
 986 1861 l 257
 773 1861 l 257
 511 1595 l 257
 663 1595 l 257
NamedP: "hr00"
969 96 m 257
 1102 766 l 257
 692 766 l 257
 662 600 l 257
 879 600 l 257
 803 207 l 257
 751 159 681 135 592 135 c 256
 492 135 419 165 366 228 c 256
 313 289 287 377 287 494 c 256
 287 512 289 540 292 579 c 257
 299 643 311 711 328 783 c 256
 369 958 429 1095 508 1192 c 256
 551 1244 606 1288 662 1315 c 256
 720 1342 781 1356 846 1356 c 256
 954 1356 1047 1315 1135 1231 c 257
 1176 1438 l 257
 1129 1465 1077 1485 1020 1499 c 257
 971 1513 915 1520 854 1520 c 256
NamedP: "hr01"
 749 1520 652 1499 563 1457 c 256
 420 1389 306 1270 222 1099 c 256
 163 980 127 856 95 681 c 257
 84 607 78 543 78 488 c 256
 78 156 249 -29 564 -29 c 256
 712 -29 856 15 969 96 c 257
EndSplineSet
PickledDataWithLists: "(dp1
S'com.schriftgestaltung.Glyphs.lastChange'
p2
S'2017-07-11 17:15:08 +0000'
p3
s."
EndChar

StartChar: Gdotaccent
Encoding: 49 288 49
GlifName: G_dotaccent
Width: 1233
VWidth: 0
Flags: W
LayerCount: 2
Fore
SplineSet
783 1627 m 258
NamedP: "hr00"
 762 1627 747 1643 751 1666 c 258
 778 1809 l 258
 781 1824 792 1832 807 1832 c 258
NamedP: "dv03"
 948 1832 l 258
 969 1832 985 1816 981 1793 c 258
 953 1650 l 258
 950 1635 939 1627 924 1627 c 258
 783 1627 l 258
NamedP: "hr00"
563 -29 m 256
NamedP: "dv01"
 248 -29 78 156 78 487 c 256
NamedP: "dh01"
 78 612 102 754 143 893 c 256
 190 1050 248 1166 328 1266 c 256
 465 1435 640 1520 852 1520 c 256
NamedP: "at01"
 965 1520 1064 1495 1176 1438 c 257
 1135 1231 l 257
 1049 1314 952 1356 845 1356 c 256
NamedP: "sv01"
 716 1356 599 1300 508 1192 c 256
 443 1113 395 1010 356 887 c 257
 311 738 287 589 287 487 c 256
NamedP: "dh02"
 287 263 396 135 593 135 c 256
NamedP: "dv02"
 681 135 754 160 803 207 c 257
 879 600 l 257
 662 600 l 257
NamedP: "dv04"
 692 766 l 257
NamedP: "dv05"
 1102 766 l 257
 969 96 l 257
 854 13 715 -29 563 -29 c 256
NamedP: "dv01"
EndSplineSet
PickledDataWithLists: "(dp1
S'com.schriftgestaltung.Glyphs.lastChange'
p2
S'2017-07-11 17:15:08 +0000'
p3
s."
EndChar

StartChar: H
Encoding: 50 72 50
GlifName: H_
Width: 1233
VWidth: 0
Flags: W
LayerCount: 2
Fore
SplineSet
283 1493 m 257
NamedP: "hr00"
 485 1493 l 257
 367 881 l 257
 920 881 l 257
NamedP: "dv02"
 1038 1493 l 257
NamedP: "at01"
 1241 1493 l 257
 950 0 l 257
NamedP: "ab01"
 748 0 l 257
 887 711 l 257
NamedP: "dv01"
 332 711 l 257
 195 0 l 257
NamedP: "ab02"
 -8 0 l 257
 283 1493 l 257
NamedP: "hr00"
EndSplineSet
PickledDataWithLists: "(dp1
S'com.schriftgestaltung.Glyphs.lastChange'
p2
S'2017-07-11 17:15:08 +0000'
p3
s."
EndChar

StartChar: Hbar
Encoding: 51 294 51
GlifName: H_bar
Width: 1233
VWidth: 0
Flags: W
LayerCount: 2
Fore
SplineSet
207 1105 m 257
NamedP: "sv01"
 73 1105 l 257
 105 1269 l 257
 239 1269 l 257
NamedP: "sv02"
 282 1493 l 257
NamedP: "at01"
 484 1493 l 257
 441 1269 l 257
NamedP: "sv03"
 995 1269 l 257
 1038 1493 l 257
NamedP: "at02"
 1240 1493 l 257
 1197 1269 l 257
NamedP: "sv04"
 1332 1269 l 257
 1300 1105 l 257
NamedP: "sv05"
 1165 1105 l 257
NamedP: "sv06"
 950 0 l 257
NamedP: "hr01"
 748 0 l 257
 886 711 l 257
NamedP: "hr02"
 332 711 l 257
 194 0 l 257
NamedP: "hr03"
 -8 0 l 257
 207 1105 l 257
NamedP: "sv01"
919 881 m 257
NamedP: "hr04"
 963 1105 l 257
NamedP: "sv07"
 409 1105 l 257
NamedP: "sv08"
 365 881 l 257
 919 881 l 257
NamedP: "hr04"
EndSplineSet
PickledDataWithLists: "(dp1
S'com.schriftgestaltung.Glyphs.lastChange'
p2
S'2017-07-11 17:15:08 +0000'
p3
s."
EndChar

StartChar: Hcircumflex
Encoding: 52 292 52
GlifName: H_circumflex
Width: 1233
VWidth: 0
Flags: W
LayerCount: 2
Fore
SplineSet
619 1595 m 257
NamedP: "hr00"
 828 1773 l 257
 967 1595 l 257
 1100 1595 l 257
 942 1861 l 257
 729 1861 l 257
 467 1595 l 257
 619 1595 l 257
NamedP: "hr00"
195 0 m 257
 332 711 l 257
 887 711 l 257
 748 0 l 257
 950 0 l 257
 1241 1493 l 257
 1038 1493 l 257
 920 881 l 257
 367 881 l 257
 485 1493 l 257
 283 1493 l 257
 -8 0 l 257
 195 0 l 257
EndSplineSet
PickledDataWithLists: "(dp1
S'com.schriftgestaltung.Glyphs.lastChange'
p2
S'2017-07-11 17:15:08 +0000'
p3
s."
EndChar

StartChar: I
Encoding: 53 73 53
GlifName: I_
Width: 1233
VWidth: 0
Flags: W
LayerCount: 2
Fore
SplineSet
90 170 m 257
NamedP: "hr00"
 403 170 l 257
 627 1323 l 257
NamedP: "sv01"
 313 1323 l 257
 346 1493 l 257
NamedP: "at01"
 1176 1493 l 257
 1143 1323 l 257
NamedP: "sv02"
 829 1323 l 257
NamedP: "sv03"
 606 170 l 257
NamedP: "sv04"
 920 170 l 257
NamedP: "sv05"
 887 0 l 257
NamedP: "ab01"
 57 0 l 257
 90 170 l 257
NamedP: "hr00"
EndSplineSet
PickledDataWithLists: "(dp1
S'com.schriftgestaltung.Glyphs.lastChange'
p2
S'2017-07-11 17:15:08 +0000'
p3
s."
EndChar

StartChar: IJ
Encoding: 54 306 54
GlifName: I_J_
Width: 1233
VWidth: 0
Flags: W
LayerCount: 2
Fore
SplineSet
65 203 m 257
NamedP: "hr00"
 623 203 l 258
 660 203 695 212 730 231 c 256
 799 267 851 333 866 406 c 258
 1043 1323 l 257
 723 1323 l 257
 756 1493 l 257
 1279 1494 l 257
 1069 406 l 257
 1054 332 1022 264 975 203 c 256
NamedP: "hr01"
 878 78 731 0 584 0 c 258
NamedP: "hr02"
 26 0 l 257
 65 203 l 257
NamedP: "hr00"
316 1493 m 257
 519 1493 l 257
 308 406 l 257
 105 406 l 257
 316 1493 l 257
EndSplineSet
PickledDataWithLists: "(dp1
S'com.schriftgestaltung.Glyphs.lastChange'
p2
S'2017-07-11 17:15:08 +0000'
p3
s."
EndChar

StartChar: Iacute
Encoding: 55 205 55
GlifName: I_acute
Width: 1233
VWidth: 0
Flags: W
LayerCount: 2
Fore
SplineSet
891 1859 m 257
NamedP: "hr00"
 1099 1859 l 257
 792 1595 l 257
 632 1595 l 257
NamedP: "iv01"
 891 1859 l 257
NamedP: "hr00"
90 170 m 257
NamedP: "sv01"
 403 170 l 257
 627 1323 l 257
NamedP: "sv02"
 313 1323 l 257
 346 1493 l 257
NamedP: "at01"
 1176 1493 l 257
 1143 1323 l 257
NamedP: "sv03"
 829 1323 l 257
NamedP: "sv04"
 606 170 l 257
NamedP: "sv05"
 920 170 l 257
NamedP: "sv06"
 887 0 l 257
NamedP: "ab01"
 57 0 l 257
 90 170 l 257
NamedP: "sv01"
EndSplineSet
PickledDataWithLists: "(dp1
S'com.schriftgestaltung.Glyphs.lastChange'
p2
S'2017-07-11 17:15:08 +0000'
p3
s."
EndChar

StartChar: Icircumflex
Encoding: 56 206 56
GlifName: I_circumflex
Width: 1233
VWidth: 0
Flags: W
LayerCount: 2
Fore
SplineSet
710 1861 m 257
NamedP: "hr00"
 923 1861 l 257
 1081 1595 l 257
NamedP: "iv01"
 948 1595 l 257
 809 1773 l 257
 600 1595 l 257
 448 1595 l 257
NamedP: "iv02"
 710 1861 l 257
NamedP: "hr00"
90 170 m 257
NamedP: "sv01"
 403 170 l 257
 627 1323 l 257
NamedP: "sv02"
 313 1323 l 257
 346 1493 l 257
NamedP: "at01"
 1176 1493 l 257
 1143 1323 l 257
NamedP: "sv03"
 829 1323 l 257
NamedP: "sv04"
 606 170 l 257
NamedP: "sv05"
 920 170 l 257
NamedP: "sv06"
 887 0 l 257
NamedP: "ab01"
 57 0 l 257
 90 170 l 257
NamedP: "sv01"
EndSplineSet
PickledDataWithLists: "(dp1
S'com.schriftgestaltung.Glyphs.lastChange'
p2
S'2017-07-11 17:15:08 +0000'
p3
s."
EndChar

StartChar: Idieresis
Encoding: 57 207 57
GlifName: I_dieresis
Width: 1233
VWidth: 0
Flags: W
LayerCount: 2
Fore
SplineSet
506 1627 m 258
NamedP: "hr00"
 486 1627 475 1640 479 1660 c 258
 507 1803 l 257
 510 1821 520 1830 539 1830 c 258
NamedP: "dv01"
 683 1830 l 258
 701 1830 710 1822 710 1806 c 256
 710 1802 710 1799 709 1797 c 258
 680 1654 l 258
 676 1636 665 1627 648 1627 c 258
 506 1627 l 258
NamedP: "hr00"
897 1627 m 258
NamedP: "sv01"
 877 1627 866 1640 870 1660 c 258
 898 1803 l 257
 901 1821 911 1830 930 1830 c 258
NamedP: "sv02"
 1073 1830 l 258
 1093 1830 1104 1817 1100 1797 c 258
 1072 1654 l 258
 1069 1636 1058 1627 1040 1627 c 258
 897 1627 l 258
NamedP: "sv01"
90 170 m 257
NamedP: "sv03"
 403 170 l 257
 627 1323 l 257
NamedP: "sv04"
 313 1323 l 257
 346 1493 l 257
NamedP: "at01"
 1176 1493 l 257
 1143 1323 l 257
NamedP: "sv05"
 829 1323 l 257
NamedP: "sv06"
 606 170 l 257
NamedP: "sv07"
 920 170 l 257
NamedP: "sv08"
 887 0 l 257
NamedP: "ab01"
 57 0 l 257
 90 170 l 257
NamedP: "sv03"
EndSplineSet
PickledDataWithLists: "(dp1
S'com.schriftgestaltung.Glyphs.lastChange'
p2
S'2017-07-11 17:15:08 +0000'
p3
s."
EndChar

StartChar: Idotaccent
Encoding: 58 304 58
GlifName: I_dotaccent
Width: 1233
VWidth: 0
Flags: W
LayerCount: 2
Fore
SplineSet
711 1627 m 258
NamedP: "hr00"
 693 1627 684 1635 684 1651 c 256
 684 1655 684 1658 685 1660 c 258
 714 1805 l 257
 717 1823 727 1832 746 1832 c 258
NamedP: "dv01"
 888 1832 l 258
 908 1832 919 1819 915 1799 c 258
 887 1654 l 258
 884 1636 873 1627 855 1627 c 258
 711 1627 l 258
NamedP: "hr00"
90 170 m 257
NamedP: "sv01"
 403 170 l 257
 627 1323 l 257
NamedP: "sv02"
 313 1323 l 257
 346 1493 l 257
NamedP: "at01"
 1176 1493 l 257
 1143 1323 l 257
NamedP: "sv03"
 829 1323 l 257
NamedP: "sv04"
 606 170 l 257
NamedP: "sv05"
 920 170 l 257
NamedP: "sv06"
 887 0 l 257
NamedP: "ab01"
 57 0 l 257
 90 170 l 257
NamedP: "sv01"
EndSplineSet
PickledDataWithLists: "(dp1
S'com.schriftgestaltung.Glyphs.lastChange'
p2
S'2017-07-11 17:15:08 +0000'
p3
s."
EndChar

StartChar: Igrave
Encoding: 59 204 59
GlifName: I_grave
Width: 1233
VWidth: 0
Flags: W
LayerCount: 2
Fore
SplineSet
557 1859 m 257
NamedP: "hr00"
 739 1859 l 257
 886 1595 l 257
NamedP: "iv01"
 747 1595 l 257
 557 1859 l 257
NamedP: "hr00"
90 170 m 257
NamedP: "sv01"
 403 170 l 257
 627 1323 l 257
NamedP: "sv02"
 313 1323 l 257
 346 1493 l 257
NamedP: "at01"
 1176 1493 l 257
 1143 1323 l 257
NamedP: "sv03"
 829 1323 l 257
NamedP: "sv04"
 606 170 l 257
NamedP: "sv05"
 920 170 l 257
NamedP: "sv06"
 887 0 l 257
NamedP: "ab01"
 57 0 l 257
 90 170 l 257
NamedP: "sv01"
EndSplineSet
PickledDataWithLists: "(dp1
S'com.schriftgestaltung.Glyphs.lastChange'
p2
S'2017-07-11 17:15:08 +0000'
p3
s."
EndChar

StartChar: Imacron
Encoding: 60 298 60
GlifName: I_macron
Width: 1233
VWidth: 0
Flags: W
LayerCount: 2
Fore
SplineSet
531 1800 m 257
NamedP: "hr00"
 1129 1800 l 257
NamedP: "dv02"
 1100 1652 l 257
NamedP: "dv01"
 502 1652 l 257
 531 1800 l 257
NamedP: "hr00"
90 170 m 257
NamedP: "sv01"
 403 170 l 257
 627 1323 l 257
NamedP: "sv02"
 313 1323 l 257
 346 1493 l 257
NamedP: "at01"
 1176 1493 l 257
 1143 1323 l 257
NamedP: "sv03"
 829 1323 l 257
NamedP: "sv04"
 606 170 l 257
NamedP: "sv05"
 920 170 l 257
NamedP: "sv06"
 887 0 l 257
NamedP: "ab01"
 57 0 l 257
 90 170 l 257
NamedP: "sv01"
EndSplineSet
PickledDataWithLists: "(dp1
S'com.schriftgestaltung.Glyphs.lastChange'
p2
S'2017-07-11 17:15:08 +0000'
p3
s."
EndChar

StartChar: Iogonek
Encoding: 61 302 61
GlifName: I_ogonek
Width: 1233
VWidth: 0
Flags: W
LayerCount: 2
Fore
SplineSet
865 1323 m 257
NamedP: "hr00"
 642 170 l 257
NamedP: "sv01"
 956 170 l 257
NamedP: "sv02"
 923 0 l 257
NamedP: "ab01"
 610 0 l 257
 529 -77 485 -144 485 -200 c 256
NamedP: "dh02"
 485 -247 517 -272 581 -272 c 256
NamedP: "dv02"
 620 -272 665 -262 708 -242 c 257
 683 -375 l 257
 637 -388 591 -395 544 -395 c 256
NamedP: "dv01"
 413 -395 339 -338 339 -245 c 256
NamedP: "dh01"
 339 -170 387 -93 491 0 c 257
NamedP: "ab02"
 93 0 l 257
 126 170 l 257
NamedP: "sv03"
 439 170 l 257
NamedP: "sv04"
 663 1323 l 257
NamedP: "sv05"
 349 1323 l 257
NamedP: "sh01"
 382 1493 l 257
NamedP: "at01"
 1212 1493 l 257
 1179 1323 l 257
 865 1323 l 257
NamedP: "hr00"
EndSplineSet
PickledDataWithLists: "(dp1
S'com.schriftgestaltung.Glyphs.lastChange'
p2
S'2017-07-11 17:15:08 +0000'
p3
s."
EndChar

StartChar: Iota
Encoding: 62 921 62
GlifName: I_ota
Width: 1233
VWidth: 0
Flags: W
LayerCount: 2
Fore
SplineSet
90 170 m 257
NamedP: "hr00"
 403 170 l 257
 627 1323 l 257
NamedP: "sv01"
 313 1323 l 257
 346 1493 l 257
NamedP: "at01"
 1176 1493 l 257
 1143 1323 l 257
NamedP: "sv02"
 829 1323 l 257
NamedP: "sv03"
 606 170 l 257
NamedP: "sv04"
 920 170 l 257
NamedP: "sv05"
 887 0 l 257
NamedP: "ab01"
 57 0 l 257
 90 170 l 257
NamedP: "hr00"
EndSplineSet
PickledDataWithLists: "(dp1
S'com.schriftgestaltung.Glyphs.lastChange'
p2
S'2017-07-11 17:15:08 +0000'
p3
s."
EndChar

StartChar: Iotadieresis
Encoding: 63 938 63
GlifName: I_otadieresis
Width: 1233
VWidth: 0
Flags: W
LayerCount: 2
Fore
SplineSet
506 1647 m 258
NamedP: "hr00"
 486 1647 475 1660 479 1680 c 258
 507 1823 l 257
 510 1841 520 1850 539 1850 c 258
NamedP: "dv01"
 683 1850 l 258
 704 1850 713 1837 709 1817 c 258
 680 1674 l 258
 676 1656 665 1647 648 1647 c 258
 506 1647 l 258
NamedP: "hr00"
897 1647 m 258
NamedP: "sv01"
 877 1647 866 1660 870 1680 c 258
 898 1823 l 257
 901 1841 911 1850 930 1850 c 258
NamedP: "sv02"
 1073 1850 l 258
 1093 1850 1104 1837 1100 1817 c 258
 1072 1674 l 258
 1069 1656 1058 1647 1040 1647 c 258
 897 1647 l 258
NamedP: "sv01"
90 170 m 257
NamedP: "sv03"
 403 170 l 257
 627 1323 l 257
NamedP: "sv04"
 313 1323 l 257
 346 1493 l 257
NamedP: "at01"
 1176 1493 l 257
 1143 1323 l 257
NamedP: "sv05"
 829 1323 l 257
NamedP: "sv06"
 606 170 l 257
NamedP: "sv07"
 920 170 l 257
NamedP: "sv08"
 887 0 l 257
NamedP: "ab01"
 57 0 l 257
 90 170 l 257
NamedP: "sv03"
EndSplineSet
PickledDataWithLists: "(dp1
S'com.schriftgestaltung.Glyphs.lastChange'
p2
S'2017-07-11 17:15:08 +0000'
p3
s."
EndChar

StartChar: Iotatonos
Encoding: 64 906 64
GlifName: I_otatonos
Width: 1233
VWidth: 0
Flags: W
LayerCount: 2
Fore
SplineSet
207 1638 m 257
NamedP: "hr00"
 426 1638 l 257
NamedP: "dv02"
 31 1262 l 257
 -125 1262 l 257
NamedP: "iv01"
 207 1638 l 257
NamedP: "hr00"
90 170 m 257
NamedP: "sv01"
 403 170 l 257
 627 1323 l 257
NamedP: "hr01"
 313 1323 l 257
NamedP: "dv01"
 346 1493 l 257
NamedP: "at01"
 1176 1493 l 257
 1143 1323 l 257
NamedP: "sv02"
 829 1323 l 257
NamedP: "sv03"
 606 170 l 257
NamedP: "sv04"
 920 170 l 257
NamedP: "sv05"
 887 0 l 257
NamedP: "hr02"
 57 0 l 257
 90 170 l 257
NamedP: "sv01"
EndSplineSet
PickledDataWithLists: "(dp1
S'com.schriftgestaltung.Glyphs.lastChange'
p2
S'2017-07-11 17:15:08 +0000'
p3
s."
EndChar

StartChar: Itilde
Encoding: 65 296 65
GlifName: I_tilde
Width: 1233
VWidth: 0
Flags: W
LayerCount: 2
Fore
SplineSet
448 1627 m 257
NamedP: "sv01"
 495 1772 580 1846 688 1846 c 256
NamedP: "dv02"
 733 1846 776 1834 823 1799 c 258
 858 1773 l 258
 882 1755 906 1746 930 1746 c 256
NamedP: "dv04"
 986 1746 1023 1785 1038 1846 c 257
NamedP: "sv02"
 1163 1846 l 257
 1120 1698 1029 1627 918 1627 c 256
NamedP: "dv03"
 875 1627 840 1638 796 1670 c 258
 762 1695 l 257
 760 1696 l 256
 731 1717 705 1728 680 1728 c 256
NamedP: "dv01"
 634 1728 598 1694 573 1627 c 257
 448 1627 l 257
NamedP: "sv01"
90 170 m 257
NamedP: "hr01"
 403 170 l 257
 627 1323 l 257
NamedP: "sv03"
 313 1323 l 257
 346 1493 l 257
NamedP: "hr02"
 1176 1493 l 257
NamedP: "hr03"
 1143 1323 l 257
NamedP: "sv04"
 829 1323 l 257
NamedP: "hr04"
 606 170 l 257
NamedP: "sv05"
 920 170 l 257
NamedP: "sv06"
 887 0 l 257
NamedP: "hr05"
 57 0 l 257
NamedP: "hr06"
 90 170 l 257
NamedP: "hr01"
EndSplineSet
PickledDataWithLists: "(dp1
S'com.schriftgestaltung.Glyphs.lastChange'
p2
S'2017-07-11 17:15:08 +0000'
p3
s."
EndChar

StartChar: J
Encoding: 66 74 66
GlifName: J_
Width: 1233
VWidth: 0
Flags: W
LayerCount: 2
Fore
SplineSet
375 -29 m 256
NamedP: "hr00"
 303 -29 242 -21 174 -6 c 256
 103 10 42 32 -25 61 c 257
 20 297 l 257
 71 241 124 204 184 177 c 256
 243 150 303 135 380 135 c 256
NamedP: "dv01"
 475 135 545 159 592 208 c 256
 635 252 673 336 702 487 c 258
 866 1323 l 257
NamedP: "sv01"
 485 1323 l 257
 518 1493 l 257
NamedP: "at01"
 1102 1493 l 257
 905 487 l 258
 866 287 810 162 729 86 c 256
 645 7 532 -29 375 -29 c 256
NamedP: "hr00"
EndSplineSet
PickledDataWithLists: "(dp1
S'com.schriftgestaltung.Glyphs.lastChange'
p2
S'2017-07-11 17:15:08 +0000'
p3
s."
EndChar

StartChar: Jcircumflex
Encoding: 67 308 67
GlifName: J_circumflex
Width: 1233
VWidth: 0
Flags: W
LayerCount: 2
Fore
SplineSet
840 1595 m 257
NamedP: "hr00"
 1049 1773 l 257
 1188 1595 l 257
 1321 1595 l 257
 1163 1861 l 257
 950 1861 l 257
 688 1595 l 257
 840 1595 l 257
NamedP: "hr00"
729 86 m 256
 810 162 866 288 905 487 c 258
 1102 1493 l 257
 518 1493 l 257
 485 1323 l 257
 866 1323 l 257
 702 487 l 258
 684 396 662 324 637 273 c 256
 586 173 511 135 380 135 c 256
 308 135 248 149 184 177 c 256
 122 204 67 244 20 297 c 257
 -25 61 l 257
 118 0 246 -29 375 -29 c 256
 532 -29 645 7 729 86 c 256
EndSplineSet
PickledDataWithLists: "(dp1
S'com.schriftgestaltung.Glyphs.lastChange'
p2
S'2017-07-11 17:15:08 +0000'
p3
s."
EndChar

StartChar: K
Encoding: 68 75 68
GlifName: K_
Width: 1233
VWidth: 0
Flags: W
LayerCount: 2
Fore
SplineSet
283 1493 m 257
NamedP: "hr00"
 485 1493 l 257
 358 846 l 257
NamedP: "iv01"
 1100 1493 l 257
NamedP: "at01"
 1354 1493 l 257
 651 874 l 257
 1079 0 l 257
NamedP: "ab01"
 860 0 l 257
 500 741 l 257
NamedP: "iv02"
 307 573 l 257
 195 0 l 257
NamedP: "ab02"
 -8 0 l 257
 283 1493 l 257
NamedP: "hr00"
EndSplineSet
PickledDataWithLists: "(dp1
S'com.schriftgestaltung.Glyphs.lastChange'
p2
S'2017-07-11 17:15:08 +0000'
p3
s."
EndChar

StartChar: Kappa
Encoding: 69 922 69
GlifName: K_appa
Width: 1233
VWidth: 0
Flags: W
LayerCount: 2
Fore
SplineSet
283 1493 m 257
NamedP: "hr00"
 485 1493 l 257
 358 846 l 257
NamedP: "iv01"
 1100 1493 l 257
NamedP: "at01"
 1354 1493 l 257
 651 874 l 257
 1079 0 l 257
NamedP: "ab01"
 860 0 l 257
 500 741 l 257
NamedP: "iv02"
 307 573 l 257
 195 0 l 257
NamedP: "ab02"
 -8 0 l 257
 283 1493 l 257
NamedP: "hr00"
EndSplineSet
PickledDataWithLists: "(dp1
S'com.schriftgestaltung.Glyphs.lastChange'
p2
S'2017-07-11 17:15:08 +0000'
p3
s."
EndChar

StartChar: L
Encoding: 70 76 70
GlifName: L_
Width: 1233
VWidth: 0
Flags: W
LayerCount: 2
Fore
SplineSet
369 1493 m 257
NamedP: "hr00"
 571 1493 l 257
 313 170 l 257
NamedP: "sv01"
 1034 170 l 257
 1001 0 l 257
NamedP: "ab01"
 78 0 l 257
 369 1493 l 257
NamedP: "hr00"
EndSplineSet
PickledDataWithLists: "(dp1
S'com.schriftgestaltung.Glyphs.lastChange'
p2
S'2017-07-11 17:15:08 +0000'
p3
s."
EndChar

StartChar: Lacute
Encoding: 71 313 71
GlifName: L_acute
Width: 1233
VWidth: 0
Flags: W
LayerCount: 2
Fore
SplineSet
839 1860 m 257
NamedP: "hr00"
 1047 1860 l 257
 740 1596 l 257
 580 1596 l 257
NamedP: "iv01"
 839 1860 l 257
NamedP: "hr00"
369 1493 m 257
NamedP: "at01"
 571 1493 l 257
 313 170 l 257
NamedP: "sv01"
 1034 170 l 257
 1001 0 l 257
NamedP: "ab01"
 78 0 l 257
 369 1493 l 257
NamedP: "at01"
EndSplineSet
PickledDataWithLists: "(dp1
S'com.schriftgestaltung.Glyphs.lastChange'
p2
S'2017-07-11 17:15:08 +0000'
p3
s."
EndChar

StartChar: Lambda
Encoding: 72 923 72
GlifName: L_ambda
Width: 1233
VWidth: 0
Flags: W
LayerCount: 2
Fore
SplineSet
640 1493 m 257
NamedP: "hr00"
 885 1493 l 257
 1052 0 l 257
NamedP: "ab01"
 843 0 l 257
 728 1315 l 257
NamedP: "iv01"
 102 0 l 257
NamedP: "ab02"
 -107 0 l 257
 640 1493 l 257
NamedP: "hr00"
EndSplineSet
PickledDataWithLists: "(dp1
S'com.schriftgestaltung.Glyphs.lastChange'
p2
S'2017-07-11 17:15:08 +0000'
p3
s."
EndChar

StartChar: Lcaron
Encoding: 73 317 73
GlifName: L_caron
Width: 1233
VWidth: 0
Flags: W
LayerCount: 2
Fore
SplineSet
369 1493 m 257
NamedP: "at01"
 571 1493 l 257
 313 170 l 257
NamedP: "sv01"
 1034 170 l 257
 1001 0 l 257
NamedP: "ab01"
 78 0 l 257
 369 1493 l 257
NamedP: "at01"
887 1492 m 257
NamedP: "at02"
 1106 1492 l 257
 898 1116 l 257
NamedP: "hr01"
 742 1116 l 257
 887 1492 l 257
NamedP: "at02"
EndSplineSet
PickledDataWithLists: "(dp1
S'com.schriftgestaltung.Glyphs.lastChange'
p2
S'2017-07-11 17:15:08 +0000'
p3
s."
EndChar

StartChar: Ldot
Encoding: 74 319 74
GlifName: L_dot
Width: 1233
VWidth: 0
Flags: W
LayerCount: 2
Fore
SplineSet
368 1493 m 257
NamedP: "hr00"
 571 1493 l 257
 314 170 l 257
 1035 170 l 257
 1002 0 l 257
 78 0 l 257
 368 1493 l 257
NamedP: "hr00"
649 561 m 256
 649 566 649 569 650 570 c 257
 678 714 l 258
 682 734 694 744 714 744 c 258
 859 744 l 258
 876 744 884 737 884 723 c 256
 884 718 884 715 883 714 c 257
 855 570 l 258
 851 550 839 540 819 540 c 258
 674 540 l 258
 657 540 649 547 649 561 c 256
EndSplineSet
PickledDataWithLists: "(dp1
S'com.schriftgestaltung.Glyphs.lastChange'
p2
S'2017-07-11 17:15:08 +0000'
p3
s."
EndChar

StartChar: Lslash
Encoding: 75 321 75
GlifName: L_slash
Width: 1233
VWidth: 0
Flags: W
LayerCount: 2
Fore
SplineSet
195 563 m 257
NamedP: "hr00"
 45 459 l 257
 -29 559 l 257
 231 739 l 257
 371 1491 l 257
NamedP: "at01"
 573 1491 l 257
 459 899 l 257
NamedP: "iv01"
 756 1108 l 257
 829 1008 l 257
 430 729 l 257
 317 168 l 257
NamedP: "sv01"
 1038 168 l 257
 1006 0 l 257
NamedP: "ab01"
 82 0 l 257
 195 563 l 257
NamedP: "hr00"
EndSplineSet
PickledDataWithLists: "(dp1
S'com.schriftgestaltung.Glyphs.lastChange'
p2
S'2017-07-11 17:15:08 +0000'
p3
s."
EndChar

StartChar: M
Encoding: 76 77 76
GlifName: M_
Width: 1233
VWidth: 0
Flags: W
LayerCount: 2
Fore
SplineSet
229 1493 m 257
NamedP: "hr00"
 498 1493 l 257
 608 737 l 257
NamedP: "iv01"
 1022 1493 l 257
NamedP: "at01"
 1292 1493 l 257
 1001 0 l 257
NamedP: "ab01"
 815 0 l 257
 1073 1327 l 257
NamedP: "iv02"
 639 532 l 257
 498 532 l 257
 383 1327 l 257
NamedP: "iv03"
 127 0 l 257
NamedP: "ab02"
 -59 0 l 257
 229 1493 l 257
NamedP: "hr00"
EndSplineSet
PickledDataWithLists: "(dp1
S'com.schriftgestaltung.Glyphs.lastChange'
p2
S'2017-07-11 17:15:08 +0000'
p3
s."
EndChar

StartChar: Mu
Encoding: 77 924 77
GlifName: M_u
Width: 1233
VWidth: 0
Flags: W
LayerCount: 2
Fore
SplineSet
229 1493 m 257
NamedP: "hr00"
 498 1493 l 257
 608 737 l 257
NamedP: "iv01"
 1022 1493 l 257
NamedP: "at01"
 1292 1493 l 257
 1001 0 l 257
NamedP: "ab01"
 815 0 l 257
 1073 1327 l 257
NamedP: "iv02"
 639 532 l 257
 498 532 l 257
 383 1327 l 257
NamedP: "iv03"
 127 0 l 257
NamedP: "ab02"
 -59 0 l 257
 229 1493 l 257
NamedP: "hr00"
EndSplineSet
PickledDataWithLists: "(dp1
S'com.schriftgestaltung.Glyphs.lastChange'
p2
S'2017-07-11 17:15:08 +0000'
p3
s."
EndChar

StartChar: N
Encoding: 78 78 78
GlifName: N_
Width: 1233
VWidth: 0
Flags: W
LayerCount: 2
Fore
SplineSet
285 1493 m 257
NamedP: "hr00"
 541 1493 l 257
 805 264 l 257
NamedP: "iv01"
 1044 1493 l 257
NamedP: "at01"
 1239 1493 l 257
 948 0 l 257
NamedP: "ab01"
 692 0 l 257
 428 1229 l 257
NamedP: "iv02"
 188 0 l 257
NamedP: "ab02"
 -6 0 l 257
 285 1493 l 257
NamedP: "hr00"
EndSplineSet
PickledDataWithLists: "(dp1
S'com.schriftgestaltung.Glyphs.lastChange'
p2
S'2017-07-11 17:15:08 +0000'
p3
s."
EndChar

StartChar: Nacute
Encoding: 80 323 80
GlifName: N_acute
Width: 1233
VWidth: 0
Flags: W
LayerCount: 2
Fore
SplineSet
907 1866 m 257
NamedP: "hr00"
 1115 1866 l 257
 808 1602 l 257
 648 1602 l 257
NamedP: "iv01"
 907 1866 l 257
NamedP: "hr00"
285 1493 m 257
NamedP: "at01"
 541 1493 l 257
 805 264 l 257
NamedP: "iv02"
 1044 1493 l 257
NamedP: "at02"
 1239 1493 l 257
 948 0 l 257
NamedP: "ab01"
 692 0 l 257
 428 1229 l 257
NamedP: "iv03"
 188 0 l 257
NamedP: "ab02"
 -6 0 l 257
 285 1493 l 257
NamedP: "at01"
EndSplineSet
PickledDataWithLists: "(dp1
S'com.schriftgestaltung.Glyphs.lastChange'
p2
S'2017-07-11 17:15:08 +0000'
p3
s."
EndChar

StartChar: Ncaron
Encoding: 81 327 81
GlifName: N_caron
Width: 1233
VWidth: 0
Flags: W
LayerCount: 2
Fore
SplineSet
534 1861 m 257
NamedP: "hr00"
 670 1861 l 257
 809 1683 l 257
 1018 1861 l 257
NamedP: "av01"
 1169 1861 l 257
 905 1595 l 257
 692 1595 l 257
 534 1861 l 257
NamedP: "hr00"
285 1493 m 257
NamedP: "at01"
 541 1493 l 257
 805 264 l 257
NamedP: "iv01"
 1044 1493 l 257
NamedP: "at02"
 1239 1493 l 257
 948 0 l 257
NamedP: "ab01"
 692 0 l 257
 428 1229 l 257
NamedP: "iv02"
 188 0 l 257
NamedP: "ab02"
 -6 0 l 257
 285 1493 l 257
NamedP: "at01"
EndSplineSet
PickledDataWithLists: "(dp1
S'com.schriftgestaltung.Glyphs.lastChange'
p2
S'2017-07-11 17:15:08 +0000'
p3
s."
EndChar

StartChar: Ntilde
Encoding: 82 209 82
GlifName: N_tilde
Width: 1233
VWidth: 0
Flags: W
LayerCount: 2
Fore
SplineSet
438 1627 m 257
NamedP: "hr00"
 461 1698 493 1753 535 1791 c 256
 576 1828 625 1846 680 1846 c 256
NamedP: "dv02"
 707 1846 726 1842 747 1835 c 256
 769 1828 791 1816 813 1799 c 258
 848 1773 l 258
 861 1764 873 1757 884 1753 c 256
 895 1749 904 1746 920 1746 c 256
 951 1746 970 1756 989 1773 c 256
 1008 1791 1021 1815 1028 1846 c 257
NamedP: "sv01"
 1153 1846 l 257
 1132 1774 1101 1719 1058 1682 c 256
 1019 1647 968 1627 907 1627 c 256
NamedP: "sv02"
 880 1627 864 1631 845 1638 c 256
 824 1646 807 1655 786 1670 c 258
 752 1695 l 257
 750 1696 l 256
 721 1717 694 1728 669 1728 c 256
 646 1728 626 1720 609 1703 c 256
 592 1687 576 1662 563 1627 c 257
NamedP: "dv01"
 438 1627 l 257
NamedP: "hr00"
285 1493 m 257
NamedP: "at01"
 541 1493 l 257
 805 264 l 257
NamedP: "iv01"
 1044 1493 l 257
NamedP: "at02"
 1239 1493 l 257
 948 0 l 257
NamedP: "ab01"
 692 0 l 257
 428 1229 l 257
NamedP: "iv02"
 188 0 l 257
NamedP: "ab02"
 -6 0 l 257
 285 1493 l 257
NamedP: "at01"
EndSplineSet
PickledDataWithLists: "(dp1
S'com.schriftgestaltung.Glyphs.lastChange'
p2
S'2017-07-11 17:15:08 +0000'
p3
s."
EndChar

StartChar: Nu
Encoding: 83 925 83
GlifName: N_u
Width: 1233
VWidth: 0
Flags: W
LayerCount: 2
Fore
SplineSet
285 1493 m 257
NamedP: "hr00"
 541 1493 l 257
 805 264 l 257
NamedP: "iv01"
 1044 1493 l 257
NamedP: "at01"
 1239 1493 l 257
 948 0 l 257
NamedP: "ab01"
 692 0 l 257
 428 1229 l 257
NamedP: "iv02"
 188 0 l 257
NamedP: "ab02"
 -6 0 l 257
 285 1493 l 257
NamedP: "hr00"
EndSplineSet
PickledDataWithLists: "(dp1
S'com.schriftgestaltung.Glyphs.lastChange'
p2
S'2017-07-11 17:15:08 +0000'
p3
s."
EndChar

StartChar: O
Encoding: 84 79 84
GlifName: O_
Width: 1233
VWidth: 0
Flags: W
LayerCount: 2
Fore
SplineSet
478 -29 m 256
NamedP: "hr00"
 343 -29 244 12 179 94 c 256
 114 175 82 302 82 473 c 256
NamedP: "sh01"
 82 558 89 628 104 712 c 256
 120 805 137 880 168 975 c 256
 189 1042 208 1090 231 1141 c 256
 258 1198 280 1236 303 1271 c 256
 360 1356 426 1419 501 1460 c 256
 569 1497 648 1520 753 1520 c 256
NamedP: "at01"
 886 1520 986 1484 1054 1397 c 256
 1119 1316 1151 1191 1151 1024 c 256
NamedP: "sh02"
 1151 944 1144 868 1129 781 c 256
 1114 696 1092 607 1063 516 c 256
 1042 449 1024 402 1001 351 c 257
 982 312 956 262 928 219 c 256
 876 140 807 75 731 32 c 256
 658 -9 574 -29 478 -29 c 256
NamedP: "hr00"
498 135 m 256
NamedP: "dv01"
 555 135 611 151 660 186 c 256
 713 225 750 278 778 331 c 256
 829 427 871 565 898 684 c 256
 929 821 944 959 944 1067 c 256
NamedP: "ah01"
 944 1182 927 1245 892 1289 c 256
 857 1332 805 1356 734 1356 c 256
NamedP: "sv01"
 675 1356 620 1340 572 1305 c 256
 525 1270 486 1220 455 1160 c 256
 408 1072 364 945 333 808 c 256
 302 675 287 541 287 429 c 256
NamedP: "sh03"
 287 311 305 248 340 203 c 257
 379 155 434 135 498 135 c 256
NamedP: "dv01"
EndSplineSet
PickledDataWithLists: "(dp1
S'com.schriftgestaltung.Glyphs.lastChange'
p2
S'2017-07-11 17:15:08 +0000'
p3
s."
Substitution2: "Single Substitution lookup 15 subtable" ordmasculine
Substitution2: "Single Substitution lookup 12 subtable" ordmasculine
EndChar

StartChar: OE
Encoding: 85 338 85
GlifName: O_E_
Width: 1233
VWidth: 0
Flags: W
LayerCount: 2
Fore
SplineSet
467 0 m 258
NamedP: "hr00"
 323 0 213 34 141 103 c 256
 66 175 35 283 35 424 c 256
NamedP: "dh01"
 35 588 88 893 154 1067 c 256
 214 1227 287 1332 379 1396 c 256
 470 1461 597 1493 758 1493 c 258
NamedP: "at01"
 1352 1493 l 257
 1319 1323 l 257
NamedP: "sv01"
 961 1323 l 257
 874 881 l 257
 1202 881 l 257
NamedP: "dv02"
 1169 711 l 257
NamedP: "dv01"
 842 711 l 257
 735 170 l 257
NamedP: "sv02"
 1104 170 l 257
 1071 0 l 257
 467 0 l 258
NamedP: "hr00"
539 170 m 257
NamedP: "sv03"
 764 1323 l 257
NamedP: "sv04"
 702 1323 l 258
NamedP: "sv05"
 623 1323 556 1305 501 1269 c 256
 438 1229 402 1175 371 1106 c 256
 355 1068 341 1034 322 961 c 256
 303 892 288 826 272 745 c 256
 257 674 248 616 240 556 c 256
NamedP: "sh01"
 233 500 229 452 229 416 c 256
NamedP: "dh02"
 229 336 249 273 292 230 c 256
 336 187 401 170 477 170 c 258
NamedP: "sv06"
 539 170 l 257
NamedP: "sv03"
EndSplineSet
PickledDataWithLists: "(dp1
S'com.schriftgestaltung.Glyphs.lastChange'
p2
S'2017-07-11 17:15:08 +0000'
p3
s."
EndChar

StartChar: Oacute
Encoding: 86 211 86
GlifName: O_acute
Width: 1233
VWidth: 0
Flags: W
LayerCount: 2
Fore
SplineSet
897 1859 m 257
NamedP: "hr00"
 1105 1859 l 257
NamedP: "ih01"
 798 1595 l 257
 638 1595 l 257
NamedP: "ih02"
 897 1859 l 257
NamedP: "hr00"
478 -29 m 256
NamedP: "dv01"
 343 -29 244 12 179 94 c 256
 114 175 82 302 82 473 c 256
NamedP: "sh02"
 82 558 89 628 104 712 c 256
 120 805 137 880 168 975 c 256
 189 1042 208 1090 231 1141 c 256
 258 1198 280 1236 303 1271 c 256
 360 1356 426 1419 501 1460 c 256
 569 1497 648 1520 753 1520 c 256
NamedP: "at01"
 886 1520 986 1484 1054 1397 c 256
 1119 1316 1151 1191 1151 1024 c 256
NamedP: "sh01"
 1151 944 1144 868 1129 781 c 256
 1114 696 1092 607 1063 516 c 256
 1042 449 1024 402 1001 351 c 257
 982 312 956 262 928 219 c 256
 876 140 807 75 731 32 c 256
 658 -9 574 -29 478 -29 c 256
NamedP: "dv01"
498 135 m 256
NamedP: "dv02"
 555 135 611 151 660 186 c 256
 713 225 750 278 778 331 c 256
 829 427 871 565 898 684 c 256
 929 821 944 959 944 1067 c 256
NamedP: "ah01"
 944 1182 927 1245 892 1289 c 256
 857 1332 805 1356 734 1356 c 256
NamedP: "sv01"
 675 1356 620 1340 572 1305 c 256
 525 1270 486 1220 455 1160 c 256
 408 1072 364 945 333 808 c 256
 302 675 287 541 287 429 c 256
NamedP: "sh03"
 287 311 305 248 340 203 c 257
 379 155 434 135 498 135 c 256
NamedP: "dv02"
EndSplineSet
PickledDataWithLists: "(dp1
S'com.schriftgestaltung.Glyphs.lastChange'
p2
S'2017-07-11 17:15:08 +0000'
p3
s."
EndChar

StartChar: Ocircumflex
Encoding: 87 212 87
GlifName: O_circumflex
Width: 1233
VWidth: 0
Flags: W
LayerCount: 2
Fore
SplineSet
696 1861 m 257
NamedP: "sv02"
 909 1861 l 257
 1067 1595 l 257
NamedP: "ih01"
 934 1595 l 257
NamedP: "sh02"
 795 1773 l 257
 586 1595 l 257
 434 1595 l 257
NamedP: "ih02"
 696 1861 l 257
NamedP: "sv02"
478 -29 m 256
NamedP: "dv01"
 343 -29 244 12 179 94 c 256
 114 175 82 302 82 473 c 256
NamedP: "sh03"
 82 558 89 628 104 712 c 256
 120 805 137 880 168 975 c 256
 189 1042 208 1090 231 1141 c 256
 258 1198 280 1236 303 1271 c 256
 360 1356 426 1419 501 1460 c 256
 569 1497 648 1520 753 1520 c 256
NamedP: "at01"
 886 1520 986 1484 1054 1397 c 256
 1119 1316 1151 1191 1151 1024 c 256
NamedP: "sh01"
 1151 944 1144 868 1129 781 c 256
 1114 696 1092 607 1063 516 c 256
 1042 449 1024 402 1001 351 c 257
 982 312 956 262 928 219 c 256
 876 140 807 75 731 32 c 256
 658 -9 574 -29 478 -29 c 256
NamedP: "dv01"
498 135 m 256
NamedP: "dv02"
 555 135 611 151 660 186 c 256
 713 225 750 278 778 331 c 256
 829 427 871 565 898 684 c 256
 929 821 944 959 944 1067 c 256
NamedP: "ah01"
 944 1182 927 1245 892 1289 c 256
 857 1332 805 1356 734 1356 c 256
NamedP: "sv01"
 675 1356 620 1340 572 1305 c 256
 525 1270 486 1220 455 1160 c 256
 408 1072 364 945 333 808 c 256
 302 675 287 541 287 429 c 256
NamedP: "sh04"
 287 311 305 248 340 203 c 257
 379 155 434 135 498 135 c 256
NamedP: "dv02"
EndSplineSet
PickledDataWithLists: "(dp1
S'com.schriftgestaltung.Glyphs.lastChange'
p2
S'2017-07-11 17:15:08 +0000'
p3
s."
EndChar

StartChar: Odieresis
Encoding: 88 214 88
GlifName: O_dieresis
Width: 1233
VWidth: 0
Flags: W
LayerCount: 2
Fore
SplineSet
492 1627 m 258
NamedP: "hr00"
 472 1627 461 1640 465 1660 c 258
 493 1803 l 257
 496 1821 506 1830 525 1830 c 258
NamedP: "dv03"
 669 1830 l 258
 687 1830 696 1822 696 1806 c 256
 696 1802 696 1799 695 1797 c 258
 666 1654 l 258
 662 1636 651 1627 634 1627 c 258
 492 1627 l 258
NamedP: "hr00"
883 1627 m 258
NamedP: "sv01"
 863 1627 852 1640 856 1660 c 258
 884 1803 l 257
 887 1821 897 1830 916 1830 c 258
NamedP: "sv02"
 1059 1830 l 258
 1079 1830 1090 1817 1086 1797 c 258
 1058 1654 l 258
 1055 1636 1044 1627 1026 1627 c 258
 883 1627 l 258
NamedP: "sv01"
478 -29 m 256
NamedP: "dv01"
 343 -29 244 12 179 94 c 256
 114 175 82 302 82 473 c 256
NamedP: "sh01"
 82 558 89 628 104 712 c 256
 120 805 137 880 168 975 c 256
 189 1042 208 1090 231 1141 c 256
 258 1198 280 1236 303 1271 c 256
 360 1356 426 1419 501 1460 c 256
 569 1497 648 1520 753 1520 c 256
NamedP: "at01"
 886 1520 986 1484 1054 1397 c 256
 1119 1316 1151 1191 1151 1024 c 256
NamedP: "sh02"
 1151 944 1144 868 1129 781 c 256
 1114 696 1092 607 1063 516 c 256
 1042 449 1024 402 1001 351 c 257
 982 312 956 262 928 219 c 256
 876 140 807 75 731 32 c 256
 658 -9 574 -29 478 -29 c 256
NamedP: "dv01"
498 135 m 256
NamedP: "dv02"
 555 135 611 151 660 186 c 256
 713 225 750 278 778 331 c 256
 829 427 871 565 898 684 c 256
 929 821 944 959 944 1067 c 256
NamedP: "ah01"
 944 1182 927 1245 892 1289 c 256
 857 1332 805 1356 734 1356 c 256
NamedP: "sv03"
 675 1356 620 1340 572 1305 c 256
 525 1270 486 1220 455 1160 c 256
 408 1072 364 945 333 808 c 256
 302 675 287 541 287 429 c 256
NamedP: "sh03"
 287 311 305 248 340 203 c 257
 379 155 434 135 498 135 c 256
NamedP: "dv02"
EndSplineSet
PickledDataWithLists: "(dp1
S'com.schriftgestaltung.Glyphs.lastChange'
p2
S'2017-07-11 17:15:08 +0000'
p3
s."
EndChar

StartChar: Ograve
Encoding: 89 210 89
GlifName: O_grave
Width: 1233
VWidth: 0
Flags: W
LayerCount: 2
Fore
SplineSet
543 1859 m 257
NamedP: "ih01"
 725 1859 l 257
NamedP: "sv02"
 872 1595 l 257
NamedP: "ih02"
 733 1595 l 257
 543 1859 l 257
NamedP: "ih01"
478 -29 m 256
NamedP: "dv01"
 343 -29 244 12 179 94 c 256
 114 175 82 302 82 473 c 256
NamedP: "sh01"
 82 558 89 628 104 712 c 256
 120 805 137 880 168 975 c 256
 189 1042 208 1090 231 1141 c 256
 258 1198 280 1236 303 1271 c 256
 360 1356 426 1419 501 1460 c 256
 569 1497 648 1520 753 1520 c 256
NamedP: "at01"
 886 1520 986 1484 1054 1397 c 256
 1119 1316 1151 1191 1151 1024 c 256
NamedP: "sh02"
 1151 944 1144 868 1129 781 c 256
 1114 696 1092 607 1063 516 c 256
 1042 449 1024 402 1001 351 c 257
 982 312 956 262 928 219 c 256
 876 140 807 75 731 32 c 256
 658 -9 574 -29 478 -29 c 256
NamedP: "dv01"
498 135 m 256
NamedP: "dv02"
 555 135 611 151 660 186 c 256
 713 225 750 278 778 331 c 256
 829 427 871 565 898 684 c 256
 929 821 944 959 944 1067 c 256
NamedP: "ah01"
 944 1182 927 1245 892 1289 c 256
 857 1332 805 1356 734 1356 c 256
NamedP: "sv01"
 675 1356 620 1340 572 1305 c 256
 525 1270 486 1220 455 1160 c 256
 408 1072 364 945 333 808 c 256
 302 675 287 541 287 429 c 256
NamedP: "sh03"
 287 311 305 248 340 203 c 257
 379 155 434 135 498 135 c 256
NamedP: "dv02"
EndSplineSet
PickledDataWithLists: "(dp1
S'com.schriftgestaltung.Glyphs.lastChange'
p2
S'2017-07-11 17:15:08 +0000'
p3
s."
EndChar

StartChar: Ohorn
Encoding: 90 416 90
GlifName: O_horn
Width: 1233
VWidth: 0
Flags: W
LayerCount: 2
Fore
SplineSet
1367 1557 m 257
NamedP: "sh02"
 1368 1538 1369 1523 1369 1508 c 256
NamedP: "sh01"
 1369 1472 1365 1445 1361 1421 c 256
 1333 1269 1263 1184 1142 1184 c 256
NamedP: "sv01"
 1121 1184 1103 1186 1086 1191 c 257
NamedP: "sh03"
 1094 1145 1098 1094 1098 1037 c 256
NamedP: "dh04"
 1098 877 1064 683 1011 516 c 256
 971 391 923 292 874 219 c 256
NamedP: "hr01"
 761 48 614 -29 427 -29 c 256
NamedP: "dv01"
 162 -29 29 134 29 459 c 256
NamedP: "dh01"
 29 630 63 818 114 975 c 256
NamedP: "hr02"
 155 1104 203 1200 251 1272 c 256
 363 1439 507 1520 698 1520 c 256
NamedP: "at01"
 849 1520 958 1468 1024 1364 c 257
 1067 1335 1099 1323 1131 1323 c 256
NamedP: "sv02"
 1187 1323 1225 1360 1240 1432 c 256
 1243 1451 1245 1468 1245 1483 c 256
 1245 1506 1241 1531 1234 1557 c 257
NamedP: "ih01"
 1367 1557 l 257
NamedP: "sh02"
725 333 m 256
 825 521 891 841 891 1060 c 256
NamedP: "dh03"
 891 1236 848 1356 681 1356 c 256
NamedP: "sv03"
 550 1356 469 1283 402 1159 c 256
 302 972 234 651 234 432 c 256
NamedP: "dh02"
 234 247 281 135 444 135 c 256
NamedP: "dv02"
 575 135 659 209 725 333 c 256
EndSplineSet
PickledDataWithLists: "(dp1
S'com.schriftgestaltung.Glyphs.lastChange'
p2
S'2017-07-11 17:15:08 +0000'
p3
s."
EndChar

StartChar: Ohungarumlaut
Encoding: 91 336 91
GlifName: O_hungarumlaut
Width: 1233
VWidth: 0
Flags: W
LayerCount: 2
Fore
SplineSet
766 1859 m 257
NamedP: "hr00"
 952 1859 l 257
NamedP: "sh01"
 672 1595 l 257
NamedP: "sv01"
 518 1595 l 257
NamedP: "ih01"
 766 1859 l 257
NamedP: "hr00"
1085 1859 m 257
 1271 1859 l 257
NamedP: "sv02"
 991 1595 l 257
 837 1595 l 257
NamedP: "ih02"
 1085 1859 l 257
480 -29 m 256
NamedP: "dv01"
 215 -29 82 134 82 459 c 256
NamedP: "sh02"
 82 630 116 818 167 975 c 256
 208 1104 256 1200 304 1272 c 256
 416 1439 560 1520 751 1520 c 256
NamedP: "at01"
 1019 1520 1151 1362 1151 1037 c 256
NamedP: "sh03"
 1151 877 1117 683 1064 516 c 256
 1024 391 976 292 927 219 c 256
 814 48 667 -29 480 -29 c 256
NamedP: "dv01"
497 135 m 256
NamedP: "dv02"
 660 135 752 249 825 437 c 256
 897 625 944 877 944 1060 c 256
NamedP: "ah01"
 944 1236 901 1356 734 1356 c 256
NamedP: "sv03"
 603 1356 522 1283 455 1159 c 256
 355 972 287 651 287 432 c 256
NamedP: "sh04"
 287 247 334 135 497 135 c 256
NamedP: "dv02"
EndSplineSet
PickledDataWithLists: "(dp1
S'com.schriftgestaltung.Glyphs.lastChange'
p2
S'2017-07-11 17:15:08 +0000'
p3
s."
EndChar

StartChar: Omacron
Encoding: 92 332 92
GlifName: O_macron
Width: 1233
VWidth: 0
Flags: W
LayerCount: 2
Fore
SplineSet
531 1800 m 257
NamedP: "hr00"
 1129 1800 l 257
NamedP: "dv04"
 1100 1652 l 257
NamedP: "dv03"
 502 1652 l 257
 531 1800 l 257
NamedP: "hr00"
480 -29 m 256
NamedP: "dv01"
 215 -29 82 134 82 459 c 256
NamedP: "sh01"
 82 630 116 818 167 975 c 256
 208 1104 256 1200 304 1272 c 256
 416 1439 560 1520 751 1520 c 256
NamedP: "at01"
 1019 1520 1151 1362 1151 1037 c 256
NamedP: "sh02"
 1151 877 1117 683 1064 516 c 256
 1024 391 976 292 927 219 c 256
 814 48 667 -29 480 -29 c 256
NamedP: "dv01"
497 135 m 256
NamedP: "dv02"
 660 135 752 249 825 437 c 256
 897 625 944 877 944 1060 c 256
NamedP: "ah01"
 944 1236 901 1356 734 1356 c 256
NamedP: "sv01"
 603 1356 522 1283 455 1159 c 256
 355 972 287 651 287 432 c 256
NamedP: "sh03"
 287 247 334 135 497 135 c 256
NamedP: "dv02"
EndSplineSet
PickledDataWithLists: "(dp1
S'com.schriftgestaltung.Glyphs.lastChange'
p2
S'2017-07-11 17:15:08 +0000'
p3
s."
EndChar

StartChar: Omegatonos
Encoding: 93 911 93
GlifName: O_megatonos
Width: 1233
VWidth: 0
Flags: W
LayerCount: 2
Fore
SplineSet
383 1638 m 257
NamedP: "hr00"
 602 1638 l 257
NamedP: "ih01"
 207 1262 l 257
NamedP: "sv01"
 51 1262 l 257
 383 1638 l 257
NamedP: "hr00"
-33 172 m 257
NamedP: "sv02"
 212 172 l 257
NamedP: "ih02"
 120 297 76 428 76 585 c 256
NamedP: "sh01"
 76 646 83 712 97 782 c 256
 177 1194 433 1460 759 1460 c 256
NamedP: "dv02"
 1028 1460 1177 1278 1177 985 c 256
NamedP: "sh02"
 1177 922 1170 854 1156 782 c 256
 1108 531 1002 348 804 172 c 257
NamedP: "ih03"
 1052 172 l 257
NamedP: "sv03"
 1018 0 l 257
NamedP: "ab01"
 555 0 l 257
 589 172 l 257
 768 271 911 514 964 799 c 257
 975 862 981 919 981 971 c 256
NamedP: "ah01"
 981 1175 896 1294 728 1294 c 256
NamedP: "dv01"
 525 1294 361 1117 297 799 c 256
 281 721 273 647 273 577 c 256
NamedP: "hr01"
 273 390 327 244 430 172 c 257
 396 0 l 257
NamedP: "hr02"
 -67 0 l 257
 -33 172 l 257
NamedP: "sv02"
EndSplineSet
PickledDataWithLists: "(dp1
S'com.schriftgestaltung.Glyphs.lastChange'
p2
S'2017-07-11 17:15:08 +0000'
p3
s."
EndChar

StartChar: Omicron
Encoding: 94 927 94
GlifName: O_micron
Width: 1233
VWidth: 0
Flags: W
LayerCount: 2
Fore
SplineSet
480 -29 m 256
NamedP: "hr00"
 215 -29 82 134 82 459 c 256
NamedP: "sh01"
 82 630 116 818 167 975 c 256
 208 1104 256 1200 304 1272 c 256
 416 1439 560 1520 751 1520 c 256
NamedP: "at01"
 1019 1520 1151 1362 1151 1037 c 256
NamedP: "sh02"
 1151 877 1117 683 1064 516 c 256
 1024 391 976 292 927 219 c 256
 814 48 667 -29 480 -29 c 256
NamedP: "hr00"
497 135 m 256
NamedP: "dv01"
 660 135 752 249 825 437 c 256
 897 625 944 877 944 1060 c 256
NamedP: "ah01"
 944 1236 901 1356 734 1356 c 256
NamedP: "sv01"
 603 1356 522 1283 455 1159 c 256
 355 972 287 651 287 432 c 256
NamedP: "sh03"
 287 247 334 135 497 135 c 256
NamedP: "dv01"
EndSplineSet
PickledDataWithLists: "(dp1
S'com.schriftgestaltung.Glyphs.lastChange'
p2
S'2017-07-11 17:15:08 +0000'
p3
s."
EndChar

StartChar: Omicrontonos
Encoding: 95 908 95
GlifName: O_microntonos
Width: 1233
VWidth: 0
Flags: W
LayerCount: 2
Fore
SplineSet
357 1638 m 257
NamedP: "hr00"
 576 1638 l 257
NamedP: "ih01"
 181 1262 l 257
 25 1262 l 257
 357 1638 l 257
NamedP: "hr00"
480 -29 m 256
NamedP: "dv01"
 215 -29 82 134 82 459 c 256
NamedP: "sh01"
 82 630 116 818 167 975 c 256
 208 1104 256 1200 304 1272 c 256
 416 1439 560 1520 751 1520 c 256
NamedP: "at01"
 1019 1520 1151 1362 1151 1037 c 256
NamedP: "sh02"
 1151 877 1117 683 1064 516 c 256
 1024 391 976 292 927 219 c 256
 814 48 667 -29 480 -29 c 256
NamedP: "dv01"
497 135 m 256
NamedP: "dv02"
 660 135 752 249 825 437 c 256
 897 625 944 877 944 1060 c 256
NamedP: "ah01"
 944 1236 901 1356 734 1356 c 256
NamedP: "sv01"
 603 1356 522 1283 455 1159 c 256
 355 972 287 651 287 432 c 256
NamedP: "sh03"
 287 247 334 135 497 135 c 256
NamedP: "dv02"
EndSplineSet
PickledDataWithLists: "(dp1
S'com.schriftgestaltung.Glyphs.lastChange'
p2
S'2017-07-11 17:15:08 +0000'
p3
s."
EndChar

StartChar: Oslash
Encoding: 96 216 96
GlifName: O_slash
Width: 1233
VWidth: 0
Flags: W
LayerCount: 2
Fore
SplineSet
14 -6 m 257
NamedP: "hr00"
 133 164 l 257
 114 205 101 250 93 293 c 256
NamedP: "sh02"
 84 338 80 391 80 452 c 256
NamedP: "sh01"
 80 579 97 716 132 859 c 256
 164 990 208 1109 269 1217 c 256
 322 1310 387 1389 476 1445 c 256
 559 1496 650 1520 750 1520 c 256
NamedP: "at02"
 805 1520 854 1514 897 1499 c 256
 936 1486 980 1463 1016 1434 c 257
 1100 1559 l 257
NamedP: "at01"
 1200 1495 l 257
 1094 1337 l 257
 1115 1292 1128 1252 1137 1205 c 256
NamedP: "sh04"
 1146 1157 1151 1107 1151 1039 c 256
NamedP: "sh03"
 1151 914 1134 777 1099 634 c 256
 1060 479 1011 363 962 276 c 256
 845 69 690 -29 479 -29 c 256
NamedP: "dv01"
 422 -29 374 -21 329 -6 c 256
 290 7 246 28 207 63 c 257
 113 -70 l 257
NamedP: "av01"
 14 -6 l 257
NamedP: "hr00"
905 1274 m 257
 888 1298 860 1320 831 1335 c 256
 804 1348 767 1356 727 1356 c 256
NamedP: "sv01"
 655 1356 592 1331 536 1274 c 256
 482 1219 435 1133 395 1018 c 256
 366 934 335 814 316 718 c 256
 297 623 287 529 287 457 c 257
NamedP: "sh05"
 289 419 l 257
 292 392 291 397 291 389 c 257
NamedP: "sh06"
 905 1274 l 257
501 135 m 256
NamedP: "dv02"
 576 135 641 162 695 217 c 256
 740 264 789 341 836 473 c 256
 868 561 897 674 913 766 c 256
 931 864 940 954 940 1036 c 258
NamedP: "ah01"
 940 1082 l 258
 940 1086 939 1105 938 1116 c 257
NamedP: "sh07"
 322 229 l 257
 335 200 357 177 389 160 c 256
 420 143 458 135 501 135 c 256
NamedP: "dv02"
EndSplineSet
PickledDataWithLists: "(dp1
S'com.schriftgestaltung.Glyphs.lastChange'
p2
S'2017-07-11 17:15:08 +0000'
p3
s."
EndChar

StartChar: Oslashacute
Encoding: 97 510 97
GlifName: O_slashacute
Width: 1233
VWidth: 0
Flags: W
LayerCount: 2
Fore
SplineSet
887 1859 m 257
NamedP: "sv02"
 1095 1859 l 257
NamedP: "ih01"
 788 1595 l 257
 628 1595 l 257
NamedP: "ih02"
 887 1859 l 257
NamedP: "sv02"
14 -6 m 257
 133 164 l 257
 97 241 80 332 80 453 c 256
NamedP: "sh02"
 80 706 154 1015 268 1217 c 256
 384 1421 544 1520 749 1520 c 256
NamedP: "at01"
 860 1520 944 1491 1016 1434 c 257
 1100 1559 l 257
 1200 1495 l 257
 1094 1337 l 257
 1133 1257 1151 1165 1151 1040 c 256
NamedP: "sh01"
 1151 783 1075 473 963 276 c 256
 843 64 679 -29 480 -29 c 256
NamedP: "dv01"
 372 -29 283 -1 207 63 c 257
 113 -70 l 257
NamedP: "av01"
 14 -6 l 257
905 1274 m 257
 866 1326 806 1356 726 1356 c 256
NamedP: "sv01"
 574 1356 474 1243 395 1018 c 256
 331 834 287 597 287 469 c 256
NamedP: "sh03"
 287 434 290 409 291 389 c 257
NamedP: "sh04"
 905 1274 l 257
502 135 m 256
NamedP: "dv02"
 655 135 753 244 836 473 c 257
 900 655 940 872 940 1043 c 256
NamedP: "ah01"
 940 1070 939 1093 938 1116 c 257
NamedP: "sh05"
 322 229 l 257
NamedP: "hr01"
 349 169 414 135 502 135 c 256
NamedP: "dv02"
EndSplineSet
PickledDataWithLists: "(dp1
S'com.schriftgestaltung.Glyphs.lastChange'
p2
S'2017-07-11 17:15:08 +0000'
p3
s."
EndChar

StartChar: Otilde
Encoding: 98 213 98
GlifName: O_tilde
Width: 1233
VWidth: 0
Flags: W
LayerCount: 2
Fore
SplineSet
434 1627 m 257
NamedP: "hr00"
 457 1698 489 1753 531 1791 c 256
 572 1828 621 1846 676 1846 c 256
NamedP: "dv04"
 703 1846 722 1842 743 1835 c 256
 765 1828 787 1816 809 1799 c 258
 844 1773 l 258
 857 1764 869 1757 880 1753 c 256
 891 1749 900 1746 916 1746 c 256
 947 1746 966 1756 985 1773 c 256
 1004 1791 1017 1815 1024 1846 c 257
NamedP: "sv01"
 1149 1846 l 257
NamedP: "sh03"
 1128 1774 1097 1719 1054 1682 c 256
 1015 1647 964 1627 903 1627 c 256
NamedP: "sv02"
 876 1627 860 1631 841 1638 c 256
 820 1646 803 1655 782 1670 c 258
 748 1695 l 257
 746 1696 l 256
 717 1717 690 1728 665 1728 c 256
 642 1728 622 1720 605 1703 c 256
 588 1687 572 1662 559 1627 c 257
NamedP: "dv03"
 434 1627 l 257
NamedP: "hr00"
478 -29 m 256
NamedP: "dv01"
 343 -29 244 12 179 94 c 256
 114 175 82 302 82 473 c 256
NamedP: "sh01"
 82 558 89 628 104 712 c 256
 120 805 137 880 168 975 c 256
 189 1042 208 1090 231 1141 c 256
 258 1198 280 1236 303 1271 c 256
 360 1356 426 1419 501 1460 c 256
 569 1497 648 1520 753 1520 c 256
NamedP: "at01"
 886 1520 986 1484 1054 1397 c 256
 1119 1316 1151 1191 1151 1024 c 256
NamedP: "sh02"
 1151 944 1144 868 1129 781 c 256
 1114 696 1092 607 1063 516 c 256
 1042 449 1024 402 1001 351 c 257
 982 312 956 262 928 219 c 256
 876 140 807 75 731 32 c 256
 658 -9 574 -29 478 -29 c 256
NamedP: "dv01"
498 135 m 256
NamedP: "dv02"
 555 135 611 151 660 186 c 256
 713 225 750 278 778 331 c 256
 829 427 871 565 898 684 c 256
 929 821 944 959 944 1067 c 256
NamedP: "ah01"
 944 1182 927 1245 892 1289 c 256
 857 1332 805 1356 734 1356 c 256
NamedP: "sv03"
 675 1356 620 1340 572 1305 c 256
 525 1270 486 1220 455 1160 c 256
 408 1072 364 945 333 808 c 256
 302 675 287 541 287 429 c 256
NamedP: "sh04"
 287 311 305 248 340 203 c 257
 379 155 434 135 498 135 c 256
NamedP: "dv02"
EndSplineSet
PickledDataWithLists: "(dp1
S'com.schriftgestaltung.Glyphs.lastChange'
p2
S'2017-07-11 17:15:08 +0000'
p3
s."
EndChar

StartChar: P
Encoding: 99 80 99
GlifName: P_
Width: 1233
VWidth: 0
Flags: W
LayerCount: 2
Fore
SplineSet
321 1493 m 257
NamedP: "hr00"
 761 1493 l 258
 1037 1493 1183 1373 1183 1126 c 256
NamedP: "dh02"
 1183 806 959 600 583 600 c 258
NamedP: "dv01"
 350 600 l 257
 233 0 l 257
NamedP: "ab01"
 30 0 l 257
 321 1493 l 257
NamedP: "hr00"
616 766 m 258
NamedP: "dv02"
 726 766 814 798 880 862 c 256
 945 926 978 1012 978 1111 c 256
NamedP: "dh01"
 978 1182 961 1239 916 1276 c 256
 875 1310 811 1327 724 1327 c 258
NamedP: "sv01"
 491 1327 l 257
 382 766 l 257
 616 766 l 258
NamedP: "dv02"
EndSplineSet
PickledDataWithLists: "(dp1
S'com.schriftgestaltung.Glyphs.lastChange'
p2
S'2017-07-11 17:15:08 +0000'
p3
s."
EndChar

StartChar: Phi
Encoding: 100 934 100
GlifName: P_hi
Width: 1233
VWidth: 0
Flags: W
LayerCount: 2
Fore
SplineSet
255 170 m 257
NamedP: "hr00"
 402 170 l 257
 424 286 l 257
 230 307 103 396 103 608 c 256
NamedP: "sh01"
 103 649 106 694 117 745 c 257
NamedP: "sh02"
 178 1060 366 1181 603 1205 c 257
 626 1323 l 257
NamedP: "sv01"
 479 1323 l 257
 512 1493 l 257
NamedP: "at01"
 1009 1493 l 257
 976 1323 l 257
NamedP: "sv02"
 829 1323 l 257
NamedP: "sv03"
 806 1205 l 257
 1001 1184 1128 1092 1128 880 c 256
NamedP: "sh03"
 1128 840 1125 796 1114 745 c 257
NamedP: "sh04"
 1053 433 868 310 627 286 c 257
 605 170 l 257
NamedP: "sv04"
 752 170 l 257
NamedP: "sv05"
 719 0 l 257
NamedP: "ab01"
 222 0 l 257
 255 170 l 257
NamedP: "hr00"
569 1029 m 257
NamedP: "ih01"
 520 1018 472 999 439 971 c 257
 367 907 318 767 318 651 c 256
NamedP: "sh05"
 318 596 329 551 352 520 c 257
 375 492 412 473 459 462 c 257
 569 1029 l 257
NamedP: "ih01"
662 462 m 257
NamedP: "ih02"
 711 473 759 492 792 520 c 256
 865 582 912 726 912 841 c 256
NamedP: "ah01"
 912 896 902 942 879 971 c 256
 856 999 819 1018 772 1029 c 257
 662 462 l 257
NamedP: "ih02"
EndSplineSet
PickledDataWithLists: "(dp1
S'com.schriftgestaltung.Glyphs.lastChange'
p2
S'2017-07-11 17:15:08 +0000'
p3
s."
EndChar

StartChar: Pi
Encoding: 101 928 101
GlifName: P_i
Width: 1233
VWidth: 0
Flags: W
LayerCount: 2
Fore
SplineSet
283 1493 m 257
NamedP: "hr00"
 1242 1493 l 257
 952 0 l 257
NamedP: "ab01"
 749 0 l 257
 1006 1323 l 257
NamedP: "sv01"
 453 1323 l 257
 196 0 l 257
NamedP: "ab02"
 -7 0 l 257
 283 1493 l 257
NamedP: "hr00"
EndSplineSet
PickledDataWithLists: "(dp1
S'com.schriftgestaltung.Glyphs.lastChange'
p2
S'2017-07-11 17:15:08 +0000'
p3
s."
EndChar

StartChar: Psi
Encoding: 102 936 102
GlifName: P_si
Width: 1233
VWidth: 0
Flags: W
LayerCount: 2
Fore
SplineSet
255 170 m 257
NamedP: "hr00"
 402 170 l 257
 444 384 l 257
 329 405 250 466 205 567 c 256
 174 636 159 723 159 827 c 256
NamedP: "dh01"
 159 920 171 1028 195 1150 c 258
 262 1493 l 257
NamedP: "at01"
 465 1493 l 257
 398 1150 l 258
 374 1027 362 923 362 840 c 256
NamedP: "dh02"
 362 776 369 723 383 681 c 256
 402 624 433 583 478 560 c 257
NamedP: "iv01"
 659 1493 l 257
NamedP: "at02"
 862 1493 l 257
 681 560 l 257
NamedP: "iv02"
 735 583 782 624 823 681 c 256
 894 778 948 939 989 1150 c 258
 1056 1493 l 257
NamedP: "at03"
 1259 1493 l 257
 1192 1150 l 258
 1140 881 1060 692 956 567 c 256
 871 466 768 405 647 384 c 257
 605 170 l 257
NamedP: "sv01"
 752 170 l 257
NamedP: "sv02"
 719 0 l 257
NamedP: "ab01"
 222 0 l 257
 255 170 l 257
NamedP: "hr00"
EndSplineSet
PickledDataWithLists: "(dp1
S'com.schriftgestaltung.Glyphs.lastChange'
p2
S'2017-07-11 17:15:08 +0000'
p3
s."
EndChar

StartChar: Q
Encoding: 103 81 103
GlifName: Q_
Width: 1233
VWidth: 0
Flags: W
LayerCount: 2
Fore
SplineSet
504 -27 m 257
NamedP: "hr00"
 494 -27 l 258
 206 -27 82 123 82 472 c 256
NamedP: "sh01"
 82 560 89 628 104 712 c 256
 117 794 134 866 168 975 c 256
 189 1042 208 1090 231 1141 c 256
 249 1180 279 1237 303 1272 c 256
 354 1348 422 1417 501 1460 c 256
 576 1501 657 1520 753 1520 c 256
NamedP: "at01"
 889 1520 987 1481 1054 1397 c 256
 1118 1317 1151 1196 1151 1029 c 256
NamedP: "sh02"
 1151 900 1133 784 1094 629 c 257
 1075 558 1052 482 1032 427 c 256
 1011 370 986 315 963 274 c 256
 934 222 894 163 839 111 c 256
 798 71 747 33 690 10 c 257
NamedP: "ih01"
 926 -270 l 257
NamedP: "ih02"
 690 -270 l 257
 504 -27 l 257
NamedP: "hr00"
498 135 m 256
NamedP: "sv01"
 555 135 611 151 660 186 c 256
 713 225 750 278 778 331 c 256
 829 427 871 565 898 684 c 256
 929 821 944 959 944 1067 c 256
NamedP: "ah01"
 944 1182 927 1245 892 1289 c 256
 857 1332 805 1356 734 1356 c 256
NamedP: "sv02"
 675 1356 620 1340 572 1305 c 256
 525 1270 486 1220 455 1160 c 256
 408 1072 364 945 333 808 c 256
 302 675 287 541 287 429 c 256
NamedP: "sh04"
 287 311 305 248 340 203 c 257
 379 155 434 135 498 135 c 256
NamedP: "sv01"
EndSplineSet
PickledDataWithLists: "(dp1
S'com.schriftgestaltung.Glyphs.lastChange'
p2
S'2017-07-11 17:15:08 +0000'
p3
s."
EndChar

StartChar: R
Encoding: 104 82 104
GlifName: R_
Width: 1233
VWidth: 0
Flags: W
LayerCount: 2
Fore
SplineSet
281 1493 m 257
NamedP: "hr00"
 697 1493 l 258
 834 1493 941 1463 1018 1404 c 256
 1097 1343 1131 1257 1131 1144 c 256
NamedP: "dh02"
 1131 1032 1097 928 1028 848 c 256
 960 769 867 720 746 705 c 257
NamedP: "iv01"
 791 697 834 673 862 638 c 256
 889 605 922 533 959 408 c 258
 1080 0 l 257
NamedP: "ih01"
 879 0 l 257
 773 377 l 258
 744 480 711 549 675 582 c 256
 638 617 579 631 510 631 c 258
NamedP: "dv01"
 318 631 l 257
 195 0 l 257
NamedP: "ab01"
 -8 0 l 257
 281 1493 l 257
NamedP: "hr00"
570 797 m 258
NamedP: "dv02"
 679 797 766 826 831 883 c 256
 896 940 928 1015 928 1109 c 256
NamedP: "dh01"
 928 1184 907 1240 865 1275 c 256
 824 1310 757 1327 666 1327 c 258
NamedP: "sv01"
 453 1327 l 257
 351 797 l 257
 570 797 l 258
NamedP: "dv02"
EndSplineSet
PickledDataWithLists: "(dp1
S'com.schriftgestaltung.Glyphs.lastChange'
p2
S'2017-07-11 17:15:08 +0000'
p3
s."
EndChar

StartChar: Racute
Encoding: 105 340 105
GlifName: R_acute
Width: 1233
VWidth: 0
Flags: W
LayerCount: 2
Fore
SplineSet
839 1860 m 257
NamedP: "hr00"
 1047 1860 l 257
NamedP: "ih01"
 740 1596 l 257
 580 1596 l 257
NamedP: "iv01"
 839 1860 l 257
NamedP: "hr00"
281 1493 m 257
NamedP: "at01"
 697 1493 l 258
 973 1493 1131 1373 1131 1140 c 256
NamedP: "dh02"
 1131 913 982 734 746 705 c 257
NamedP: "iv02"
 793 697 835 671 862 638 c 256
 890 602 923 529 959 408 c 258
 1080 0 l 257
NamedP: "ih02"
 879 0 l 257
 773 377 l 258
 714 585 656 631 510 631 c 258
NamedP: "dv01"
 318 631 l 257
 195 0 l 257
NamedP: "ab01"
 -8 0 l 257
 281 1493 l 257
NamedP: "at01"
570 797 m 258
NamedP: "dv02"
 787 797 928 920 928 1112 c 256
NamedP: "dh01"
 928 1260 847 1327 666 1327 c 258
NamedP: "sv01"
 453 1327 l 257
 351 797 l 257
 570 797 l 258
NamedP: "dv02"
EndSplineSet
PickledDataWithLists: "(dp1
S'com.schriftgestaltung.Glyphs.lastChange'
p2
S'2017-07-11 17:15:08 +0000'
p3
s."
EndChar

StartChar: Rcaron
Encoding: 106 344 106
GlifName: R_caron
Width: 1233
VWidth: 0
Flags: W
LayerCount: 2
Fore
SplineSet
438 1861 m 257
NamedP: "hr00"
 574 1861 l 257
 713 1683 l 257
 922 1861 l 257
NamedP: "av01"
 1073 1861 l 257
NamedP: "ih01"
 809 1595 l 257
 596 1595 l 257
 438 1861 l 257
NamedP: "hr00"
281 1493 m 257
NamedP: "at01"
 697 1493 l 258
 973 1493 1131 1373 1131 1140 c 256
NamedP: "dh02"
 1131 913 982 734 746 705 c 257
NamedP: "iv01"
 793 697 835 671 862 638 c 256
 890 602 923 529 959 408 c 258
 1080 0 l 257
NamedP: "ih02"
 879 0 l 257
 773 377 l 258
 714 585 656 631 510 631 c 258
NamedP: "dv01"
 318 631 l 257
 195 0 l 257
NamedP: "ab01"
 -8 0 l 257
 281 1493 l 257
NamedP: "at01"
570 797 m 258
NamedP: "dv02"
 787 797 928 920 928 1112 c 256
NamedP: "dh01"
 928 1260 847 1327 666 1327 c 258
NamedP: "sv01"
 453 1327 l 257
 351 797 l 257
 570 797 l 258
NamedP: "dv02"
EndSplineSet
PickledDataWithLists: "(dp1
S'com.schriftgestaltung.Glyphs.lastChange'
p2
S'2017-07-11 17:15:08 +0000'
p3
s."
EndChar

StartChar: Rho
Encoding: 107 929 107
GlifName: R_ho
Width: 1233
VWidth: 0
Flags: W
LayerCount: 2
Fore
SplineSet
342 1493 m 257
NamedP: "hr00"
 782 1493 l 258
 1055 1493 1204 1374 1204 1122 c 256
NamedP: "dh02"
 1204 810 976 600 604 600 c 258
NamedP: "dv01"
 371 600 l 257
 254 0 l 257
NamedP: "ab01"
 51 0 l 257
 342 1493 l 257
NamedP: "hr00"
637 766 m 258
NamedP: "dv02"
 857 766 999 906 999 1110 c 256
NamedP: "dh01"
 999 1259 921 1327 745 1327 c 258
NamedP: "sv01"
 512 1327 l 257
 403 766 l 257
 637 766 l 258
NamedP: "dv02"
EndSplineSet
PickledDataWithLists: "(dp1
S'com.schriftgestaltung.Glyphs.lastChange'
p2
S'2017-07-11 17:15:08 +0000'
p3
s."
EndChar

StartChar: S
Encoding: 108 83 108
GlifName: S_
Width: 1233
VWidth: 0
Flags: W
LayerCount: 2
Fore
SplineSet
435 -29 m 257
NamedP: "hr00"
 358 -29 294 -21 226 -6 c 256
 157 9 90 32 25 61 c 257
 66 270 l 257
 131 225 197 191 265 168 c 256
 333 145 403 135 475 135 c 256
NamedP: "dv01"
 590 135 676 163 745 223 c 256
 814 282 848 355 848 444 c 256
NamedP: "ah01"
 848 503 833 542 804 573 c 256
 769 608 715 631 627 659 c 258
 526 692 l 258
 418 727 328 765 269 824 c 256
 220 873 195 933 195 1025 c 256
NamedP: "sh01"
 195 1160 248 1285 360 1380 c 256
 471 1473 618 1520 783 1520 c 256
NamedP: "at01"
 847 1520 902 1513 962 1500 c 256
 1023 1487 1080 1469 1147 1442 c 257
 1108 1237 l 257
 1053 1276 997 1306 940 1326 c 256
 882 1346 822 1356 759 1356 c 256
NamedP: "sv01"
 536 1356 387 1234 387 1068 c 256
NamedP: "sh02"
 387 966 440 921 614 866 c 258
 735 827 l 258
 848 791 921 753 974 694 c 256
 1025 638 1049 572 1049 473 c 257
NamedP: "sh03"
 1058 181 800 -37 435 -29 c 257
NamedP: "hr00"
EndSplineSet
PickledDataWithLists: "(dp1
S'com.schriftgestaltung.Glyphs.lastChange'
p2
S'2017-07-11 17:15:08 +0000'
p3
s."
EndChar

StartChar: Sacute
Encoding: 109 346 109
GlifName: S_acute
Width: 1233
VWidth: 0
Flags: W
LayerCount: 2
Fore
SplineSet
907 1866 m 257
NamedP: "sv02"
 1115 1866 l 257
 808 1602 l 257
 648 1602 l 257
NamedP: "ih01"
 907 1866 l 257
NamedP: "sv02"
435 -29 m 256
NamedP: "dv01"
 288 -29 158 1 25 61 c 257
 66 270 l 257
 201 174 338 135 469 135 c 256
NamedP: "dv02"
 705 135 848 266 848 452 c 256
NamedP: "ah01"
 848 559 800 603 627 659 c 258
 526 692 l 258
 277 772 195 855 195 1022 c 256
NamedP: "sh01"
 195 1313 443 1520 782 1520 c 256
NamedP: "at01"
 898 1520 1011 1495 1147 1442 c 257
 1108 1237 l 257
 999 1316 883 1356 759 1356 c 256
NamedP: "sv01"
 539 1356 387 1233 387 1066 c 256
NamedP: "sh02"
 387 966 441 922 614 866 c 258
 735 827 l 258
 965 752 1049 652 1049 472 c 256
NamedP: "hr01"
 1049 174 813 -29 435 -29 c 256
NamedP: "dv01"
EndSplineSet
PickledDataWithLists: "(dp1
S'com.schriftgestaltung.Glyphs.lastChange'
p2
S'2017-07-11 17:15:08 +0000'
p3
s."
EndChar

StartChar: Scaron
Encoding: 110 352 110
GlifName: S_caron
Width: 1233
VWidth: 0
Flags: W
LayerCount: 2
Fore
SplineSet
489 1861 m 257
NamedP: "ih01"
 625 1861 l 257
NamedP: "sv02"
 764 1683 l 257
 973 1861 l 257
NamedP: "sv03"
 1124 1861 l 257
 860 1595 l 257
NamedP: "sh03"
 647 1595 l 257
 489 1861 l 257
NamedP: "ih01"
435 -29 m 257
NamedP: "dv01"
 358 -29 294 -21 226 -6 c 256
 157 9 90 32 25 61 c 257
 66 270 l 257
 131 225 197 191 265 168 c 256
 333 145 403 135 475 135 c 256
NamedP: "dv02"
 590 135 676 163 745 223 c 256
 814 282 848 355 848 444 c 256
NamedP: "ah01"
 848 503 833 542 804 573 c 256
 769 608 715 631 627 659 c 258
 526 692 l 258
 418 727 328 765 269 824 c 256
 220 873 195 933 195 1025 c 256
NamedP: "sh01"
 195 1160 248 1285 360 1380 c 256
 471 1473 618 1520 783 1520 c 256
NamedP: "at01"
 847 1520 902 1513 962 1500 c 256
 1026 1485 1080 1469 1147 1442 c 257
 1108 1237 l 257
 1053 1276 997 1306 940 1326 c 256
 882 1346 822 1356 759 1356 c 256
NamedP: "sv01"
 536 1356 387 1234 387 1068 c 256
NamedP: "sh04"
 387 966 440 921 614 866 c 258
 735 827 l 258
NamedP: "hr01"
 848 791 921 753 974 694 c 256
 1025 638 1049 572 1049 473 c 257
NamedP: "sh02"
 1058 181 800 -37 435 -29 c 257
NamedP: "dv01"
EndSplineSet
PickledDataWithLists: "(dp1
S'com.schriftgestaltung.Glyphs.lastChange'
p2
S'2017-07-11 17:15:08 +0000'
p3
s."
EndChar

StartChar: Scedilla
Encoding: 111 350 111
GlifName: S_cedilla
Width: 1233
VWidth: 0
Flags: W
LayerCount: 2
Fore
SplineSet
490 1274 m 256
NamedP: "hr00"
 426 1223 387 1151 387 1068 c 256
NamedP: "dh02"
 387 966 440 921 614 866 c 258
 735 827 l 258
 848 791 921 753 974 694 c 256
 1025 638 1049 572 1049 473 c 256
NamedP: "dh06"
 1049 326 995 201 883 109 c 256
 799 40 692 -3 567 -20 c 257
NamedP: "ih01"
 587 -57 602 -88 610 -111 c 256
 622 -143 627 -171 627 -198 c 256
NamedP: "dh04"
 627 -254 604 -304 557 -341 c 256
 511 -377 447 -395 366 -395 c 256
NamedP: "dv01"
 339 -395 307 -393 276 -388 c 256
 246 -383 215 -376 182 -365 c 257
NamedP: "sh01"
 207 -236 l 257
NamedP: "ih02"
 234 -249 265 -260 284 -265 c 256
 307 -271 330 -274 353 -274 c 256
NamedP: "dv02"
 440 -274 494 -230 494 -163 c 256
NamedP: "dh03"
 494 -140 488 -114 480 -93 c 256
 476 -81 466 -56 451 -29 c 257
NamedP: "av01"
 435 -29 l 258
 358 -29 294 -21 226 -6 c 256
 157 9 90 32 25 61 c 257
 66 270 l 257
NamedP: "iv01"
 131 225 197 191 265 168 c 256
 333 145 403 135 475 135 c 256
 590 135 676 163 745 223 c 256
 814 282 848 355 848 444 c 256
NamedP: "dh05"
 848 503 833 542 804 573 c 256
 769 608 715 631 627 659 c 258
 526 692 l 258
 418 727 328 765 269 824 c 256
 220 873 195 933 195 1025 c 256
NamedP: "dh01"
 195 1160 248 1285 360 1380 c 256
 471 1473 618 1520 783 1520 c 256
NamedP: "at01"
 847 1520 902 1513 962 1500 c 256
 1026 1485 1080 1469 1147 1442 c 257
 1108 1237 l 257
NamedP: "iv02"
 1053 1276 997 1306 940 1326 c 256
 882 1346 822 1356 759 1356 c 256
NamedP: "sv01"
 646 1356 554 1325 490 1274 c 256
NamedP: "hr00"
EndSplineSet
PickledDataWithLists: "(dp1
S'com.schriftgestaltung.Glyphs.lastChange'
p2
S'2017-07-11 17:15:08 +0000'
p3
s."
Substitution2: "'locl' Localized Forms in Latin lookup 1 subtable" uni0218
Substitution2: "'locl' Localized Forms in Latin lookup 0 subtable" uni0218
EndChar

StartChar: Scircumflex
Encoding: 112 348 112
GlifName: S_circumflex
Width: 1233
VWidth: 0
Flags: W
LayerCount: 2
Fore
SplineSet
606 1595 m 257
NamedP: "hr00"
 815 1773 l 257
 954 1595 l 257
 1087 1595 l 257
 929 1861 l 257
 716 1861 l 257
 454 1595 l 257
 606 1595 l 257
NamedP: "hr00"
883 109 m 256
 994 200 1049 324 1049 473 c 256
 1049 662 957 756 735 827 c 258
 614 866 l 258
 528 893 469 921 436 950 c 256
 403 979 387 1016 387 1068 c 256
 387 1148 425 1222 490 1274 c 256
 555 1327 650 1356 759 1356 c 256
 882 1356 999 1316 1108 1237 c 257
 1147 1442 l 257
 1016 1494 895 1520 783 1520 c 256
NamedP: "hr01"
 616 1520 471 1472 360 1380 c 257
 252 1288 195 1165 195 1025 c 256
 195 850 278 774 526 692 c 258
 627 659 l 257
 722 630 772 605 804 573 c 257
 833 540 848 497 848 444 c 256
 848 355 814 282 745 223 c 256
 676 163 590 135 475 135 c 256
 327 135 198 178 66 270 c 257
 25 61 l 257
 161 1 298 -29 435 -29 c 256
 622 -29 771 17 883 109 c 256
EndSplineSet
PickledDataWithLists: "(dp1
S'com.schriftgestaltung.Glyphs.lastChange'
p2
S'2017-07-11 17:15:08 +0000'
p3
s."
EndChar

StartChar: Sigma
Encoding: 113 931 113
GlifName: S_igma
Width: 1233
VWidth: 0
Flags: W
LayerCount: 2
Fore
SplineSet
9 170 m 257
NamedP: "hr00"
 575 747 l 257
 233 1323 l 257
 266 1493 l 257
NamedP: "at01"
 1279 1493 l 257
 1246 1323 l 257
NamedP: "sv01"
 444 1323 l 257
 787 747 l 257
 220 170 l 257
NamedP: "sv02"
 1022 170 l 257
 989 0 l 257
NamedP: "ab01"
 -24 0 l 257
 9 170 l 257
NamedP: "hr00"
EndSplineSet
PickledDataWithLists: "(dp1
S'com.schriftgestaltung.Glyphs.lastChange'
p2
S'2017-07-11 17:15:08 +0000'
p3
s."
EndChar

StartChar: T
Encoding: 114 84 114
GlifName: T_
Width: 1233
VWidth: 0
Flags: W
LayerCount: 2
Fore
SplineSet
629 1323 m 257
NamedP: "hr00"
 160 1323 l 257
 193 1493 l 257
NamedP: "at01"
 1333 1493 l 257
 1300 1323 l 257
NamedP: "sv01"
 831 1323 l 257
NamedP: "sv02"
 575 0 l 257
NamedP: "ab01"
 371 0 l 257
 629 1323 l 257
NamedP: "hr00"
EndSplineSet
PickledDataWithLists: "(dp1
S'com.schriftgestaltung.Glyphs.lastChange'
p2
S'2017-07-11 17:15:08 +0000'
p3
s."
EndChar

StartChar: Tau
Encoding: 115 932 115
GlifName: T_au
Width: 1233
VWidth: 0
Flags: W
LayerCount: 2
Fore
SplineSet
629 1323 m 257
NamedP: "hr00"
 160 1323 l 257
 193 1493 l 257
NamedP: "at01"
 1333 1493 l 257
 1300 1323 l 257
NamedP: "sv01"
 831 1323 l 257
NamedP: "sv02"
 575 0 l 257
NamedP: "ab01"
 371 0 l 257
 629 1323 l 257
NamedP: "hr00"
EndSplineSet
PickledDataWithLists: "(dp1
S'com.schriftgestaltung.Glyphs.lastChange'
p2
S'2017-07-11 17:15:08 +0000'
p3
s."
EndChar

StartChar: Tbar
Encoding: 116 358 116
GlifName: T_bar
Width: 1233
VWidth: 0
Flags: W
LayerCount: 2
Fore
SplineSet
483 577 m 257
NamedP: "hr00"
 218 577 l 257
 251 747 l 257
 516 747 l 257
NamedP: "dv01"
 628 1323 l 257
NamedP: "sv01"
 159 1323 l 257
 192 1493 l 257
NamedP: "at01"
 1331 1493 l 257
 1298 1323 l 257
NamedP: "sv02"
 831 1323 l 257
NamedP: "sv03"
 719 747 l 257
NamedP: "sv04"
 984 747 l 257
 951 577 l 257
NamedP: "sv05"
 686 577 l 257
 574 0 l 257
NamedP: "ab01"
 371 0 l 257
 483 577 l 257
NamedP: "hr00"
EndSplineSet
PickledDataWithLists: "(dp1
S'com.schriftgestaltung.Glyphs.lastChange'
p2
S'2017-07-11 17:15:08 +0000'
p3
s."
EndChar

StartChar: Tcaron
Encoding: 117 356 117
GlifName: T_caron
Width: 1233
VWidth: 0
Flags: W
LayerCount: 2
Fore
SplineSet
508 1861 m 257
NamedP: "hr00"
 644 1861 l 257
 783 1683 l 257
 992 1861 l 257
NamedP: "av01"
 1143 1861 l 257
 879 1595 l 257
 666 1595 l 257
 508 1861 l 257
NamedP: "hr00"
629 1323 m 257
NamedP: "sv01"
 160 1323 l 257
 193 1493 l 257
NamedP: "at01"
 1333 1493 l 257
 1300 1323 l 257
NamedP: "sv02"
 831 1323 l 257
NamedP: "sv03"
 575 0 l 257
NamedP: "ab01"
 371 0 l 257
 629 1323 l 257
NamedP: "sv01"
EndSplineSet
PickledDataWithLists: "(dp1
S'com.schriftgestaltung.Glyphs.lastChange'
p2
S'2017-07-11 17:15:08 +0000'
p3
s."
EndChar

StartChar: Theta
Encoding: 118 920 118
GlifName: T_heta
Width: 1233
VWidth: 0
Flags: W
LayerCount: 2
Fore
SplineSet
26 501 m 256
NamedP: "hr00"
 26 561 32 619 43 676 c 257
 113 1065 439 1401 769 1393 c 257
 1051 1393 1215 1169 1215 865 c 256
 1215 808 1209 747 1197 684 c 256
 1124 275 789 -36 475 -29 c 257
 197 -29 26 196 26 501 c 256
NamedP: "hr00"
995 685 m 256
 1006 745 1012 802 1012 856 c 256
 1012 1067 924 1208 725 1208 c 256
 463 1208 300 956 246 679 c 256
 235 619 229 563 229 512 c 256
 229 297 323 156 518 156 c 256
 770 156 939 396 995 685 c 256
403 764 m 257
 870 764 l 257
 837 594 l 257
 370 594 l 257
 403 764 l 257
EndSplineSet
PickledDataWithLists: "(dp1
S'com.schriftgestaltung.Glyphs.lastChange'
p2
S'2017-07-11 17:15:08 +0000'
p3
s."
EndChar

StartChar: Thorn
Encoding: 119 222 119
GlifName: T_horn
Width: 1233
VWidth: 0
Flags: W
LayerCount: 2
Fore
SplineSet
342 1493 m 257
NamedP: "at01"
 545 1491 l 257
 494 1217 l 257
 735 1217 l 258
NamedP: "sv02"
 873 1217 978 1188 1051 1129 c 256
 1123 1070 1159 988 1159 867 c 256
NamedP: "dh02"
 1159 719 1106 594 998 502 c 256
 891 411 744 365 557 365 c 258
NamedP: "dv01"
 326 365 l 257
 254 0 l 257
NamedP: "ab01"
 51 0 l 257
 342 1493 l 257
NamedP: "at01"
590 522 m 258
NamedP: "dv02"
 699 522 786 553 853 614 c 256
 920 675 952 758 952 853 c 256
NamedP: "dh01"
 952 933 929 979 890 1010 c 256
NamedP: "hr01"
 849 1043 785 1059 698 1059 c 258
NamedP: "sv01"
 461 1059 l 257
 356 522 l 257
 590 522 l 258
NamedP: "dv02"
EndSplineSet
PickledDataWithLists: "(dp1
S'com.schriftgestaltung.Glyphs.lastChange'
p2
S'2017-07-11 17:15:08 +0000'
p3
s."
EndChar

StartChar: U
Encoding: 120 85 120
GlifName: U_
Width: 1233
VWidth: 0
Flags: W
LayerCount: 2
Fore
SplineSet
477 -29 m 256
NamedP: "hr00"
 350 -29 253 1 184 61 c 256
 115 121 80 206 80 315 c 256
NamedP: "dh01"
 80 347 82 372 89 417 c 256
 97 477 102 506 115 573 c 258
 293 1493 l 257
NamedP: "at01"
 496 1493 l 257
 317 573 l 258
 316 564 313 551 309 532 c 256
 289 433 279 353 279 313 c 256
NamedP: "dh02"
 279 256 299 210 334 181 c 256
 369 150 425 135 501 135 c 256
NamedP: "dv01"
 612 135 702 176 756 254 c 256
 771 275 784 302 801 361 c 256
 816 409 831 481 850 573 c 257
 1028 1493 l 257
NamedP: "at02"
 1231 1493 l 257
 1053 573 l 257
 1021 402 991 314 964 253 c 257
 931 181 890 129 838 86 c 256
 791 47 733 20 676 1 c 256
 615 -19 548 -29 477 -29 c 256
NamedP: "hr00"
EndSplineSet
PickledDataWithLists: "(dp1
S'com.schriftgestaltung.Glyphs.lastChange'
p2
S'2017-07-11 17:15:08 +0000'
p3
s."
EndChar

StartChar: Uacute
Encoding: 121 218 121
GlifName: U_acute
Width: 1233
VWidth: 0
Flags: W
LayerCount: 2
Fore
SplineSet
889 1859 m 257
NamedP: "hr00"
 1097 1859 l 257
 790 1595 l 257
 630 1595 l 257
NamedP: "iv01"
 889 1859 l 257
NamedP: "hr00"
477 -29 m 256
NamedP: "dv01"
 350 -29 253 1 184 61 c 256
 115 121 80 206 80 315 c 256
NamedP: "dh01"
 80 347 82 372 89 417 c 256
 97 477 102 506 115 573 c 258
 293 1493 l 257
NamedP: "at01"
 496 1493 l 257
 317 573 l 258
 316 564 313 551 309 532 c 256
 289 433 279 353 279 313 c 256
NamedP: "dh02"
 279 256 299 210 334 181 c 256
 369 150 425 135 501 135 c 256
NamedP: "dv02"
 612 135 702 176 756 254 c 256
 771 275 784 302 801 361 c 256
 816 409 831 481 850 573 c 257
 1028 1493 l 257
NamedP: "at02"
 1231 1493 l 257
 1053 573 l 257
 1021 402 991 314 964 253 c 257
 931 181 890 129 838 86 c 256
 791 47 733 20 676 1 c 256
 615 -19 548 -29 477 -29 c 256
NamedP: "dv01"
EndSplineSet
PickledDataWithLists: "(dp1
S'com.schriftgestaltung.Glyphs.lastChange'
p2
S'2017-07-11 17:15:08 +0000'
p3
s."
EndChar

StartChar: Ubreve
Encoding: 122 364 122
GlifName: U_breve
Width: 1233
VWidth: 0
Flags: W
LayerCount: 2
Fore
SplineSet
1139 1861 m 257
NamedP: "hr00"
 1018 1861 l 257
 982 1784 912 1746 800 1746 c 256
NamedP: "hr01"
 745 1746 710 1754 683 1773 c 256
 657 1790 638 1820 627 1861 c 257
NamedP: "hr02"
 513 1861 l 257
 528 1778 556 1723 603 1680 c 257
 650 1639 713 1619 793 1619 c 256
 962 1619 1095 1712 1139 1861 c 257
NamedP: "hr00"
679 2 m 256
 811 45 903 121 964 253 c 257
 985 302 1001 348 1014 392 c 256
 1026 436 1039 496 1053 573 c 257
 1231 1493 l 257
 1028 1493 l 257
 850 573 l 257
 829 472 813 402 801 361 c 256
 772 254 736 205 649 165 c 256
 605 144 561 135 501 135 c 256
 424 135 369 150 334 181 c 256
 299 210 279 257 279 313 c 256
 279 360 289 433 309 532 c 258
 315 561 l 258
 316 569 317 573 317 573 c 257
 496 1493 l 257
 293 1493 l 257
 115 573 l 257
 96 488 80 371 80 315 c 256
 80 96 224 -29 477 -29 c 256
 549 -29 616 -19 679 2 c 256
EndSplineSet
PickledDataWithLists: "(dp1
S'com.schriftgestaltung.Glyphs.lastChange'
p2
S'2017-07-11 17:15:08 +0000'
p3
s."
EndChar

StartChar: Ucircumflex
Encoding: 123 219 123
GlifName: U_circumflex
Width: 1233
VWidth: 0
Flags: W
LayerCount: 2
Fore
SplineSet
708 1861 m 257
NamedP: "hr00"
 921 1861 l 257
 1079 1595 l 257
NamedP: "iv01"
 946 1595 l 257
 807 1773 l 257
 598 1595 l 257
 446 1595 l 257
NamedP: "iv02"
 708 1861 l 257
NamedP: "hr00"
477 -29 m 256
NamedP: "dv01"
 350 -29 253 1 184 61 c 256
 115 121 80 206 80 315 c 256
NamedP: "dh01"
 80 347 82 372 89 417 c 256
 97 477 102 506 115 573 c 258
 293 1493 l 257
NamedP: "at01"
 496 1493 l 257
 317 573 l 258
 316 564 313 551 309 532 c 256
 289 433 279 353 279 313 c 256
NamedP: "dh02"
 279 256 299 210 334 181 c 256
 369 150 425 135 501 135 c 256
NamedP: "dv02"
 612 135 702 176 756 254 c 256
 771 275 784 302 801 361 c 256
 816 409 831 481 850 573 c 257
 1028 1493 l 257
NamedP: "at02"
 1231 1493 l 257
 1053 573 l 257
 1021 402 991 314 964 253 c 257
 931 181 890 129 838 86 c 256
 791 47 733 20 676 1 c 256
 615 -19 548 -29 477 -29 c 256
NamedP: "dv01"
EndSplineSet
PickledDataWithLists: "(dp1
S'com.schriftgestaltung.Glyphs.lastChange'
p2
S'2017-07-11 17:15:08 +0000'
p3
s."
EndChar

StartChar: Udieresis
Encoding: 124 220 124
GlifName: U_dieresis
Width: 1233
VWidth: 0
Flags: W
LayerCount: 2
Fore
SplineSet
504 1627 m 258
NamedP: "hr00"
 484 1627 473 1640 477 1660 c 258
 505 1803 l 257
 508 1821 518 1830 537 1830 c 258
NamedP: "dv03"
 681 1830 l 258
 699 1830 708 1822 708 1806 c 256
 708 1802 708 1799 707 1797 c 258
 678 1654 l 258
 674 1636 663 1627 646 1627 c 258
 504 1627 l 258
NamedP: "hr00"
895 1627 m 258
NamedP: "sv01"
 875 1627 864 1640 868 1660 c 258
 896 1803 l 257
 899 1821 909 1830 928 1830 c 258
NamedP: "sv02"
 1071 1830 l 258
 1091 1830 1102 1817 1098 1797 c 258
 1070 1654 l 258
 1067 1636 1056 1627 1038 1627 c 258
 895 1627 l 258
NamedP: "sv01"
477 -29 m 256
NamedP: "dv01"
 350 -29 253 1 184 61 c 256
 115 121 80 206 80 315 c 256
NamedP: "dh01"
 80 347 82 372 89 417 c 256
 97 477 102 506 115 573 c 258
 293 1493 l 257
NamedP: "at01"
 496 1493 l 257
 317 573 l 258
 316 564 313 551 309 532 c 256
 289 433 279 353 279 313 c 256
NamedP: "dh02"
 279 256 299 210 334 181 c 256
 369 150 425 135 501 135 c 256
NamedP: "dv02"
 612 135 702 176 756 254 c 256
 771 275 784 302 801 361 c 256
 816 409 831 481 850 573 c 257
 1028 1493 l 257
NamedP: "at02"
 1231 1493 l 257
 1053 573 l 257
 1021 402 991 314 964 253 c 257
 931 181 890 129 838 86 c 256
 791 47 733 20 676 1 c 256
 615 -19 548 -29 477 -29 c 256
NamedP: "dv01"
EndSplineSet
PickledDataWithLists: "(dp1
S'com.schriftgestaltung.Glyphs.lastChange'
p2
S'2017-07-11 17:15:08 +0000'
p3
s."
EndChar

StartChar: Ugrave
Encoding: 125 217 125
GlifName: U_grave
Width: 1233
VWidth: 0
Flags: W
LayerCount: 2
Fore
SplineSet
555 1859 m 257
NamedP: "hr00"
 737 1859 l 257
 884 1595 l 257
NamedP: "iv01"
 745 1595 l 257
 555 1859 l 257
NamedP: "hr00"
477 -29 m 256
NamedP: "dv01"
 350 -29 253 1 184 61 c 256
 115 121 80 206 80 315 c 256
NamedP: "dh01"
 80 347 82 372 89 417 c 256
 97 477 102 506 115 573 c 258
 293 1493 l 257
NamedP: "at01"
 496 1493 l 257
 317 573 l 258
 316 564 313 551 309 532 c 256
 289 433 279 353 279 313 c 256
NamedP: "dh02"
 279 256 299 210 334 181 c 256
 369 150 425 135 501 135 c 256
NamedP: "dv02"
 612 135 702 176 756 254 c 256
 771 275 784 302 801 361 c 256
 816 409 831 481 850 573 c 257
 1028 1493 l 257
NamedP: "at02"
 1231 1493 l 257
 1053 573 l 257
 1021 402 991 314 964 253 c 257
 931 181 890 129 838 86 c 256
 791 47 733 20 676 1 c 256
 615 -19 548 -29 477 -29 c 256
NamedP: "dv01"
EndSplineSet
PickledDataWithLists: "(dp1
S'com.schriftgestaltung.Glyphs.lastChange'
p2
S'2017-07-11 17:15:08 +0000'
p3
s."
EndChar

StartChar: Uhorn
Encoding: 126 431 126
GlifName: U_horn
Width: 1233
VWidth: 0
Flags: W
LayerCount: 2
Fore
SplineSet
1385 1557 m 257
NamedP: "at01"
 1386 1538 1387 1523 1387 1508 c 256
 1387 1472 1383 1445 1379 1421 c 256
 1351 1269 1281 1184 1160 1184 c 256
NamedP: "hr01"
 1133 1184 1109 1188 1087 1197 c 257
 966 573 l 258
NamedP: "hr02"
 910 289 858 172 751 86 c 256
 654 9 530 -29 391 -29 c 256
NamedP: "dv01"
 136 -29 -7 100 -7 311 c 256
NamedP: "dh01"
 -7 370 4 448 28 573 c 258
 206 1493 l 257
NamedP: "at02"
 409 1493 l 257
 230 573 l 258
 227 557 230 568 222 532 c 256
 202 433 192 355 192 312 c 256
NamedP: "dh02"
 192 199 265 135 409 135 c 256
NamedP: "dv02"
 508 135 613 165 669 253 c 256
 684 277 698 306 714 361 c 256
 729 412 746 485 763 573 c 258
 941 1493 l 257
NamedP: "at03"
 1144 1493 l 257
 1112 1328 l 257
 1125 1325 1137 1323 1149 1323 c 256
NamedP: "sv01"
 1205 1323 1243 1360 1258 1432 c 256
 1261 1451 1263 1468 1263 1483 c 256
NamedP: "at04"
 1263 1506 1259 1531 1252 1557 c 257
NamedP: "hr03"
 1385 1557 l 257
NamedP: "at01"
EndSplineSet
PickledDataWithLists: "(dp1
S'com.schriftgestaltung.Glyphs.lastChange'
p2
S'2017-07-11 17:15:08 +0000'
p3
s."
EndChar

StartChar: Uhungarumlaut
Encoding: 127 368 127
GlifName: U_hungarumlaut
Width: 1233
VWidth: 0
Flags: W
LayerCount: 2
Fore
SplineSet
766 1859 m 257
NamedP: "hr00"
 952 1859 l 257
 672 1595 l 257
NamedP: "sv01"
 518 1595 l 257
 766 1859 l 257
NamedP: "hr00"
1085 1859 m 257
 1271 1859 l 257
NamedP: "sv02"
 991 1595 l 257
 837 1595 l 257
NamedP: "dv03"
 1085 1859 l 257
478 -29 m 256
NamedP: "dv01"
 223 -29 80 100 80 311 c 256
NamedP: "dh01"
 80 370 91 448 115 573 c 258
 293 1493 l 257
NamedP: "at01"
 496 1493 l 257
 317 573 l 258
 314 557 317 568 309 532 c 256
 289 433 279 355 279 312 c 256
NamedP: "dh02"
 279 199 352 135 496 135 c 256
NamedP: "dv02"
 595 135 700 165 756 253 c 256
 771 277 785 306 801 361 c 256
 816 412 833 485 850 573 c 258
 1028 1493 l 257
NamedP: "at02"
 1231 1493 l 257
 1053 573 l 257
 997 289 945 172 838 86 c 256
 741 9 617 -29 478 -29 c 256
NamedP: "dv01"
EndSplineSet
PickledDataWithLists: "(dp1
S'com.schriftgestaltung.Glyphs.lastChange'
p2
S'2017-07-11 17:15:08 +0000'
p3
s."
EndChar

StartChar: Umacron
Encoding: 128 362 128
GlifName: U_macron
Width: 1233
VWidth: 0
Flags: W
LayerCount: 2
Fore
SplineSet
531 1800 m 257
NamedP: "hr00"
 1129 1800 l 257
NamedP: "dv04"
 1100 1652 l 257
NamedP: "dv03"
 502 1652 l 257
 531 1800 l 257
NamedP: "hr00"
478 -29 m 256
NamedP: "dv01"
 223 -29 80 100 80 311 c 256
NamedP: "dh01"
 80 370 91 448 115 573 c 258
 293 1493 l 257
NamedP: "at01"
 496 1493 l 257
 317 573 l 258
 314 557 317 568 309 532 c 256
 289 433 279 355 279 312 c 256
NamedP: "dh02"
 279 199 352 135 496 135 c 256
NamedP: "dv02"
 595 135 700 165 756 253 c 256
 771 277 785 306 801 361 c 256
 816 412 833 485 850 573 c 258
 1028 1493 l 257
NamedP: "at02"
 1231 1493 l 257
 1053 573 l 257
 997 289 945 172 838 86 c 256
 741 9 617 -29 478 -29 c 256
NamedP: "dv01"
EndSplineSet
PickledDataWithLists: "(dp1
S'com.schriftgestaltung.Glyphs.lastChange'
p2
S'2017-07-11 17:15:08 +0000'
p3
s."
EndChar

StartChar: Uogonek
Encoding: 129 370 129
GlifName: U_ogonek
Width: 1233
VWidth: 0
Flags: W
LayerCount: 2
Fore
SplineSet
1231 1493 m 257
NamedP: "at01"
 1053 573 l 257
 997 289 945 172 838 86 c 256
 741 9 617 -29 478 -29 c 258
NamedP: "dv03"
 455 -29 l 257
 382 -101 343 -164 343 -216 c 256
NamedP: "sh01"
 343 -263 375 -288 439 -288 c 256
NamedP: "dv02"
 478 -288 523 -278 566 -258 c 257
 541 -391 l 257
 495 -404 449 -411 402 -411 c 256
NamedP: "dv01"
 271 -411 197 -354 197 -261 c 256
NamedP: "ih01"
 197 -186 245 -109 349 -16 c 257
NamedP: "sv01"
 174 21 80 138 80 311 c 256
NamedP: "dh01"
 80 370 91 448 115 573 c 258
NamedP: "hr01"
 293 1493 l 257
NamedP: "at02"
 496 1493 l 257
 317 573 l 258
 314 557 317 568 309 532 c 256
 289 433 279 355 279 312 c 256
NamedP: "dh02"
 279 199 352 135 496 135 c 256
NamedP: "dv04"
 595 135 700 165 756 253 c 256
 771 277 785 306 801 361 c 256
 816 412 833 485 850 573 c 258
 1028 1493 l 257
 1231 1493 l 257
NamedP: "at01"
EndSplineSet
PickledDataWithLists: "(dp1
S'com.schriftgestaltung.Glyphs.lastChange'
p2
S'2017-07-11 17:15:08 +0000'
p3
s."
EndChar

StartChar: Upsilon
Encoding: 130 933 130
GlifName: U_psilon
Width: 1233
VWidth: 0
Flags: W
LayerCount: 2
Fore
SplineSet
496 650 m 257
NamedP: "hr00"
 509 715 515 787 515 860 c 256
NamedP: "dh01"
 515 1057 470 1255 388 1297 c 257
 340 1320 290 1332 239 1332 c 256
NamedP: "sv01"
 212 1332 185 1329 157 1323 c 257
NamedP: "sv02"
 190 1493 l 257
NamedP: "at01"
 215 1501 246 1504 281 1504 c 256
NamedP: "at02"
 320 1504 366 1501 417 1490 c 257
NamedP: "at03"
 592 1458 678 1309 675 1044 c 257
NamedP: "dh02"
 802 1306 946 1455 1105 1490 c 256
NamedP: "at04"
 1124 1495 1143 1497 1164 1497 c 256
NamedP: "at05"
 1257 1497 1335 1445 1335 1352 c 256
NamedP: "hr01"
 1335 1316 1323 1273 1295 1224 c 256
 1268 1179 1224 1157 1181 1157 c 256
 1115 1157 1051 1205 1059 1297 c 257
NamedP: "hr02"
 887 1193 743 869 699 650 c 257
 573 0 l 257
NamedP: "ab01"
 370 0 l 257
 496 650 l 257
NamedP: "hr00"
EndSplineSet
PickledDataWithLists: "(dp1
S'com.schriftgestaltung.Glyphs.lastChange'
p2
S'2017-07-11 17:15:08 +0000'
p3
s."
EndChar

StartChar: Upsilondieresis
Encoding: 131 939 131
GlifName: U_psilondieresis
Width: 1233
VWidth: 0
Flags: W
LayerCount: 2
Fore
SplineSet
506 1647 m 258
NamedP: "dv01"
 486 1647 475 1660 479 1680 c 258
 507 1823 l 257
 510 1841 520 1850 539 1850 c 258
NamedP: "dv02"
 683 1850 l 258
 704 1850 713 1837 709 1817 c 258
 680 1674 l 258
 676 1656 665 1647 648 1647 c 258
 506 1647 l 258
NamedP: "dv01"
897 1647 m 258
NamedP: "sv01"
 877 1647 866 1660 870 1680 c 258
 898 1823 l 257
 901 1841 911 1850 930 1850 c 258
NamedP: "hr01"
 1073 1850 l 258
 1093 1850 1104 1837 1100 1817 c 258
 1072 1674 l 258
NamedP: "hr02"
 1069 1656 1058 1647 1040 1647 c 258
 897 1647 l 258
NamedP: "sv01"
496 650 m 257
 509 715 515 787 515 860 c 256
NamedP: "dh01"
 515 1057 470 1255 388 1297 c 257
 340 1320 290 1332 239 1332 c 256
NamedP: "sv02"
 212 1332 185 1329 157 1323 c 257
NamedP: "sv03"
 190 1493 l 257
NamedP: "at01"
 215 1501 246 1504 281 1504 c 256
NamedP: "at02"
 320 1504 366 1501 417 1490 c 257
NamedP: "at03"
 592 1458 678 1309 675 1044 c 257
NamedP: "dh02"
 802 1306 946 1455 1105 1490 c 256
NamedP: "at04"
 1124 1495 1143 1497 1164 1497 c 256
NamedP: "at05"
 1257 1497 1335 1445 1335 1352 c 256
 1335 1316 1323 1273 1295 1224 c 256
 1268 1179 1224 1157 1181 1157 c 256
NamedP: "sv04"
 1115 1157 1051 1205 1059 1297 c 257
NamedP: "iv01"
 887 1193 743 869 699 650 c 257
 573 0 l 257
NamedP: "ab01"
 370 0 l 257
 496 650 l 257
EndSplineSet
PickledDataWithLists: "(dp1
S'com.schriftgestaltung.Glyphs.lastChange'
p2
S'2017-07-11 17:15:08 +0000'
p3
s."
EndChar

StartChar: Upsilontonos
Encoding: 132 910 132
GlifName: U_psilontonos
Width: 1233
VWidth: 0
Flags: W
LayerCount: 2
Fore
SplineSet
-8 1638 m 257
NamedP: "hr00"
 211 1638 l 257
NamedP: "sv02"
 -184 1262 l 257
 -340 1262 l 257
NamedP: "iv01"
 -8 1638 l 257
NamedP: "hr00"
496 650 m 257
 509 715 515 787 515 860 c 256
NamedP: "dh01"
 515 1057 470 1255 388 1297 c 257
 340 1320 290 1332 239 1332 c 256
NamedP: "sv01"
 212 1332 185 1329 157 1323 c 257
NamedP: "sv03"
 190 1493 l 257
NamedP: "at01"
 215 1501 246 1504 281 1504 c 256
NamedP: "at02"
 320 1504 366 1501 417 1490 c 257
NamedP: "hr01"
 592 1458 678 1309 675 1044 c 257
NamedP: "dh02"
 802 1306 946 1455 1105 1490 c 256
NamedP: "at03"
 1124 1495 1143 1497 1164 1497 c 256
NamedP: "hr02"
 1257 1497 1335 1445 1335 1352 c 256
 1335 1316 1323 1273 1295 1224 c 256
 1268 1179 1224 1157 1181 1157 c 256
 1115 1157 1051 1205 1059 1297 c 257
NamedP: "iv02"
 887 1193 743 869 699 650 c 257
 573 0 l 257
NamedP: "ab01"
 370 0 l 257
 496 650 l 257
EndSplineSet
PickledDataWithLists: "(dp1
S'com.schriftgestaltung.Glyphs.lastChange'
p2
S'2017-07-11 17:15:08 +0000'
p3
s."
EndChar

StartChar: Uring
Encoding: 133 366 133
GlifName: U_ring
Width: 1233
VWidth: 0
Flags: W
LayerCount: 2
Fore
SplineSet
760 1352 m 256
NamedP: "hr00"
 608 1352 486 1473 486 1627 c 256
NamedP: "dh03"
 486 1782 608 1901 760 1901 c 256
NamedP: "dv04"
 913 1901 1035 1782 1035 1627 c 256
NamedP: "dh06"
 1035 1473 913 1352 760 1352 c 256
NamedP: "hr00"
760 1475 m 256
NamedP: "dv05"
 844 1475 912 1542 912 1626 c 256
NamedP: "dh05"
 912 1710 844 1778 760 1778 c 256
NamedP: "dv03"
 675 1778 609 1712 609 1627 c 256
NamedP: "dh04"
 609 1541 675 1475 760 1475 c 256
NamedP: "dv05"
478 -29 m 256
NamedP: "dv01"
 223 -29 80 100 80 311 c 256
NamedP: "dh01"
 80 370 91 448 115 573 c 258
 293 1493 l 257
NamedP: "at01"
 496 1493 l 257
NamedP: "sh01"
 317 573 l 258
 314 557 317 568 309 532 c 256
 289 433 279 355 279 312 c 256
NamedP: "dh02"
 279 199 352 135 496 135 c 256
NamedP: "dv02"
 595 135 700 165 756 253 c 256
 771 277 785 306 801 361 c 256
 816 412 833 485 850 573 c 258
 1028 1493 l 257
NamedP: "at02"
 1231 1493 l 257
 1053 573 l 257
 997 289 945 172 838 86 c 256
 741 9 617 -29 478 -29 c 256
NamedP: "dv01"
EndSplineSet
PickledDataWithLists: "(dp1
S'com.schriftgestaltung.Glyphs.lastChange'
p2
S'2017-07-11 17:15:08 +0000'
p3
s."
EndChar

StartChar: Utilde
Encoding: 134 360 134
GlifName: U_tilde
Width: 1233
VWidth: 0
Flags: W
LayerCount: 2
Fore
SplineSet
446 1627 m 257
NamedP: "sv01"
 493 1772 578 1846 686 1846 c 256
NamedP: "dv04"
 731 1846 774 1834 821 1799 c 258
 856 1773 l 258
 880 1755 904 1746 928 1746 c 256
NamedP: "dv06"
 984 1746 1021 1785 1036 1846 c 257
NamedP: "sv02"
 1161 1846 l 257
 1118 1698 1027 1627 916 1627 c 256
NamedP: "dv05"
 873 1627 838 1638 794 1670 c 258
 760 1695 l 257
 758 1696 l 256
 729 1717 703 1728 678 1728 c 256
NamedP: "dv03"
 632 1728 596 1694 571 1627 c 257
 446 1627 l 257
NamedP: "sv01"
478 -29 m 256
NamedP: "dv01"
 223 -29 80 100 80 311 c 256
NamedP: "dh01"
 80 370 91 448 115 573 c 258
 293 1493 l 257
NamedP: "at01"
 496 1493 l 257
 317 573 l 258
NamedP: "hr01"
 314 557 317 568 309 532 c 256
 289 433 279 355 279 312 c 256
NamedP: "dh02"
 279 199 352 135 496 135 c 256
NamedP: "dv02"
 595 135 700 165 756 253 c 256
NamedP: "hr02"
 771 277 785 306 801 361 c 256
NamedP: "hr03"
 816 412 833 485 850 573 c 258
 1028 1493 l 257
NamedP: "hr04"
 1231 1493 l 257
 1053 573 l 257
 997 289 945 172 838 86 c 256
NamedP: "hr05"
 741 9 617 -29 478 -29 c 256
NamedP: "dv01"
EndSplineSet
PickledDataWithLists: "(dp1
S'com.schriftgestaltung.Glyphs.lastChange'
p2
S'2017-07-11 17:15:08 +0000'
p3
s."
EndChar

StartChar: V
Encoding: 135 86 135
GlifName: V_
Width: 1233
VWidth: 0
Flags: W
LayerCount: 2
Fore
SplineSet
199 1493 m 257
NamedP: "hr00"
 397 1493 l 257
 510 190 l 257
NamedP: "iv01"
 1108 1493 l 257
NamedP: "at01"
 1323 1493 l 257
 604 0 l 257
NamedP: "ab01"
 346 0 l 257
 199 1493 l 257
NamedP: "hr00"
EndSplineSet
PickledDataWithLists: "(dp1
S'com.schriftgestaltung.Glyphs.lastChange'
p2
S'2017-07-11 17:15:08 +0000'
p3
s."
EndChar

StartChar: W
Encoding: 136 87 136
GlifName: W_
Width: 1233
VWidth: 0
Flags: W
LayerCount: 2
Fore
SplineSet
145 1493 m 257
NamedP: "hr00"
 336 1493 l 257
 246 283 l 257
NamedP: "iv01"
 575 1083 l 257
 786 1083 l 257
 801 281 l 257
NamedP: "iv02"
 1178 1493 l 257
NamedP: "at01"
 1376 1493 l 257
 866 0 l 257
NamedP: "ab01"
 672 0 l 257
 641 870 l 257
NamedP: "iv03"
 270 0 l 257
NamedP: "ab02"
 82 0 l 257
 145 1493 l 257
NamedP: "hr00"
EndSplineSet
PickledDataWithLists: "(dp1
S'com.schriftgestaltung.Glyphs.lastChange'
p2
S'2017-07-11 17:15:08 +0000'
p3
s."
EndChar

StartChar: Wacute
Encoding: 137 7810 137
GlifName: W_acute
Width: 1233
VWidth: 0
Flags: W
LayerCount: 2
Fore
SplineSet
874 1866 m 257
NamedP: "hr00"
 1082 1866 l 257
 775 1602 l 257
 615 1602 l 257
NamedP: "iv01"
 874 1866 l 257
NamedP: "hr00"
145 1493 m 257
NamedP: "at01"
 336 1493 l 257
 246 283 l 257
NamedP: "iv02"
 575 1083 l 257
 786 1083 l 257
 801 281 l 257
NamedP: "iv03"
 1178 1493 l 257
NamedP: "at02"
 1376 1493 l 257
NamedP: "iv04"
 866 0 l 257
NamedP: "ab01"
 672 0 l 257
 641 870 l 257
NamedP: "iv05"
 270 0 l 257
NamedP: "ab02"
 82 0 l 257
 145 1493 l 257
NamedP: "at01"
EndSplineSet
PickledDataWithLists: "(dp1
S'com.schriftgestaltung.Glyphs.lastChange'
p2
S'2017-07-11 17:15:08 +0000'
p3
s."
EndChar

StartChar: Wcircumflex
Encoding: 138 372 138
GlifName: W_circumflex
Width: 1233
VWidth: 0
Flags: W
LayerCount: 2
Fore
SplineSet
737 1868 m 257
NamedP: "hr00"
 950 1868 l 257
 1108 1602 l 257
NamedP: "iv01"
 975 1602 l 257
 836 1780 l 257
 627 1602 l 257
 475 1602 l 257
NamedP: "iv02"
 737 1868 l 257
NamedP: "hr00"
145 1493 m 257
NamedP: "at01"
 336 1493 l 257
 246 283 l 257
NamedP: "iv03"
 575 1083 l 257
 786 1083 l 257
 801 281 l 257
NamedP: "iv04"
 1178 1493 l 257
NamedP: "at02"
 1376 1493 l 257
NamedP: "iv05"
 866 0 l 257
NamedP: "ab01"
 672 0 l 257
 641 870 l 257
NamedP: "iv06"
 270 0 l 257
NamedP: "ab02"
 82 0 l 257
 145 1493 l 257
NamedP: "at01"
EndSplineSet
PickledDataWithLists: "(dp1
S'com.schriftgestaltung.Glyphs.lastChange'
p2
S'2017-07-11 17:15:08 +0000'
p3
s."
EndChar

StartChar: Wdieresis
Encoding: 139 7812 139
GlifName: W_dieresis
Width: 1233
VWidth: 0
Flags: W
LayerCount: 2
Fore
SplineSet
532 1602 m 258
NamedP: "hr00"
 511 1602 495 1618 499 1641 c 258
 526 1781 l 258
 529 1796 540 1804 555 1804 c 258
NamedP: "dv01"
 695 1804 l 258
 716 1804 731 1788 727 1765 c 258
 700 1625 l 258
 697 1610 686 1602 671 1602 c 258
 532 1602 l 258
NamedP: "hr00"
923 1602 m 258
NamedP: "sv01"
 902 1602 886 1618 890 1641 c 258
 917 1781 l 258
 920 1796 931 1804 946 1804 c 258
NamedP: "sv02"
 1086 1804 l 258
 1107 1804 1122 1788 1118 1765 c 258
 1091 1625 l 258
 1088 1610 1077 1602 1062 1602 c 258
 923 1602 l 258
NamedP: "sv01"
178 1493 m 257
NamedP: "at01"
 369 1493 l 257
 279 283 l 257
NamedP: "iv01"
 608 1083 l 257
 819 1083 l 257
 834 281 l 257
NamedP: "iv02"
 1211 1493 l 257
NamedP: "at02"
 1409 1493 l 257
 899 0 l 257
NamedP: "ab01"
 705 0 l 257
 674 870 l 257
NamedP: "iv03"
 303 0 l 257
NamedP: "ab02"
 115 0 l 257
 178 1493 l 257
NamedP: "at01"
EndSplineSet
PickledDataWithLists: "(dp1
S'com.schriftgestaltung.Glyphs.lastChange'
p2
S'2017-07-11 17:15:08 +0000'
p3
s."
EndChar

StartChar: Wgrave
Encoding: 140 7808 140
GlifName: W_grave
Width: 1233
VWidth: 0
Flags: W
LayerCount: 2
Fore
SplineSet
530 1866 m 257
NamedP: "hr00"
 712 1866 l 257
 859 1602 l 257
NamedP: "iv01"
 720 1602 l 257
 530 1866 l 257
NamedP: "hr00"
145 1493 m 257
NamedP: "at01"
 336 1493 l 257
 246 283 l 257
NamedP: "iv02"
 575 1083 l 257
 786 1083 l 257
 801 281 l 257
NamedP: "iv03"
 1178 1493 l 257
NamedP: "at02"
 1376 1493 l 257
NamedP: "iv04"
 866 0 l 257
NamedP: "ab01"
 672 0 l 257
 641 870 l 257
NamedP: "iv05"
 270 0 l 257
NamedP: "ab02"
 82 0 l 257
 145 1493 l 257
NamedP: "at01"
EndSplineSet
PickledDataWithLists: "(dp1
S'com.schriftgestaltung.Glyphs.lastChange'
p2
S'2017-07-11 17:15:08 +0000'
p3
s."
EndChar

StartChar: X
Encoding: 141 88 141
GlifName: X_
Width: 1233
VWidth: 0
Flags: W
LayerCount: 2
Fore
SplineSet
546 797 m 257
NamedP: "hr00"
 258 1493 l 257
NamedP: "at01"
 458 1493 l 257
 682 961 l 257
NamedP: "iv01"
 1122 1493 l 257
NamedP: "at02"
 1353 1493 l 257
 757 774 l 257
 1081 0 l 257
NamedP: "ab01"
 880 0 l 257
 626 612 l 257
NamedP: "iv02"
 120 0 l 257
NamedP: "ab02"
 -111 0 l 257
 546 797 l 257
NamedP: "hr00"
EndSplineSet
PickledDataWithLists: "(dp1
S'com.schriftgestaltung.Glyphs.lastChange'
p2
S'2017-07-11 17:15:08 +0000'
p3
s."
EndChar

StartChar: Xi
Encoding: 142 926 142
GlifName: X_i
Width: 1233
VWidth: 0
Flags: W
LayerCount: 2
Fore
SplineSet
283 1493 m 257
NamedP: "hr00"
 1242 1493 l 257
 1209 1323 l 257
NamedP: "sv01"
 250 1323 l 257
 283 1493 l 257
NamedP: "hr00"
367 881 m 257
 920 881 l 257
NamedP: "dv02"
 887 711 l 257
NamedP: "dv01"
 334 711 l 257
 367 881 l 257
26 170 m 257
NamedP: "sv02"
 985 170 l 257
 952 0 l 257
NamedP: "ab01"
 -7 0 l 257
 26 170 l 257
NamedP: "sv02"
EndSplineSet
PickledDataWithLists: "(dp1
S'com.schriftgestaltung.Glyphs.lastChange'
p2
S'2017-07-11 17:15:08 +0000'
p3
s."
EndChar

StartChar: Y
Encoding: 143 89 143
GlifName: Y_
Width: 1233
VWidth: 0
Flags: W
LayerCount: 2
Fore
SplineSet
508 670 m 257
NamedP: "hr00"
 195 1493 l 257
NamedP: "at01"
 397 1493 l 257
 633 842 l 257
NamedP: "iv01"
 1130 1493 l 257
NamedP: "at02"
 1348 1493 l 257
 713 670 l 257
 584 0 l 257
NamedP: "ab01"
 377 0 l 257
 508 670 l 257
NamedP: "hr00"
EndSplineSet
PickledDataWithLists: "(dp1
S'com.schriftgestaltung.Glyphs.lastChange'
p2
S'2017-07-11 17:15:08 +0000'
p3
s."
EndChar

StartChar: Yacute
Encoding: 144 221 144
GlifName: Y_acute
Width: 1233
VWidth: 0
Flags: W
LayerCount: 2
Fore
SplineSet
921 1859 m 257
NamedP: "hr00"
 1129 1859 l 257
 822 1595 l 257
 662 1595 l 257
NamedP: "iv01"
 921 1859 l 257
NamedP: "hr00"
508 670 m 257
 195 1493 l 257
NamedP: "at01"
 397 1493 l 257
 633 842 l 257
NamedP: "iv02"
 1130 1493 l 257
NamedP: "at02"
 1348 1493 l 257
NamedP: "iv03"
 713 670 l 257
 584 0 l 257
NamedP: "ab01"
 377 0 l 257
 508 670 l 257
EndSplineSet
PickledDataWithLists: "(dp1
S'com.schriftgestaltung.Glyphs.lastChange'
p2
S'2017-07-11 17:15:08 +0000'
p3
s."
EndChar

StartChar: Ycircumflex
Encoding: 145 374 145
GlifName: Y_circumflex
Width: 1233
VWidth: 0
Flags: W
LayerCount: 2
Fore
SplineSet
735 1868 m 257
NamedP: "hr00"
 948 1868 l 257
 1106 1602 l 257
NamedP: "iv01"
 973 1602 l 257
 834 1780 l 257
 625 1602 l 257
 473 1602 l 257
NamedP: "iv02"
 735 1868 l 257
NamedP: "hr00"
508 670 m 257
 195 1493 l 257
NamedP: "at01"
 397 1493 l 257
 633 842 l 257
NamedP: "iv03"
 1130 1493 l 257
NamedP: "at02"
 1348 1493 l 257
NamedP: "iv04"
 713 670 l 257
 584 0 l 257
NamedP: "ab01"
 377 0 l 257
 508 670 l 257
EndSplineSet
PickledDataWithLists: "(dp1
S'com.schriftgestaltung.Glyphs.lastChange'
p2
S'2017-07-11 17:15:08 +0000'
p3
s."
EndChar

StartChar: Ydieresis
Encoding: 146 376 146
GlifName: Y_dieresis
Width: 1233
VWidth: 0
Flags: W
LayerCount: 2
Fore
SplineSet
506 1627 m 258
NamedP: "hr00"
 486 1627 475 1640 479 1660 c 258
 507 1803 l 257
 510 1821 520 1830 539 1830 c 258
NamedP: "dv01"
 683 1830 l 258
 701 1830 710 1822 710 1806 c 256
 710 1802 710 1799 709 1797 c 258
 680 1654 l 258
 676 1636 665 1627 648 1627 c 258
 506 1627 l 258
NamedP: "hr00"
897 1627 m 258
NamedP: "sv01"
 877 1627 866 1640 870 1660 c 258
 898 1803 l 257
 901 1821 911 1830 930 1830 c 258
NamedP: "sv02"
 1073 1830 l 258
 1093 1830 1104 1817 1100 1797 c 258
 1072 1654 l 258
 1069 1636 1058 1627 1040 1627 c 258
 897 1627 l 258
NamedP: "sv01"
508 670 m 257
 195 1493 l 257
NamedP: "at01"
 397 1493 l 257
 633 842 l 257
NamedP: "iv01"
 1130 1493 l 257
NamedP: "at02"
 1348 1493 l 257
 713 670 l 257
 584 0 l 257
NamedP: "ab01"
 377 0 l 257
 508 670 l 257
EndSplineSet
PickledDataWithLists: "(dp1
S'com.schriftgestaltung.Glyphs.lastChange'
p2
S'2017-07-11 17:15:08 +0000'
p3
s."
EndChar

StartChar: Ygrave
Encoding: 147 7922 147
GlifName: Y_grave
Width: 1233
VWidth: 0
Flags: W
LayerCount: 2
Fore
SplineSet
540 1866 m 257
NamedP: "hr00"
 722 1866 l 257
 869 1602 l 257
NamedP: "iv01"
 730 1602 l 257
 540 1866 l 257
NamedP: "hr00"
508 670 m 257
 195 1493 l 257
NamedP: "at01"
 397 1493 l 257
 633 842 l 257
NamedP: "iv02"
 1130 1493 l 257
NamedP: "at02"
 1348 1493 l 257
NamedP: "iv03"
 713 670 l 257
 584 0 l 257
NamedP: "ab01"
 377 0 l 257
 508 670 l 257
EndSplineSet
PickledDataWithLists: "(dp1
S'com.schriftgestaltung.Glyphs.lastChange'
p2
S'2017-07-11 17:15:08 +0000'
p3
s."
EndChar

StartChar: Z
Encoding: 148 90 148
GlifName: Z_
Width: 1233
VWidth: 0
Flags: W
LayerCount: 2
Fore
SplineSet
32 154 m 257
NamedP: "hr00"
 1008 1323 l 257
NamedP: "sv01"
 281 1323 l 257
 314 1493 l 257
NamedP: "at01"
 1283 1493 l 257
 1254 1339 l 257
 275 170 l 257
NamedP: "sv02"
 1049 170 l 257
 1015 0 l 257
NamedP: "ab01"
 3 0 l 257
 32 154 l 257
NamedP: "hr00"
EndSplineSet
PickledDataWithLists: "(dp1
S'com.schriftgestaltung.Glyphs.lastChange'
p2
S'2017-07-11 17:15:08 +0000'
p3
s."
EndChar

StartChar: Zacute
Encoding: 149 377 149
GlifName: Z_acute
Width: 1233
VWidth: 0
Flags: W
LayerCount: 2
Fore
SplineSet
907 1866 m 257
NamedP: "hr00"
 1115 1866 l 257
 808 1602 l 257
 648 1602 l 257
NamedP: "iv01"
 907 1866 l 257
NamedP: "hr00"
23 154 m 257
 999 1323 l 257
NamedP: "sv01"
 272 1323 l 257
 305 1493 l 257
NamedP: "at01"
 1274 1493 l 257
 1245 1339 l 257
 266 170 l 257
NamedP: "sv02"
 1040 170 l 257
 1006 0 l 257
NamedP: "ab01"
 -6 0 l 257
 23 154 l 257
EndSplineSet
PickledDataWithLists: "(dp1
S'com.schriftgestaltung.Glyphs.lastChange'
p2
S'2017-07-11 17:15:08 +0000'
p3
s."
EndChar

StartChar: Zcaron
Encoding: 150 381 150
GlifName: Z_caron
Width: 1233
VWidth: 0
Flags: W
LayerCount: 2
Fore
SplineSet
539 1861 m 257
NamedP: "hr00"
 675 1861 l 257
 814 1683 l 257
 1023 1861 l 257
NamedP: "av01"
 1174 1861 l 257
 910 1595 l 257
 697 1595 l 257
 539 1861 l 257
NamedP: "hr00"
23 154 m 257
 999 1323 l 257
NamedP: "sv01"
 272 1323 l 257
 305 1493 l 257
NamedP: "at01"
 1274 1493 l 257
 1245 1339 l 257
 266 170 l 257
NamedP: "sv02"
 1040 170 l 257
 1006 0 l 257
NamedP: "ab01"
 -6 0 l 257
 23 154 l 257
EndSplineSet
PickledDataWithLists: "(dp1
S'com.schriftgestaltung.Glyphs.lastChange'
p2
S'2017-07-11 17:15:08 +0000'
p3
s."
EndChar

StartChar: Zdotaccent
Encoding: 151 379 151
GlifName: Z_dotaccent
Width: 1233
VWidth: 0
Flags: W
LayerCount: 2
Fore
SplineSet
783 1627 m 258
NamedP: "hr00"
 762 1627 747 1643 751 1666 c 258
 778 1809 l 258
 781 1824 792 1832 807 1832 c 258
NamedP: "dv01"
 948 1832 l 258
 969 1832 985 1816 981 1793 c 258
 953 1650 l 258
 950 1635 939 1627 924 1627 c 258
 783 1627 l 258
NamedP: "hr00"
23 154 m 257
 999 1323 l 257
NamedP: "sv01"
 272 1323 l 257
 305 1493 l 257
NamedP: "at01"
 1274 1493 l 257
 1245 1339 l 257
 266 170 l 257
NamedP: "sv02"
 1040 170 l 257
 1006 0 l 257
NamedP: "ab01"
 -6 0 l 257
 23 154 l 257
EndSplineSet
PickledDataWithLists: "(dp1
S'com.schriftgestaltung.Glyphs.lastChange'
p2
S'2017-07-11 17:15:08 +0000'
p3
s."
EndChar

StartChar: Zeta
Encoding: 152 918 152
GlifName: Z_eta
Width: 1233
VWidth: 0
Flags: W
LayerCount: 2
Fore
SplineSet
23 154 m 257
NamedP: "hr00"
 999 1323 l 257
NamedP: "sv01"
 272 1323 l 257
 305 1493 l 257
NamedP: "at01"
 1274 1493 l 257
 1245 1339 l 257
 266 170 l 257
NamedP: "sv02"
 1040 170 l 257
 1006 0 l 257
NamedP: "ab01"
 -6 0 l 257
 23 154 l 257
NamedP: "hr00"
EndSplineSet
PickledDataWithLists: "(dp1
S'com.schriftgestaltung.Glyphs.lastChange'
p2
S'2017-07-11 17:15:08 +0000'
p3
s."
EndChar

StartChar: a
Encoding: 154 97 154
GlifName: a
Width: 1233
VWidth: 0
Flags: W
LayerCount: 2
Fore
SplineSet
407 -29 m 256
NamedP: "dv01"
 308 -29 225 -2 164 54 c 256
 100 111 72 188 72 280 c 256
NamedP: "dh01"
 72 534 293 707 645 707 c 258
 891 707 l 257
NamedP: "dv04"
 903 768 l 257
 906 787 l 258
 907 794 907 801 907 804 c 256
 907 880 880 919 844 946 c 256
 805 974 748 991 665 991 c 256
NamedP: "sv01"
 608 991 546 983 479 966 c 256
 411 949 343 924 268 889 c 257
NamedP: "sh01"
 303 1069 l 257
 446 1122 577 1147 693 1147 c 256
NamedP: "at01"
 816 1147 916 1121 985 1065 c 256
 1050 1013 1087 935 1087 839 c 256
 1087 817 1085 789 1081 754 c 256
 1076 711 1070 676 1063 639 c 257
 938 0 l 257
NamedP: "ab01"
 774 0 l 257
 786 166 l 257
NamedP: "iv01"
 738 103 681 55 616 22 c 256
 549 -13 483 -29 407 -29 c 256
NamedP: "dv01"
461 125 m 256
NamedP: "dv02"
 557 125 640 161 711 232 c 256
 786 307 833 407 856 522 c 258
 864 563 l 257
NamedP: "dv03"
 692 563 l 258
 529 563 475 554 414 530 c 256
 379 515 338 493 305 442 c 256
 278 401 264 356 264 307 c 256
NamedP: "dh02"
 264 243 288 201 316 174 c 256
 348 143 394 125 461 125 c 256
NamedP: "dv02"
EndSplineSet
PickledDataWithLists: "(dp1
S'com.schriftgestaltung.Glyphs.lastChange'
p2
S'2017-07-11 17:15:08 +0000'
p3
s."
Substitution2: "Single Substitution lookup 14 subtable" ordfeminine
Substitution2: "Single Substitution lookup 11 subtable" ordfeminine
EndChar

StartChar: aacute
Encoding: 155 225 155
GlifName: aacute
Width: 1233
VWidth: 0
Flags: W
LayerCount: 2
Fore
SplineSet
911 1673 m 257
NamedP: "av01"
 1130 1673 l 257
 735 1297 l 257
 579 1297 l 257
NamedP: "iv01"
 911 1673 l 257
NamedP: "av01"
407 -29 m 256
NamedP: "dv01"
 308 -29 225 -2 164 54 c 256
 100 111 72 188 72 280 c 256
NamedP: "dh01"
 72 534 293 707 645 707 c 258
 891 707 l 257
NamedP: "dv04"
 903 768 l 257
 906 787 l 258
 907 794 907 801 907 804 c 256
 907 880 880 919 844 946 c 256
 805 974 748 991 665 991 c 256
NamedP: "hr01"
 608 991 546 983 479 966 c 256
 411 949 343 924 268 889 c 257
NamedP: "sh01"
 303 1069 l 257
 446 1122 577 1147 693 1147 c 256
NamedP: "at01"
 816 1147 916 1121 985 1065 c 256
 1050 1013 1087 935 1087 839 c 256
 1087 817 1085 789 1081 754 c 256
 1076 711 1070 676 1063 639 c 257
 938 0 l 257
NamedP: "ab01"
 774 0 l 257
 786 166 l 257
NamedP: "iv02"
 738 103 681 55 616 22 c 256
 549 -13 483 -29 407 -29 c 256
NamedP: "dv01"
461 125 m 256
NamedP: "dv02"
 557 125 640 161 711 232 c 256
 786 307 833 407 856 522 c 258
 864 563 l 257
NamedP: "dv03"
 692 563 l 258
 529 563 475 554 414 530 c 256
 379 515 338 493 305 442 c 256
NamedP: "hr02"
 278 401 264 356 264 307 c 256
NamedP: "dh02"
 264 243 288 201 316 174 c 256
 348 143 394 125 461 125 c 256
NamedP: "dv02"
EndSplineSet
PickledDataWithLists: "(dp1
S'com.schriftgestaltung.Glyphs.lastChange'
p2
S'2017-07-11 17:15:08 +0000'
p3
s."
EndChar

StartChar: abreve
Encoding: 156 259 156
GlifName: abreve
Width: 1233
VWidth: 0
Flags: W
LayerCount: 2
Fore
SplineSet
747 1297 m 256
NamedP: "dv01"
 568 1297 469 1386 469 1543 c 256
NamedP: "dh01"
 469 1566 469 1573 472 1584 c 257
 592 1584 l 257
NamedP: "sv01"
 592 1567 l 258
NamedP: "dh02"
 592 1479 652 1434 761 1434 c 256
NamedP: "dv02"
 874 1434 940 1484 979 1584 c 257
NamedP: "sv02"
 1098 1584 l 257
NamedP: "sh01"
 1054 1392 932 1297 747 1297 c 256
NamedP: "dv01"
404 -29 m 256
NamedP: "sv04"
 203 -29 72 90 72 283 c 256
NamedP: "hr01"
 72 534 293 707 645 707 c 258
 891 707 l 257
NamedP: "dv04"
 903 768 l 258
 906 780 907 794 907 807 c 256
NamedP: "dh03"
 907 932 821 991 665 991 c 256
NamedP: "sv05"
 548 991 416 957 268 889 c 257
NamedP: "sh02"
 303 1069 l 257
 448 1121 574 1147 693 1147 c 256
NamedP: "at01"
 942 1147 1087 1030 1087 839 c 256
NamedP: "dh04"
 1087 794 1079 723 1063 639 c 258
 938 0 l 257
NamedP: "ab01"
 774 0 l 257
 786 166 l 257
NamedP: "hr02"
 690 42 561 -29 404 -29 c 256
NamedP: "sv04"
461 125 m 256
NamedP: "sv03"
 640 125 805 269 856 522 c 258
 864 563 l 257
NamedP: "dv03"
 692 563 l 258
NamedP: "hr03"
 542 563 472 555 414 530 c 256
 323 491 264 411 264 307 c 256
NamedP: "hr04"
 264 195 334 125 461 125 c 256
NamedP: "sv03"
EndSplineSet
PickledDataWithLists: "(dp1
S'com.schriftgestaltung.Glyphs.lastChange'
p2
S'2017-07-11 17:15:08 +0000'
p3
s."
EndChar

StartChar: acircumflex
Encoding: 157 226 157
GlifName: acircumflex
Width: 1233
VWidth: 0
Flags: W
LayerCount: 2
Fore
SplineSet
721 1673 m 257
NamedP: "av01"
 868 1673 l 257
 1032 1297 l 257
NamedP: "iv01"
 899 1297 l 257
 782 1538 l 257
NamedP: "iv02"
 557 1297 l 257
 401 1297 l 257
NamedP: "iv03"
 721 1673 l 257
NamedP: "av01"
407 -29 m 256
NamedP: "dv01"
 308 -29 225 -2 164 54 c 256
 100 111 72 188 72 280 c 256
NamedP: "dh01"
 72 534 293 707 645 707 c 258
 891 707 l 257
NamedP: "dv04"
 903 768 l 257
 906 787 l 258
NamedP: "hr01"
 907 794 907 801 907 804 c 256
 907 880 880 919 844 946 c 256
 805 974 748 991 665 991 c 256
NamedP: "sv01"
 608 991 546 983 479 966 c 256
 411 949 343 924 268 889 c 257
NamedP: "sh01"
 303 1069 l 257
 446 1122 577 1147 693 1147 c 256
NamedP: "at01"
 816 1147 916 1121 985 1065 c 256
 1050 1013 1087 935 1087 839 c 256
 1087 817 1085 789 1081 754 c 256
 1076 711 1070 676 1063 639 c 257
 938 0 l 257
NamedP: "ab01"
 774 0 l 257
 786 166 l 257
NamedP: "iv04"
 738 103 681 55 616 22 c 256
 549 -13 483 -29 407 -29 c 256
NamedP: "dv01"
461 125 m 256
NamedP: "dv02"
 557 125 640 161 711 232 c 256
 786 307 833 407 856 522 c 258
 864 563 l 257
NamedP: "dv03"
 692 563 l 258
NamedP: "hr02"
 529 563 475 554 414 530 c 256
 379 515 338 493 305 442 c 256
 278 401 264 356 264 307 c 256
NamedP: "dh02"
 264 243 288 201 316 174 c 256
 348 143 394 125 461 125 c 256
NamedP: "dv02"
EndSplineSet
PickledDataWithLists: "(dp1
S'com.schriftgestaltung.Glyphs.lastChange'
p2
S'2017-07-11 17:15:08 +0000'
p3
s."
EndChar

StartChar: acute
Encoding: 158 180 158
GlifName: acute
Width: 1233
VWidth: 0
Flags: W
LayerCount: 2
Fore
SplineSet
907 1638 m 257
NamedP: "hr00"
 1126 1638 l 257
 731 1262 l 257
NamedP: "av01"
 575 1262 l 257
 907 1638 l 257
NamedP: "hr00"
EndSplineSet
PickledDataWithLists: "(dp1
S'com.schriftgestaltung.Glyphs.lastChange'
p2
S'2017-07-11 17:15:08 +0000'
p3
s."
EndChar

StartChar: acutecomb
Encoding: 159 769 159
GlifName: acutecomb
Width: 0
VWidth: 0
Flags: W
LayerCount: 2
Fore
SplineSet
-326 1638 m 257
NamedP: "hr00"
 -107 1638 l 257
 -502 1262 l 257
NamedP: "av01"
 -658 1262 l 257
 -326 1638 l 257
NamedP: "hr00"
EndSplineSet
PickledDataWithLists: "(dp1
S'com.schriftgestaltung.Glyphs.lastChange'
p2
S'2017-07-11 17:15:08 +0000'
p3
s."
EndChar

StartChar: adieresis
Encoding: 160 228 160
GlifName: adieresis
Width: 1233
VWidth: 0
Flags: W
LayerCount: 2
Fore
SplineSet
473 1350 m 258
NamedP: "dv03"
 453 1350 442 1363 446 1383 c 258
 474 1525 l 257
 477 1543 487 1552 506 1552 c 258
NamedP: "dv04"
 649 1552 l 258
 669 1552 680 1539 676 1519 c 258
 648 1377 l 258
 645 1359 634 1350 616 1350 c 258
 473 1350 l 258
NamedP: "dv03"
864 1350 m 258
NamedP: "sv01"
 844 1350 833 1363 837 1383 c 258
 865 1525 l 257
 868 1543 878 1552 897 1552 c 258
NamedP: "sv02"
 1040 1552 l 258
 1060 1552 1071 1539 1067 1519 c 258
 1039 1377 l 258
NamedP: "hr01"
 1036 1359 1025 1350 1007 1350 c 258
 864 1350 l 258
NamedP: "sv01"
407 -29 m 256
NamedP: "dv01"
 308 -29 225 -2 164 54 c 256
 100 111 72 188 72 280 c 256
NamedP: "dh01"
 72 534 293 707 645 707 c 258
 891 707 l 257
NamedP: "dv06"
 903 768 l 257
 906 787 l 258
 907 794 907 803 907 806 c 256
 907 870 886 917 845 946 c 256
 806 974 744 991 663 991 c 256
NamedP: "sv03"
 607 991 546 983 479 966 c 256
 411 949 343 924 268 889 c 257
NamedP: "sh01"
 303 1069 l 257
 446 1122 577 1147 693 1147 c 256
NamedP: "at01"
 816 1147 916 1121 985 1065 c 256
 1050 1013 1087 935 1087 839 c 256
 1087 817 1085 789 1081 754 c 256
 1076 711 1070 676 1063 639 c 257
NamedP: "hr02"
 938 0 l 257
NamedP: "ab01"
 774 0 l 257
 786 166 l 257
NamedP: "iv01"
 738 103 681 55 616 22 c 256
 549 -13 483 -29 407 -29 c 256
NamedP: "dv01"
461 125 m 256
NamedP: "dv02"
 557 125 640 161 711 232 c 256
 786 307 833 407 856 522 c 258
 864 563 l 257
NamedP: "dv05"
 692 563 l 258
 529 563 475 554 414 530 c 256
 379 515 338 493 305 442 c 256
 278 401 264 356 264 307 c 256
NamedP: "dh02"
 264 243 288 201 316 174 c 256
 348 143 394 125 461 125 c 256
NamedP: "dv02"
EndSplineSet
PickledDataWithLists: "(dp1
S'com.schriftgestaltung.Glyphs.lastChange'
p2
S'2017-07-11 17:15:08 +0000'
p3
s."
EndChar

StartChar: ae
Encoding: 161 230 161
GlifName: ae
Width: 1233
VWidth: 0
Flags: W
LayerCount: 2
Fore
SplineSet
234 -29 m 256
NamedP: "hr00"
 143 -29 72 0 28 43 c 257
 -27 94 -47 168 -47 252 c 256
NamedP: "sh01"
 -47 368 -7 476 74 549 c 256
 154 621 269 657 418 657 c 258
NamedP: "sv01"
 535 657 l 257
 553 745 l 258
 557 764 558 770 559 787 c 256
 560 802 561 817 561 832 c 256
 561 888 546 926 519 953 c 256
 494 978 453 995 400 995 c 256
NamedP: "sv02"
 364 995 324 987 284 974 c 256
 241 959 190 938 141 911 c 257
NamedP: "ih01"
 176 1079 l 257
 235 1104 279 1119 324 1130 c 256
 371 1141 411 1147 450 1147 c 256
NamedP: "at01"
 504 1147 551 1136 590 1114 c 256
 629 1092 659 1060 680 1018 c 257
NamedP: "ih02"
 711 1057 753 1091 800 1114 c 256
 848 1137 901 1147 950 1147 c 256
NamedP: "at02"
 1029 1147 1095 1122 1143 1070 c 256
 1190 1019 1214 947 1214 867 c 256
NamedP: "sh02"
 1214 839 1211 799 1206 760 c 257
NamedP: "sh03"
 1201 730 1188 651 1180 604 c 257
 1163 514 l 257
NamedP: "dv03"
 668 514 l 257
 652 438 646 403 641 368 c 256
 636 331 633 308 633 285 c 256
 633 230 651 190 682 163 c 256
 715 134 759 119 815 119 c 256
NamedP: "dv02"
 861 119 908 129 957 148 c 256
 1004 167 1045 193 1081 227 c 257
NamedP: "ih03"
 1047 55 l 257
NamedP: "sh04"
 1010 28 962 5 922 -8 c 256
 879 -22 833 -29 785 -29 c 256
NamedP: "dv01"
 642 -29 546 29 514 131 c 257
NamedP: "ih04"
 483 78 444 38 397 11 c 256
 350 -16 294 -29 234 -29 c 256
NamedP: "hr00"
1024 657 m 257
NamedP: "dv04"
 1040 731 l 258
NamedP: "sh05"
 1045 754 1048 774 1049 786 c 256
NamedP: "sh06"
 1050 801 1051 829 1051 844 c 256
NamedP: "ah01"
 1051 896 1039 932 1016 957 c 256
 994 982 963 995 922 995 c 257
NamedP: "sv03"
 823 1001 737 905 711 739 c 257
 694 657 l 257
 1024 657 l 257
NamedP: "dv04"
267 123 m 256
NamedP: "sv04"
 322 123 367 146 401 191 c 256
 436 239 460 311 487 442 c 258
 502 514 l 257
NamedP: "sv05"
 453 514 l 258
 364 514 316 510 276 498 c 256
 235 486 211 471 188 444 c 256
 164 417 152 393 141 362 c 256
 129 328 123 296 123 267 c 256
NamedP: "sh07"
 123 231 133 191 161 162 c 256
 190 133 230 123 267 123 c 256
NamedP: "sv04"
EndSplineSet
PickledDataWithLists: "(dp1
S'com.schriftgestaltung.Glyphs.lastChange'
p2
S'2017-07-11 17:15:08 +0000'
p3
s."
EndChar

StartChar: agrave
Encoding: 162 224 162
GlifName: agrave
Width: 1233
VWidth: 0
Flags: W
LayerCount: 2
Fore
SplineSet
457 1673 m 257
NamedP: "av01"
 655 1673 l 257
 852 1297 l 257
NamedP: "iv01"
 709 1297 l 257
 457 1673 l 257
NamedP: "av01"
407 -29 m 256
NamedP: "dv01"
 308 -29 225 -2 164 54 c 256
 100 111 72 188 72 280 c 256
NamedP: "dh01"
 72 534 293 707 645 707 c 258
 891 707 l 257
NamedP: "dv04"
 903 768 l 257
 906 787 l 258
 907 794 907 801 907 804 c 256
 907 880 880 919 844 946 c 256
 805 974 748 991 665 991 c 256
NamedP: "hr01"
 608 991 546 983 479 966 c 256
 411 949 343 924 268 889 c 257
NamedP: "sh01"
 303 1069 l 257
 446 1122 577 1147 693 1147 c 256
NamedP: "at01"
 816 1147 916 1121 985 1065 c 256
 1050 1013 1087 935 1087 839 c 256
 1087 817 1085 789 1081 754 c 256
 1076 711 1070 676 1063 639 c 257
 938 0 l 257
NamedP: "ab01"
 774 0 l 257
 786 166 l 257
NamedP: "iv02"
 738 103 681 55 616 22 c 256
 549 -13 483 -29 407 -29 c 256
NamedP: "dv01"
461 125 m 256
NamedP: "dv02"
 557 125 640 161 711 232 c 256
 786 307 833 407 856 522 c 258
 864 563 l 257
NamedP: "dv03"
 692 563 l 258
 529 563 475 554 414 530 c 256
 379 515 338 493 305 442 c 256
NamedP: "hr02"
 278 401 264 356 264 307 c 256
NamedP: "dh02"
 264 243 288 201 316 174 c 256
 348 143 394 125 461 125 c 256
NamedP: "dv02"
EndSplineSet
PickledDataWithLists: "(dp1
S'com.schriftgestaltung.Glyphs.lastChange'
p2
S'2017-07-11 17:15:08 +0000'
p3
s."
EndChar

StartChar: alpha
Encoding: 163 945 163
GlifName: alpha
Width: 1233
VWidth: 0
Flags: W
LayerCount: 2
Fore
SplineSet
396 -25 m 256
NamedP: "ab01"
 176 -25 49 112 49 367 c 256
NamedP: "sh01"
 49 425 56 489 70 559 c 256
 150 959 391 1138 620 1146 c 257
NamedP: "at02"
 637 1146 l 258
 819 1146 926 1030 921 827 c 257
NamedP: "sh03"
 1077 1120 l 257
NamedP: "at01"
 1241 1120 l 257
NamedP: "iv01"
 918 513 l 257
 915 294 l 257
NamedP: "sh02"
 915 230 961 156 1005 156 c 258
NamedP: "sv02"
 1094 156 l 257
 1064 0 l 257
NamedP: "hr01"
 953 0 l 258
 890 0 826 33 791 84 c 256
 770 113 759 151 758 214 c 257
NamedP: "sh04"
 678 86 585 -25 396 -25 c 256
NamedP: "ab01"
421 127 m 256
NamedP: "sv03"
 501 127 583 192 662 340 c 258
 758 521 l 257
 759 752 l 257
NamedP: "ah01"
 759 925 690 991 606 991 c 256
NamedP: "sv01"
 537 991 459 947 403 879 c 256
NamedP: "hr02"
 318 779 245 567 245 396 c 256
NamedP: "sh05"
 245 336 254 279 275 234 c 256
 306 167 358 127 421 127 c 256
NamedP: "sv03"
EndSplineSet
PickledDataWithLists: "(dp1
S'com.schriftgestaltung.Glyphs.lastChange'
p2
S'2017-07-11 17:15:08 +0000'
p3
s."
EndChar

StartChar: alphatonos
Encoding: 164 940 164
GlifName: alphatonos
Width: 1233
VWidth: 0
Flags: W
LayerCount: 2
Fore
SplineSet
917 1673 m 257
NamedP: "sh02"
 1136 1673 l 257
 741 1297 l 257
 585 1297 l 257
NamedP: "ih01"
 917 1673 l 257
NamedP: "sh02"
396 -25 m 256
NamedP: "ab01"
 176 -25 49 112 49 367 c 256
NamedP: "sh03"
 49 425 56 489 70 559 c 256
 150 959 391 1138 620 1146 c 257
NamedP: "at02"
 637 1146 l 258
 819 1146 926 1030 921 827 c 257
NamedP: "sh04"
 1077 1120 l 257
NamedP: "at01"
 1241 1120 l 257
NamedP: "iv01"
 918 513 l 257
NamedP: "hr01"
 915 294 l 257
NamedP: "sh01"
 915 230 961 156 1005 156 c 258
NamedP: "sv02"
 1094 156 l 257
 1064 0 l 257
NamedP: "ab02"
 953 0 l 258
 890 0 826 33 791 84 c 256
 770 113 759 151 758 214 c 257
NamedP: "sh05"
 678 86 585 -25 396 -25 c 256
NamedP: "ab01"
421 127 m 256
NamedP: "sv03"
 501 127 583 192 662 340 c 258
NamedP: "hr02"
 758 521 l 257
 759 752 l 257
NamedP: "ah01"
 759 925 690 991 606 991 c 256
NamedP: "sv01"
 537 991 459 947 403 879 c 256
 318 779 245 567 245 396 c 256
NamedP: "sh06"
 245 336 254 279 275 234 c 256
 306 167 358 127 421 127 c 256
NamedP: "sv03"
EndSplineSet
PickledDataWithLists: "(dp1
S'com.schriftgestaltung.Glyphs.lastChange'
p2
S'2017-07-11 17:15:08 +0000'
p3
s."
EndChar

StartChar: amacron
Encoding: 165 257 165
GlifName: amacron
Width: 1233
VWidth: 0
Flags: W
LayerCount: 2
Fore
SplineSet
469 1495 m 257
NamedP: "at01"
 1067 1495 l 257
 1038 1347 l 257
NamedP: "sv01"
 440 1347 l 257
 469 1495 l 257
NamedP: "at01"
404 -29 m 256
NamedP: "sv03"
 203 -29 72 90 72 283 c 256
NamedP: "sh01"
 72 534 293 707 645 707 c 258
 891 707 l 257
NamedP: "dv02"
 903 768 l 258
NamedP: "sh02"
 906 780 907 794 907 807 c 256
NamedP: "hr01"
 907 932 821 991 665 991 c 256
NamedP: "sv04"
 548 991 416 957 268 889 c 257
NamedP: "sh04"
 303 1069 l 257
 448 1121 574 1147 693 1147 c 256
NamedP: "at02"
 942 1147 1087 1030 1087 839 c 256
NamedP: "sh05"
 1087 794 1079 723 1063 639 c 258
 938 0 l 257
NamedP: "ab01"
 774 0 l 257
 786 166 l 257
NamedP: "ih01"
 690 42 561 -29 404 -29 c 256
NamedP: "sv03"
461 125 m 256
NamedP: "sv02"
 640 125 805 269 856 522 c 258
 864 563 l 257
NamedP: "dv01"
 692 563 l 258
NamedP: "hr02"
 542 563 472 555 414 530 c 256
 323 491 264 411 264 307 c 256
NamedP: "sh03"
 264 195 334 125 461 125 c 256
NamedP: "sv02"
EndSplineSet
PickledDataWithLists: "(dp1
S'com.schriftgestaltung.Glyphs.lastChange'
p2
S'2017-07-11 17:15:08 +0000'
p3
s."
EndChar

StartChar: ampersand
Encoding: 166 38 166
GlifName: ampersand
Width: 1233
VWidth: 0
Flags: W
LayerCount: 2
Fore
SplineSet
408 -29 m 256
NamedP: "dv01"
 283 -29 173 7 96 78 c 256
 20 146 -20 242 -20 362 c 256
NamedP: "sh01"
 -20 584 116 781 367 920 c 257
 344 963 335 989 324 1026 c 256
 315 1061 309 1092 309 1135 c 256
NamedP: "ah01"
 309 1247 349 1345 432 1416 c 256
 512 1484 626 1520 761 1520 c 256
NamedP: "at01"
 805 1520 848 1516 889 1508 c 256
NamedP: "at02"
 929 1500 969 1488 1008 1473 c 257
 973 1290 l 257
NamedP: "hr01"
 945 1315 911 1334 870 1347 c 256
 829 1360 782 1366 738 1366 c 256
NamedP: "sv01"
 658 1366 596 1347 551 1309 c 256
 506 1270 483 1217 483 1157 c 256
NamedP: "sh02"
 483 1126 489 1092 505 1045 c 256
 520 1002 536 962 567 907 c 258
 874 350 l 257
NamedP: "iv01"
 915 394 948 450 973 519 c 256
 998 588 1014 665 1022 760 c 257
 1190 760 l 257
 1179 647 1155 550 1112 458 c 256
 1071 368 1015 289 944 221 c 257
 1067 0 l 257
NamedP: "ab01"
 868 0 l 257
 809 113 l 257
 744 65 686 32 614 7 c 256
NamedP: "ab02"
 547 -17 478 -29 408 -29 c 256
NamedP: "dv01"
456 129 m 256
NamedP: "dv02"
 504 129 548 139 597 158 c 256
 644 177 690 201 741 240 c 257
 432 795 l 257
 342 746 274 689 228 624 c 256
 181 557 158 483 158 411 c 256
NamedP: "sh03"
 158 324 191 257 243 209 c 256
 298 158 372 129 456 129 c 256
NamedP: "dv02"
EndSplineSet
PickledDataWithLists: "(dp1
S'com.schriftgestaltung.Glyphs.lastChange'
p2
S'2017-07-11 17:15:08 +0000'
p3
s."
EndChar

StartChar: angle
Encoding: 167 8736 167
GlifName: angle
Width: 1233
VWidth: 0
Flags: W
LayerCount: 2
Fore
SplineSet
918 1269 m 257
NamedP: "hr00"
 1088 1269 l 257
 432 457 l 257
 1108 457 l 257
NamedP: "dv02"
 1108 287 l 257
NamedP: "dv01"
 126 287 l 257
 918 1269 l 257
NamedP: "hr00"
EndSplineSet
PickledDataWithLists: "(dp1
S'com.schriftgestaltung.Glyphs.lastChange'
p2
S'2017-07-11 17:15:08 +0000'
p3
s."
EndChar

StartChar: aogonek
Encoding: 168 261 168
GlifName: aogonek
Width: 1233
VWidth: 0
Flags: W
LayerCount: 2
Fore
SplineSet
868 0 m 257
NamedP: "ab01"
 787 -77 743 -144 743 -200 c 256
NamedP: "dh04"
 743 -247 775 -272 839 -272 c 256
NamedP: "dv02"
 878 -272 923 -262 966 -242 c 257
NamedP: "ih01"
 941 -375 l 257
 895 -388 849 -395 802 -395 c 256
NamedP: "dv01"
 671 -395 597 -338 597 -245 c 256
NamedP: "dh03"
 597 -170 645 -93 749 0 c 257
NamedP: "hr01"
 754 0 l 257
NamedP: "sh01"
 786 166 l 257
NamedP: "iv01"
 690 42 561 -29 404 -29 c 256
NamedP: "dv03"
 203 -29 72 90 72 283 c 256
NamedP: "dh01"
 72 534 293 707 645 707 c 258
 891 707 l 257
NamedP: "dv06"
 903 768 l 258
 906 780 907 794 907 807 c 256
NamedP: "dh05"
 907 932 821 991 665 991 c 256
NamedP: "sv01"
 548 991 416 957 268 889 c 257
NamedP: "sh02"
 303 1069 l 257
 448 1121 574 1147 693 1147 c 256
NamedP: "hr02"
 942 1147 1087 1030 1087 839 c 256
NamedP: "dh06"
 1087 794 1079 723 1063 639 c 258
NamedP: "hr03"
 938 0 l 257
 868 0 l 257
NamedP: "ab01"
461 125 m 256
NamedP: "dv04"
 640 125 805 269 856 522 c 258
 864 563 l 257
NamedP: "dv05"
 692 563 l 258
 542 563 472 555 414 530 c 256
 323 491 264 411 264 307 c 256
NamedP: "dh02"
 264 195 334 125 461 125 c 256
NamedP: "dv04"
EndSplineSet
PickledDataWithLists: "(dp1
S'com.schriftgestaltung.Glyphs.lastChange'
p2
S'2017-07-11 17:15:08 +0000'
p3
s."
EndChar

StartChar: approxequal
Encoding: 169 8776 169
GlifName: approxequal
Width: 1233
VWidth: 0
Flags: W
LayerCount: 2
Fore
SplineSet
88 848 m 257
NamedP: "hr00"
 140 888 194 919 239 936 c 256
 287 955 335 963 407 963 c 256
NamedP: "hr01"
 430 963 448 962 498 951 c 256
 544 940 564 933 623 909 c 256
 647 898 634 905 655 894 c 256
 718 863 798 840 866 840 c 256
NamedP: "hr02"
 911 840 957 850 1003 870 c 256
 1046 889 1098 923 1145 963 c 257
 1145 788 l 257
NamedP: "hr03"
 1095 749 1046 721 999 702 c 256
 955 685 907 674 850 674 c 256
NamedP: "hr04"
 770 674 714 696 645 725 c 257
 614 736 615 739 612 739 c 257
 561 762 519 777 484 785 c 256
 449 793 415 797 382 797 c 256
NamedP: "hr05"
 327 797 275 787 232 768 c 256
NamedP: "hr06"
 187 749 137 717 88 674 c 257
 88 848 l 257
NamedP: "hr00"
88 479 m 257
 141 520 195 552 240 569 c 256
 283 585 337 596 392 596 c 256
NamedP: "hr07"
 459 596 535 578 621 541 c 257
 622 541 l 257
 655 526 l 258
 735 490 794 471 862 471 c 256
NamedP: "hr08"
 917 471 958 483 1001 502 c 256
 1046 522 1089 549 1145 596 c 257
 1145 420 l 257
NamedP: "hr09"
 1094 381 1044 352 999 333 c 256
 951 314 899 305 851 305 c 256
NamedP: "hr10"
 786 305 721 321 645 356 c 258
 612 371 l 258
 572 389 512 411 480 419 c 256
 455 426 414 430 379 430 c 256
NamedP: "hr11"
 328 430 280 420 233 400 c 256
NamedP: "hr12"
 186 380 137 348 88 305 c 257
 88 479 l 257
EndSplineSet
PickledDataWithLists: "(dp1
S'com.schriftgestaltung.Glyphs.lastChange'
p2
S'2017-07-11 17:15:08 +0000'
p3
s."
EndChar

StartChar: aring
Encoding: 170 229 170
GlifName: aring
Width: 1233
VWidth: 0
Flags: W
LayerCount: 2
Fore
SplineSet
782 1321 m 256
NamedP: "dv05"
 706 1321 641 1348 588 1401 c 256
 535 1454 508 1519 508 1595 c 256
NamedP: "dh03"
 508 1672 535 1738 588 1791 c 256
 641 1844 705 1870 782 1870 c 256
NamedP: "dv04"
 859 1870 924 1844 977 1791 c 256
 1030 1738 1057 1672 1057 1595 c 256
 1057 1519 1030 1454 977 1401 c 256
 924 1348 859 1321 782 1321 c 256
NamedP: "dv05"
782 1444 m 256
NamedP: "dv06"
 867 1444 934 1511 934 1595 c 256
 934 1680 867 1747 782 1747 c 256
NamedP: "dv03"
 739 1747 704 1733 675 1704 c 256
 646 1675 631 1638 631 1595 c 256
NamedP: "hr01"
 631 1511 698 1444 782 1444 c 256
NamedP: "dv06"
407 -29 m 256
NamedP: "dv01"
 308 -29 225 -2 164 54 c 256
 100 111 72 188 72 280 c 256
NamedP: "dh01"
 72 534 293 707 645 707 c 258
 891 707 l 257
NamedP: "dv08"
 903 768 l 257
 906 787 l 258
 907 794 907 801 907 804 c 256
 907 880 880 919 844 946 c 256
 805 974 748 991 665 991 c 256
NamedP: "sv01"
 608 991 546 983 479 966 c 256
 411 949 343 924 268 889 c 257
NamedP: "sh01"
 303 1069 l 257
 446 1122 577 1147 693 1147 c 256
NamedP: "at01"
 816 1147 916 1121 985 1065 c 256
 1050 1013 1087 935 1087 839 c 256
 1087 817 1085 789 1081 754 c 256
 1076 711 1070 676 1063 639 c 257
NamedP: "hr02"
 938 0 l 257
NamedP: "ab01"
 774 0 l 257
 786 166 l 257
NamedP: "iv01"
 738 103 681 55 616 22 c 256
 549 -13 483 -29 407 -29 c 256
NamedP: "dv01"
461 125 m 256
NamedP: "dv02"
 557 125 640 161 711 232 c 256
 786 307 833 407 856 522 c 258
 864 563 l 257
NamedP: "dv07"
 692 563 l 258
 529 563 475 554 414 530 c 256
 379 515 338 493 305 442 c 256
 278 401 264 356 264 307 c 256
NamedP: "dh02"
 264 243 288 201 316 174 c 256
 348 143 394 125 461 125 c 256
NamedP: "dv02"
EndSplineSet
PickledDataWithLists: "(dp1
S'com.schriftgestaltung.Glyphs.lastChange'
p2
S'2017-07-11 17:15:08 +0000'
p3
s."
EndChar

StartChar: arrowboth
Encoding: 171 8596 171
GlifName: arrowboth
Width: 1233
VWidth: 0
Flags: W
LayerCount: 2
Fore
SplineSet
66 520 m 257
NamedP: "hr00"
 66 602 l 257
 357 893 l 257
NamedP: "av03"
 447 803 l 257
 287 643 l 257
 946 643 l 257
NamedP: "dv02"
 786 803 l 257
 876 893 l 257
NamedP: "av04"
 1167 602 l 257
 1167 520 l 257
 876 229 l 257
NamedP: "av01"
 786 319 l 257
 946 479 l 257
NamedP: "dv01"
 287 479 l 257
 447 319 l 257
 357 229 l 257
NamedP: "av02"
 66 520 l 257
NamedP: "hr00"
EndSplineSet
PickledDataWithLists: "(dp1
S'com.schriftgestaltung.Glyphs.lastChange'
p2
S'2017-07-11 17:15:08 +0000'
p3
s."
EndChar

StartChar: arrowdblboth
Encoding: 172 8660 172
GlifName: arrowdblboth
Width: 1233
VWidth: 0
Flags: W
LayerCount: 2
Fore
SplineSet
66 520 m 257
NamedP: "hr00"
 66 602 l 257
 357 893 l 257
NamedP: "av03"
 447 803 l 257
 369 725 l 257
 864 725 l 257
NamedP: "dv04"
 786 803 l 257
 876 893 l 257
NamedP: "av04"
 1167 602 l 257
 1167 520 l 257
 876 229 l 257
NamedP: "av01"
 786 319 l 257
 864 397 l 257
NamedP: "dv01"
 369 397 l 257
 447 319 l 257
 357 229 l 257
NamedP: "av02"
 66 520 l 257
NamedP: "hr00"
946 479 m 257
NamedP: "dv02"
 1028 561 l 257
 946 643 l 257
NamedP: "dv03"
 287 643 l 257
 205 561 l 257
 287 479 l 257
 946 479 l 257
NamedP: "dv02"
EndSplineSet
PickledDataWithLists: "(dp1
S'com.schriftgestaltung.Glyphs.lastChange'
p2
S'2017-07-11 17:15:08 +0000'
p3
s."
EndChar

StartChar: arrowdbldown
Encoding: 173 8659 173
GlifName: arrowdbldown
Width: 1233
VWidth: 0
Flags: W
LayerCount: 2
Fore
SplineSet
284 291 m 257
NamedP: "hr00"
 374 381 l 257
 452 303 l 257
NamedP: "sh01"
 452 1101 l 257
NamedP: "av01"
 534 1101 l 257
 534 221 l 257
NamedP: "sh02"
 616 139 l 257
 699 221 l 257
 698 1101 l 257
NamedP: "ah01"
 780 1101 l 257
NamedP: "sh03"
 780 303 l 257
NamedP: "iv01"
 858 381 l 257
 948 291 l 257
 658 0 l 257
NamedP: "ab01"
 576 0 l 257
 284 291 l 257
NamedP: "hr00"
EndSplineSet
PickledDataWithLists: "(dp1
S'com.schriftgestaltung.Glyphs.lastChange'
p2
S'2017-07-11 17:15:08 +0000'
p3
s."
EndChar

StartChar: arrowdblleft
Encoding: 174 8656 174
GlifName: arrowdblleft
Width: 1233
VWidth: 0
Flags: W
LayerCount: 2
Fore
SplineSet
66 520 m 257
NamedP: "hr00"
 66 602 l 257
 357 893 l 257
NamedP: "av02"
 447 803 l 257
 369 725 l 257
 1167 725 l 257
NamedP: "dv04"
 1167 643 l 257
NamedP: "dv03"
 287 643 l 257
 205 561 l 257
 287 479 l 257
 1167 479 l 257
NamedP: "dv02"
 1167 397 l 257
NamedP: "dv01"
 369 397 l 257
 447 319 l 257
 357 229 l 257
NamedP: "av01"
 66 520 l 257
NamedP: "hr00"
EndSplineSet
PickledDataWithLists: "(dp1
S'com.schriftgestaltung.Glyphs.lastChange'
p2
S'2017-07-11 17:15:08 +0000'
p3
s."
EndChar

StartChar: arrowdblright
Encoding: 175 8658 175
GlifName: arrowdblright
Width: 1233
VWidth: 0
Flags: W
LayerCount: 2
Fore
SplineSet
786 319 m 257
NamedP: "hr00"
 864 397 l 257
NamedP: "dv01"
 66 397 l 257
 66 479 l 257
 946 479 l 257
NamedP: "dv02"
 1028 561 l 257
 946 643 l 257
NamedP: "dv03"
 66 643 l 257
 66 725 l 257
 864 725 l 257
NamedP: "dv04"
 786 803 l 257
 876 893 l 257
NamedP: "av02"
 1167 602 l 257
 1167 520 l 257
 876 229 l 257
NamedP: "av01"
 786 319 l 257
NamedP: "hr00"
EndSplineSet
PickledDataWithLists: "(dp1
S'com.schriftgestaltung.Glyphs.lastChange'
p2
S'2017-07-11 17:15:08 +0000'
p3
s."
EndChar

StartChar: arrowdblup
Encoding: 176 8657 176
GlifName: arrowdblup
Width: 1233
VWidth: 0
Flags: W
LayerCount: 2
Fore
SplineSet
452 798 m 257
NamedP: "hr00"
 374 720 l 257
 284 810 l 257
 576 1101 l 257
NamedP: "av01"
 658 1101 l 257
 948 810 l 257
 858 720 l 257
 780 798 l 257
NamedP: "iv01"
 780 0 l 257
NamedP: "sh01"
 698 0 l 257
NamedP: "ah01"
 699 880 l 257
 616 962 l 257
 534 880 l 257
NamedP: "sh02"
 534 0 l 257
NamedP: "ab01"
 452 0 l 257
 452 798 l 257
NamedP: "hr00"
EndSplineSet
PickledDataWithLists: "(dp1
S'com.schriftgestaltung.Glyphs.lastChange'
p2
S'2017-07-11 17:15:08 +0000'
p3
s."
EndChar

StartChar: arrowdown
Encoding: 177 8595 177
GlifName: arrowdown
Width: 1233
VWidth: 0
Flags: W
LayerCount: 2
Fore
SplineSet
284 291 m 257
NamedP: "hr00"
 374 381 l 257
 534 221 l 257
NamedP: "dh01"
 534 1101 l 257
NamedP: "av01"
 698 1101 l 257
 698 221 l 257
NamedP: "dh02"
 858 381 l 257
 948 291 l 257
 658 0 l 257
NamedP: "ab01"
 576 0 l 257
 284 291 l 257
NamedP: "hr00"
EndSplineSet
PickledDataWithLists: "(dp1
S'com.schriftgestaltung.Glyphs.lastChange'
p2
S'2017-07-11 17:15:08 +0000'
p3
s."
EndChar

StartChar: arrowleft
Encoding: 178 8592 178
GlifName: arrowleft
Width: 1233
VWidth: 0
Flags: W
LayerCount: 2
Fore
SplineSet
66 520 m 257
NamedP: "hr00"
 66 602 l 257
 357 893 l 257
NamedP: "av02"
 447 803 l 257
 287 643 l 257
 1167 643 l 257
NamedP: "dv02"
 1167 479 l 257
NamedP: "dv01"
 287 479 l 257
 447 319 l 257
 357 229 l 257
NamedP: "av01"
 66 520 l 257
NamedP: "hr00"
EndSplineSet
PickledDataWithLists: "(dp1
S'com.schriftgestaltung.Glyphs.lastChange'
p2
S'2017-07-11 17:15:08 +0000'
p3
s."
EndChar

StartChar: arrowright
Encoding: 179 8594 179
GlifName: arrowright
Width: 1233
VWidth: 0
Flags: W
LayerCount: 2
Fore
SplineSet
786 319 m 257
NamedP: "hr00"
 946 479 l 257
NamedP: "dv01"
 66 479 l 257
 66 643 l 257
 946 643 l 257
NamedP: "dv02"
 786 803 l 257
 876 893 l 257
NamedP: "av02"
 1167 602 l 257
 1167 520 l 257
 876 229 l 257
NamedP: "av01"
 786 319 l 257
NamedP: "hr00"
EndSplineSet
PickledDataWithLists: "(dp1
S'com.schriftgestaltung.Glyphs.lastChange'
p2
S'2017-07-11 17:15:08 +0000'
p3
s."
EndChar

StartChar: arrowup
Encoding: 180 8593 180
GlifName: arrowup
Width: 1233
VWidth: 0
Flags: W
LayerCount: 2
Fore
SplineSet
534 880 m 257
NamedP: "hr00"
 374 720 l 257
 284 810 l 257
 576 1101 l 257
NamedP: "av01"
 658 1101 l 257
 948 810 l 257
 858 720 l 257
 698 880 l 257
NamedP: "dh01"
 698 0 l 257
NamedP: "ab01"
 534 0 l 257
 534 880 l 257
NamedP: "hr00"
EndSplineSet
PickledDataWithLists: "(dp1
S'com.schriftgestaltung.Glyphs.lastChange'
p2
S'2017-07-11 17:15:08 +0000'
p3
s."
EndChar

StartChar: arrowupdn
Encoding: 181 8597 181
GlifName: arrowupdn
Width: 1233
VWidth: 0
Flags: W
LayerCount: 2
Fore
SplineSet
284 291 m 257
NamedP: "hr00"
 374 381 l 257
 534 221 l 257
NamedP: "dh01"
 534 880 l 257
NamedP: "iv01"
 374 720 l 257
 284 810 l 257
 576 1101 l 257
NamedP: "av01"
 658 1101 l 257
 948 810 l 257
 858 720 l 257
 698 880 l 257
NamedP: "iv02"
 698 221 l 257
NamedP: "dh02"
 858 381 l 257
 948 291 l 257
 658 0 l 257
NamedP: "ab01"
 576 0 l 257
 284 291 l 257
NamedP: "hr00"
EndSplineSet
PickledDataWithLists: "(dp1
S'com.schriftgestaltung.Glyphs.lastChange'
p2
S'2017-07-11 17:15:08 +0000'
p3
s."
EndChar

StartChar: arrowupdnbse
Encoding: 182 8616 182
GlifName: arrowupdnbse
Width: 1233
VWidth: 0
Flags: W
LayerCount: 2
Fore
SplineSet
284 164 m 257
NamedP: "hr00"
 534 164 l 257
NamedP: "dh01"
 284 414 l 257
 374 504 l 257
 534 344 l 257
NamedP: "sh01"
 534 880 l 257
NamedP: "iv01"
 374 720 l 257
 284 810 l 257
 576 1101 l 257
NamedP: "av01"
 658 1101 l 257
 948 810 l 257
 858 720 l 257
 698 880 l 257
NamedP: "sh02"
 698 344 l 257
NamedP: "iv02"
 858 504 l 257
 948 414 l 257
 698 164 l 257
NamedP: "dh02"
 948 164 l 257
NamedP: "sv01"
 948 0 l 257
NamedP: "ab01"
 284 0 l 257
 284 164 l 257
NamedP: "hr00"
EndSplineSet
PickledDataWithLists: "(dp1
S'com.schriftgestaltung.Glyphs.lastChange'
p2
S'2017-07-11 17:15:08 +0000'
p3
s."
EndChar

StartChar: asciicircum
Encoding: 183 94 183
GlifName: asciicircum
Width: 1233
VWidth: 0
Flags: W
LayerCount: 2
Fore
SplineSet
528 1493 m 257
NamedP: "hr00"
 705 1493 l 257
 1161 936 l 257
NamedP: "av01"
 983 936 l 257
 616 1331 l 257
 250 936 l 257
NamedP: "av02"
 72 936 l 257
 528 1493 l 257
NamedP: "hr00"
EndSplineSet
PickledDataWithLists: "(dp1
S'com.schriftgestaltung.Glyphs.lastChange'
p2
S'2017-07-11 17:15:08 +0000'
p3
s."
EndChar

StartChar: asciitilde
Encoding: 184 126 184
GlifName: asciitilde
Width: 1233
VWidth: 0
Flags: W
LayerCount: 2
Fore
SplineSet
1151 840 m 257
NamedP: "hr00"
 1146 691 1132 586 1083 499 c 257
 1035 402 956 354 846 354 c 256
 793 354 748 365 709 388 c 257
 674 410 632 455 583 522 c 256
 531 594 493 640 468 659 c 256
 441 678 416 688 391 688 c 256
 340 688 303 664 282 616 c 257
 259 560 245 475 240 361 c 257
 84 361 l 257
 87 500 110 613 152 701 c 257
 207 796 285 844 386 844 c 256
 435 844 479 832 518 809 c 256
 558 785 606 739 649 679 c 256
 685 630 720 588 754 554 c 256
NamedP: "hr01"
 782 525 809 510 842 510 c 256
 949 510 992 617 995 840 c 257
 1151 840 l 257
NamedP: "hr00"
EndSplineSet
PickledDataWithLists: "(dp1
S'com.schriftgestaltung.Glyphs.lastChange'
p2
S'2017-07-11 17:15:08 +0000'
p3
s."
EndChar

StartChar: asterisk
Encoding: 185 42 185
GlifName: asterisk
Width: 1233
VWidth: 0
Flags: W
LayerCount: 2
Fore
SplineSet
250 486 m 257
NamedP: "hr00"
 492 857 l 257
 128 1015 l 257
 164 1118 l 257
 540 995 l 257
NamedP: "iv01"
 560 1420 l 257
NamedP: "at01"
 668 1420 l 257
 688 995 l 257
NamedP: "iv02"
 1064 1118 l 257
 1100 1015 l 257
 736 857 l 257
 978 486 l 257
 884 419 l 257
NamedP: "av01"
 614 776 l 257
NamedP: "iv03"
 344 419 l 257
NamedP: "av02"
 250 486 l 257
NamedP: "hr00"
EndSplineSet
PickledDataWithLists: "(dp1
S'com.schriftgestaltung.Glyphs.lastChange'
p2
S'2017-07-11 17:15:08 +0000'
p3
s."
EndChar

StartChar: asteriskmath
Encoding: 186 8727 186
GlifName: asteriskmath
Width: 1233
VWidth: 0
Flags: W
LayerCount: 2
Fore
SplineSet
559 552 m 257
NamedP: "hr00"
 223 349 l 257
 166 447 l 257
 524 642 l 257
NamedP: "iv01"
 166 836 l 257
 223 935 l 257
 559 732 l 257
NamedP: "sh01"
 559 1109 l 257
NamedP: "av02"
 674 1109 l 257
NamedP: "sh02"
 674 732 l 257
NamedP: "iv02"
 1010 935 l 257
 1067 836 l 257
 709 642 l 257
NamedP: "iv03"
 1067 447 l 257
 1010 349 l 257
 674 552 l 257
NamedP: "dh01"
 674 175 l 257
NamedP: "av01"
 559 175 l 257
 559 552 l 257
NamedP: "hr00"
EndSplineSet
PickledDataWithLists: "(dp1
S'com.schriftgestaltung.Glyphs.lastChange'
p2
S'2017-07-11 17:15:08 +0000'
p3
s."
EndChar

StartChar: at
Encoding: 187 64 187
GlifName: at
Width: 1233
VWidth: 0
Flags: W
LayerCount: 2
Fore
SplineSet
607 -317 m 256
NamedP: "hr00"
 406 -317 251 -246 144 -129 c 256
 28 -2 -29 175 -29 379 c 256
NamedP: "dh01"
 -29 508 -6 644 43 781 c 256
 88 906 154 1028 238 1125 c 256
 307 1206 395 1278 495 1326 c 256
 591 1373 695 1397 800 1397 c 256
NamedP: "dv03"
 927 1397 1029 1362 1102 1294 c 256
 1178 1223 1214 1127 1214 1015 c 256
NamedP: "dh06"
 1214 974 1209 920 1196 858 c 257
 1059 135 l 257
 915 135 l 257
 936 246 l 257
NamedP: "ih01"
 901 203 858 170 814 149 c 256
 767 126 715 115 662 115 c 256
NamedP: "dv04"
 567 115 500 150 448 207 c 256
 392 268 365 343 365 451 c 256
NamedP: "dh03"
 365 588 409 716 497 821 c 256
 581 921 685 977 810 977 c 256
NamedP: "dv07"
 923 977 1016 925 1053 844 c 257
NamedP: "ih02"
 1061 887 l 258
 1068 929 1073 968 1073 993 c 256
NamedP: "dh05"
 1073 1072 1049 1138 1000 1185 c 256
 951 1232 883 1255 796 1255 c 256
NamedP: "dv02"
 700 1255 611 1228 524 1177 c 256
 440 1126 364 1056 297 957 c 256
 244 877 200 783 169 682 c 256
 141 586 125 481 125 377 c 256
NamedP: "dh02"
 125 206 168 68 253 -29 c 256
 337 -125 459 -176 603 -176 c 256
NamedP: "dv01"
 643 -176 688 -172 725 -164 c 256
 753 -157 796 -146 852 -125 c 257
 897 -256 l 257
 846 -280 801 -293 760 -302 c 256
 713 -312 662 -317 607 -317 c 256
NamedP: "hr00"
710 260 m 256
NamedP: "dv05"
 794 260 867 299 922 366 c 256
 975 431 1008 521 1008 618 c 256
 1008 683 993 735 958 774 c 256
 925 811 879 829 820 829 c 256
NamedP: "dv06"
 657 829 524 669 524 474 c 256
NamedP: "dh04"
 524 410 539 354 574 315 c 256
 607 278 653 260 710 260 c 256
NamedP: "dv05"
EndSplineSet
PickledDataWithLists: "(dp1
S'com.schriftgestaltung.Glyphs.lastChange'
p2
S'2017-07-11 17:15:08 +0000'
p3
s."
EndChar

StartChar: atilde
Encoding: 188 227 188
GlifName: atilde
Width: 1233
VWidth: 0
Flags: W
LayerCount: 2
Fore
SplineSet
894 1297 m 256
NamedP: "sv01"
 865 1297 840 1302 818 1312 c 256
 798 1321 773 1337 745 1366 c 258
 698 1415 l 258
 691 1422 675 1436 662 1443 c 256
 651 1449 638 1452 625 1452 c 256
 605 1452 581 1446 562 1415 c 256
 545 1390 535 1351 530 1299 c 257
NamedP: "dv03"
 405 1299 l 257
 416 1389 440 1459 479 1508 c 256
 517 1557 566 1581 626 1581 c 256
NamedP: "dv04"
 655 1581 680 1576 702 1566 c 256
 725 1555 750 1536 774 1512 c 258
 821 1465 l 258
 840 1446 843 1443 858 1435 c 256
NamedP: "hr01"
 869 1429 880 1426 892 1426 c 256
 947 1426 978 1477 989 1581 c 257
NamedP: "sv02"
 1114 1581 l 257
 1091 1404 1014 1297 894 1297 c 256
NamedP: "sv01"
407 -29 m 256
NamedP: "dv01"
 308 -29 225 -2 164 54 c 256
 100 111 72 188 72 280 c 256
NamedP: "dh01"
 72 534 293 707 645 707 c 258
 891 707 l 257
NamedP: "dv06"
 903 768 l 257
 906 787 l 258
 907 794 907 801 907 804 c 256
 907 880 880 919 844 946 c 256
 805 974 748 991 665 991 c 256
NamedP: "sv03"
 608 991 546 983 479 966 c 256
 411 949 343 924 268 889 c 257
NamedP: "sh01"
 303 1069 l 257
 446 1122 577 1147 693 1147 c 256
NamedP: "hr02"
 816 1147 916 1121 985 1065 c 256
 1050 1013 1087 935 1087 839 c 256
 1087 817 1085 789 1081 754 c 256
 1076 711 1070 676 1063 639 c 257
 938 0 l 257
NamedP: "ab01"
 774 0 l 257
 786 166 l 257
NamedP: "iv01"
 738 103 681 55 616 22 c 256
 549 -13 483 -29 407 -29 c 256
NamedP: "dv01"
461 125 m 256
NamedP: "dv02"
 557 125 640 161 711 232 c 256
 786 307 833 407 856 522 c 258
 864 563 l 257
NamedP: "dv05"
 692 563 l 258
 529 563 475 554 414 530 c 256
 379 515 338 493 305 442 c 256
 278 401 264 356 264 307 c 256
NamedP: "dh02"
 264 243 288 201 316 174 c 256
 348 143 394 125 461 125 c 256
NamedP: "dv02"
EndSplineSet
PickledDataWithLists: "(dp1
S'com.schriftgestaltung.Glyphs.lastChange'
p2
S'2017-07-11 17:15:08 +0000'
p3
s."
EndChar

StartChar: b
Encoding: 189 98 189
GlifName: b
Width: 1233
VWidth: 0
Flags: W
LayerCount: 2
Fore
SplineSet
535 -29 m 256
NamedP: "dv01"
 470 -29 416 -15 371 14 c 256
NamedP: "ab01"
 327 43 293 85 270 141 c 257
NamedP: "iv01"
 224 0 l 257
NamedP: "ab02"
 59 0 l 257
 362 1556 l 257
NamedP: "at01"
 547 1556 l 257
 434 977 l 257
NamedP: "iv02"
 475 1032 523 1075 578 1104 c 256
 633 1133 694 1147 763 1147 c 256
NamedP: "at02"
 868 1147 957 1113 1018 1044 c 256
 1078 976 1108 877 1108 748 c 256
NamedP: "dh02"
 1108 660 1094 561 1067 465 c 256
 1042 376 1006 292 954 213 c 256
 902 136 841 76 770 35 c 256
 695 -8 616 -29 535 -29 c 256
NamedP: "dv01"
540 127 m 256
NamedP: "dv02"
 595 127 646 142 691 172 c 256
 738 203 773 244 805 304 c 256
 838 365 866 441 883 513 c 256
 902 590 911 666 911 733 c 256
NamedP: "dh01"
 911 816 897 882 861 929 c 256
 827 972 777 993 710 993 c 256
NamedP: "sv01"
 594 993 507 932 438 812 c 256
 403 751 380 684 361 611 c 257
NamedP: "hr01"
 342 532 332 454 332 389 c 256
 332 305 348 241 385 194 c 256
 425 143 481 127 540 127 c 256
NamedP: "dv02"
EndSplineSet
PickledDataWithLists: "(dp1
S'com.schriftgestaltung.Glyphs.lastChange'
p2
S'2017-07-11 17:15:08 +0000'
p3
s."
EndChar

StartChar: backslash
Encoding: 190 92 190
GlifName: backslash
Width: 1233
VWidth: 0
Flags: W
LayerCount: 2
Fore
SplineSet
102 1493 m 257
NamedP: "hr00"
 293 1493 l 257
 1079 -190 l 257
 889 -190 l 257
 102 1493 l 257
NamedP: "hr00"
EndSplineSet
PickledDataWithLists: "(dp1
S'com.schriftgestaltung.Glyphs.lastChange'
p2
S'2017-07-11 17:15:08 +0000'
p3
s."
EndChar

StartChar: bar
Encoding: 191 124 191
GlifName: bar
Width: 1233
VWidth: 0
Flags: W
LayerCount: 2
Fore
SplineSet
702 455 m 257
NamedP: "hr00"
 702 -483 l 257
 530 -483 l 257
 530 455 l 257
 702 455 l 257
NamedP: "hr00"
530 627 m 257
 530 1565 l 257
 702 1565 l 257
 702 627 l 257
 530 627 l 257
EndSplineSet
PickledDataWithLists: "(dp1
S'com.schriftgestaltung.Glyphs.lastChange'
p2
S'2017-07-11 17:15:08 +0000'
p3
s."
EndChar

StartChar: beta
Encoding: 192 946 192
GlifName: beta
Width: 1233
VWidth: 0
Flags: W
LayerCount: 2
Fore
SplineSet
258 1113 m 257
NamedP: "hr00"
 320 1434 552 1574 761 1574 c 256
NamedP: "at01"
 958 1574 1136 1451 1136 1240 c 256
NamedP: "sh01"
 1136 1221 1135 1203 1132 1184 c 256
NamedP: "sh02"
 1111 1034 1012 869 887 810 c 257
NamedP: "iv01"
 1039 779 1108 694 1108 553 c 256
NamedP: "dh02"
 1108 522 1105 489 1098 453 c 256
 1045 153 824 -21 523 -21 c 256
NamedP: "ab01"
 438 -21 362 -8 240 69 c 257
NamedP: "hr01"
 144 -426 l 257
NamedP: "av01"
 -41 -426 l 257
 258 1113 l 257
NamedP: "hr00"
293 342 m 257
 325 249 460 181 596 181 c 256
NamedP: "sv01"
 738 181 881 255 910 450 c 256
NamedP: "sh03"
 913 469 914 486 914 502 c 256
NamedP: "dh01"
 914 642 811 711 561 711 c 256
NamedP: "dv01"
 540 711 519 711 496 710 c 257
NamedP: "sv02"
 529 880 l 257
NamedP: "sv03"
 538 880 547 879 556 879 c 256
NamedP: "dv02"
 684 879 779 919 846 979 c 257
 918 1042 952 1124 952 1197 c 256
NamedP: "hr02"
 952 1317 854 1384 745 1384 c 256
NamedP: "sv04"
 620 1384 479 1298 442 1107 c 258
 293 342 l 257
EndSplineSet
PickledDataWithLists: "(dp1
S'com.schriftgestaltung.Glyphs.lastChange'
p2
S'2017-07-11 17:15:08 +0000'
p3
s."
EndChar

StartChar: block
Encoding: 193 9608 193
GlifName: block
Width: 1233
VWidth: 0
Flags: W
LayerCount: 2
Fore
SplineSet
0 1950 m 257
NamedP: "hr00"
 1233 1950 l 257
 1233 -512 l 257
 0 -512 l 257
 0 1950 l 257
NamedP: "hr00"
EndSplineSet
PickledDataWithLists: "(dp1
S'com.schriftgestaltung.Glyphs.lastChange'
p2
S'2017-07-11 17:15:08 +0000'
p3
s."
EndChar

StartChar: braceleft
Encoding: 194 123 194
GlifName: braceleft
Width: 1233
VWidth: 0
Flags: W
LayerCount: 2
Fore
SplineSet
685 -334 m 258
NamedP: "hr00"
 560 -334 471 -316 417 -280 c 256
 362 -243 335 -184 335 -102 c 258
 335 -89 l 257
NamedP: "dh01"
 334 -70 335 -60 338 -37 c 256
 343 2 346 19 349 34 c 258
 394 270 l 257
 397 277 396 279 397 282 c 257
 404 315 407 339 407 372 c 256
 407 437 391 475 358 500 c 256
 325 525 271 537 196 537 c 258
NamedP: "dv02"
 104 537 l 257
 133 684 l 257
 224 684 l 258
NamedP: "dv03"
 321 684 391 702 432 739 c 256
 473 775 504 843 525 944 c 258
 575 1188 l 258
 592 1271 612 1335 636 1382 c 256
 660 1429 690 1466 726 1493 c 256
 755 1514 790 1531 843 1542 c 256
NamedP: "at01"
 888 1551 952 1556 1044 1556 c 258
NamedP: "at02"
 1126 1556 l 257
 1097 1413 l 257
NamedP: "sv01"
 1012 1413 l 258
 920 1413 867 1401 836 1374 c 256
 803 1345 778 1280 759 1184 c 258
 708 932 l 258
 688 832 659 753 615 700 c 256
 576 653 519 621 444 606 c 257
NamedP: "ih01"
 492 594 530 571 557 537 c 256
 584 502 597 460 597 410 c 257
 598 393 598 386 594 353 c 256
 589 310 588 315 583 283 c 257
 536 39 l 258
 531 12 529 -3 528 -20 c 256
NamedP: "dh02"
 525 -64 525 -62 525 -70 c 256
NamedP: "sh01"
 525 -155 579 -190 708 -190 c 258
NamedP: "dv01"
 786 -190 l 257
 757 -334 l 257
NamedP: "sv02"
 685 -334 l 258
NamedP: "hr00"
EndSplineSet
PickledDataWithLists: "(dp1
S'com.schriftgestaltung.Glyphs.lastChange'
p2
S'2017-07-11 17:15:08 +0000'
p3
s."
EndChar

StartChar: braceright
Encoding: 195 125 195
GlifName: braceright
Width: 1233
VWidth: 0
Flags: W
LayerCount: 2
Fore
SplineSet
64 -190 m 257
NamedP: "hr00"
 142 -190 l 258
NamedP: "dv02"
 233 -190 294 -177 325 -150 c 256
 354 -125 379 -70 402 39 c 258
 453 291 l 258
 473 391 501 469 546 524 c 256
 587 573 644 603 718 616 c 257
NamedP: "ih01"
 669 629 631 653 604 686 c 256
 577 721 564 757 564 813 c 256
NamedP: "dh01"
 564 829 565 846 568 870 c 256
NamedP: "sh01"
 571 898 571 909 578 940 c 257
 625 1183 l 257
NamedP: "sh02"
 625 1188 634 1239 634 1243 c 257
NamedP: "sh03"
 635 1259 636 1278 636 1290 c 256
NamedP: "ih02"
 636 1334 622 1366 594 1385 c 256
 565 1404 518 1413 453 1413 c 258
NamedP: "sv01"
 376 1413 l 257
 402 1556 l 257
NamedP: "at01"
 476 1556 l 257
NamedP: "hr01"
 739 1546 817 1505 826 1320 c 257
NamedP: "sh04"
 826 1301 825 1288 822 1259 c 256
NamedP: "sh05"
 819 1234 819 1223 812 1188 c 258
 767 952 l 257
 765 940 l 258
 758 907 755 876 755 849 c 256
NamedP: "dh02"
 755 730 816 686 965 686 c 258
 1057 686 l 257
NamedP: "dv04"
 1028 539 l 257
NamedP: "dv03"
 937 539 l 258
NamedP: "hr02"
 842 539 773 521 730 484 c 256
 687 448 654 383 634 279 c 258
 587 35 l 258
 571 -49 549 -113 525 -160 c 256
 501 -207 471 -244 435 -270 c 256
 402 -294 366 -308 319 -319 c 256
 273 -329 206 -334 118 -334 c 258
NamedP: "dv01"
 36 -334 l 257
 64 -190 l 257
NamedP: "hr00"
EndSplineSet
PickledDataWithLists: "(dp1
S'com.schriftgestaltung.Glyphs.lastChange'
p2
S'2017-07-11 17:15:08 +0000'
p3
s."
EndChar

StartChar: bracketleft
Encoding: 196 91 196
GlifName: bracketleft
Width: 1233
VWidth: 0
Flags: HW
LayerCount: 2
Fore
SplineSet
582 1636 m 257
NamedP: "hr00"
 1206 1636 l 261
NamedP: "dv04"
 1183 1493 l 261
NamedP: "dv03"
 743 1493 l 257
 487 -127 l 257
 927 -127 l 261
NamedP: "dv02"
 904 -270 l 261
NamedP: "dv01"
 280 -270 l 257
 582 1636 l 257
NamedP: "hr00"
EndSplineSet
PickledDataWithLists: "(dp1
S'com.schriftgestaltung.Glyphs.lastChange'
p2
S'2017-07-11 17:15:08 +0000'
p3
s."
EndChar

StartChar: bracketright
Encoding: 197 93 197
GlifName: bracketright
Width: 1233
VWidth: 0
Flags: HWO
LayerCount: 2
Fore
SplineSet
266 -127 m 257
NamedP: "hr00"
 706 -127 l 261
NamedP: "dv02"
 962 1492 l 261
NamedP: "dv03"
 522 1492 l 257
 545 1635 l 257
 1169 1635 l 261
NamedP: "dv04"
 867 -270 l 261
NamedP: "dv01"
 243 -270 l 257
 266 -127 l 257
NamedP: "hr00"
EndSplineSet
PickledDataWithLists: "(dp1
S'com.schriftgestaltung.Glyphs.lastChange'
p2
S'2017-07-11 17:15:08 +0000'
p3
s."
EndChar

StartChar: breve
Encoding: 198 728 198
GlifName: breve
Width: 1233
VWidth: 0
Flags: W
LayerCount: 2
Fore
SplineSet
748 1321 m 256
NamedP: "dv01"
 658 1321 589 1342 542 1385 c 256
 493 1428 469 1488 469 1567 c 256
 469 1578 469 1587 470 1592 c 257
 470 1596 471 1601 472 1608 c 257
 592 1608 l 257
NamedP: "hr01"
 592 1591 l 258
 592 1548 607 1515 636 1492 c 256
 665 1469 707 1458 764 1458 c 256
NamedP: "hr02"
 818 1458 862 1470 897 1495 c 256
 933 1521 960 1559 979 1608 c 257
NamedP: "sv01"
 1098 1608 l 257
 1077 1515 1037 1444 977 1394 c 256
 918 1345 841 1321 748 1321 c 256
NamedP: "dv01"
EndSplineSet
PickledDataWithLists: "(dp1
S'com.schriftgestaltung.Glyphs.lastChange'
p2
S'2017-07-11 17:15:08 +0000'
p3
s."
EndChar

StartChar: brokenbar
Encoding: 199 166 199
GlifName: brokenbar
Width: 1233
VWidth: 0
Flags: W
LayerCount: 2
Fore
SplineSet
530 1432 m 257
NamedP: "hr00"
 702 1432 l 257
NamedP: "dh01"
 702 674 l 257
 530 674 l 257
 530 1432 l 257
NamedP: "hr00"
530 408 m 257
NamedP: "sh01"
 702 408 l 257
NamedP: "sh02"
 702 -350 l 257
NamedP: "av01"
 530 -350 l 257
 530 408 l 257
NamedP: "sh01"
EndSplineSet
PickledDataWithLists: "(dp1
S'com.schriftgestaltung.Glyphs.lastChange'
p2
S'2017-07-11 17:15:08 +0000'
p3
s."
EndChar

StartChar: bullet
Encoding: 200 8226 200
GlifName: bullet
Width: 1233
VWidth: 0
Flags: W
LayerCount: 2
Fore
SplineSet
614 465 m 256
NamedP: "hr00"
 533 465 460 495 404 551 c 256
 348 608 319 681 319 761 c 256
 319 845 349 917 404 972 c 256
 456 1024 530 1057 615 1057 c 256
NamedP: "av01"
 699 1057 771 1027 827 972 c 256
 878 921 913 849 913 761 c 256
 913 677 882 606 826 551 c 256
 767 494 694 465 614 465 c 256
NamedP: "hr00"
EndSplineSet
PickledDataWithLists: "(dp1
S'com.schriftgestaltung.Glyphs.lastChange'
p2
S'2017-07-11 17:15:08 +0000'
p3
s."
EndChar

StartChar: c
Encoding: 201 99 201
GlifName: c
Width: 1233
VWidth: 0
Flags: W
LayerCount: 2
Fore
SplineSet
597 -29 m 256
NamedP: "hr00"
 444 -29 334 12 261 84 c 256
 184 160 146 271 146 412 c 256
NamedP: "dh01"
 146 619 223 816 344 950 c 256
 408 1021 485 1070 549 1098 c 256
 622 1131 704 1147 794 1147 c 256
NamedP: "at01"
 853 1147 910 1140 965 1126 c 256
 1016 1113 1074 1090 1127 1061 c 257
 1090 879 l 257
 1003 956 911 991 800 991 c 256
NamedP: "sv01"
 726 991 661 976 604 947 c 256
 548 918 499 873 459 813 c 256
 424 762 393 698 372 626 c 256
 351 554 340 485 340 418 c 256
NamedP: "dh02"
 340 326 361 251 408 200 c 256
 451 153 516 127 615 127 c 256
NamedP: "dv01"
 675 127 738 137 798 158 c 256
 861 181 918 213 969 252 c 257
 930 51 l 257
 873 20 825 4 774 -8 c 256
 715 -23 661 -29 597 -29 c 256
NamedP: "hr00"
EndSplineSet
PickledDataWithLists: "(dp1
S'com.schriftgestaltung.Glyphs.lastChange'
p2
S'2017-07-11 17:15:08 +0000'
p3
s."
EndChar

StartChar: c6459
Encoding: 202 -1 202
GlifName: c6459
Width: 1233
VWidth: 0
Flags: W
LayerCount: 2
Fore
SplineSet
449 1294 m 258
NamedP: "hr00"
 429 1294 418 1307 422 1327 c 258
 450 1470 l 257
 453 1488 463 1497 482 1497 c 258
NamedP: "at01"
 626 1497 l 258
 644 1497 653 1489 653 1473 c 256
 653 1469 653 1466 652 1464 c 258
 623 1321 l 258
 619 1303 608 1294 591 1294 c 258
 449 1294 l 258
NamedP: "hr00"
840 1294 m 258
NamedP: "sv01"
 820 1294 809 1307 813 1327 c 258
 841 1470 l 257
 844 1488 854 1497 873 1497 c 258
NamedP: "at02"
 1016 1497 l 258
 1036 1497 1047 1484 1043 1464 c 258
 1015 1321 l 258
 1012 1303 1001 1294 983 1294 c 258
NamedP: "sv02"
 840 1294 l 258
NamedP: "sv01"
EndSplineSet
PickledDataWithLists: "(dp1
S'com.schriftgestaltung.Glyphs.lastChange'
p2
S'2017-07-11 17:15:08 +0000'
p3
s."
EndChar

StartChar: c6460
Encoding: 203 -1 203
GlifName: c6460
Width: 1233
VWidth: 0
Flags: W
LayerCount: 2
Fore
SplineSet
834 1526 m 257
NamedP: "hr00"
 1042 1526 l 257
 735 1262 l 257
NamedP: "av01"
 575 1262 l 257
 834 1526 l 257
NamedP: "hr00"
EndSplineSet
PickledDataWithLists: "(dp1
S'com.schriftgestaltung.Glyphs.lastChange'
p2
S'2017-07-11 17:15:08 +0000'
p3
s."
EndChar

StartChar: c6461
Encoding: 204 -1 204
GlifName: c6461
Width: 1233
VWidth: 0
Flags: W
LayerCount: 2
Fore
SplineSet
391 1294 m 257
NamedP: "hr00"
 414 1365 446 1420 488 1458 c 256
 529 1495 578 1513 633 1513 c 256
NamedP: "at01"
 660 1513 679 1509 700 1502 c 256
NamedP: "at02"
 722 1495 744 1483 766 1466 c 258
 801 1440 l 258
 814 1431 826 1424 837 1420 c 256
 848 1416 857 1413 873 1413 c 256
 904 1413 923 1423 942 1440 c 256
 961 1458 974 1482 981 1513 c 257
NamedP: "at03"
 1106 1513 l 257
 1085 1441 1054 1386 1011 1349 c 256
 972 1314 921 1294 860 1294 c 256
NamedP: "sv01"
 833 1294 817 1298 798 1305 c 256
 777 1313 760 1322 739 1337 c 258
 705 1362 l 257
 703 1363 l 256
 674 1384 647 1395 622 1395 c 256
 599 1395 579 1387 562 1370 c 256
 545 1354 529 1329 516 1294 c 257
NamedP: "sv02"
 391 1294 l 257
NamedP: "hr00"
EndSplineSet
PickledDataWithLists: "(dp1
S'com.schriftgestaltung.Glyphs.lastChange'
p2
S'2017-07-11 17:15:08 +0000'
p3
s."
EndChar

StartChar: c6468
Encoding: 205 -1 205
GlifName: c6468
Width: 1233
VWidth: 0
Flags: W
LayerCount: 2
Fore
SplineSet
500 1526 m 257
NamedP: "hr00"
 682 1526 l 257
 829 1262 l 257
NamedP: "av01"
 690 1262 l 257
 500 1526 l 257
NamedP: "hr00"
EndSplineSet
PickledDataWithLists: "(dp1
S'com.schriftgestaltung.Glyphs.lastChange'
p2
S'2017-07-11 17:15:08 +0000'
p3
s."
EndChar

StartChar: c6470
Encoding: 206 -1 206
GlifName: c6470
Width: 1233
VWidth: 0
Flags: W
LayerCount: 2
Fore
SplineSet
653 1528 m 257
NamedP: "hr00"
 866 1528 l 257
 1024 1262 l 257
NamedP: "av01"
 891 1262 l 257
 752 1440 l 257
 543 1262 l 257
NamedP: "av02"
 391 1262 l 257
 653 1528 l 257
NamedP: "hr00"
EndSplineSet
PickledDataWithLists: "(dp1
S'com.schriftgestaltung.Glyphs.lastChange'
p2
S'2017-07-11 17:15:08 +0000'
p3
s."
EndChar

StartChar: c6472
Encoding: 207 -1 207
GlifName: c6472
Width: 1233
VWidth: 0
Flags: W
LayerCount: 2
Fore
SplineSet
442 1528 m 257
NamedP: "hr00"
 578 1528 l 257
 717 1350 l 257
 926 1528 l 257
NamedP: "av02"
 1077 1528 l 257
 813 1262 l 257
NamedP: "av01"
 600 1262 l 257
 442 1528 l 257
NamedP: "hr00"
EndSplineSet
PickledDataWithLists: "(dp1
S'com.schriftgestaltung.Glyphs.lastChange'
p2
S'2017-07-11 17:15:08 +0000'
p3
s."
EndChar

StartChar: c6475
Encoding: 208 -1 208
GlifName: c6475
Width: 1233
VWidth: 0
Flags: W
LayerCount: 2
Fore
SplineSet
731 1286 m 256
NamedP: "dv01"
 651 1286 588 1306 541 1347 c 256
 497 1386 466 1440 451 1528 c 257
 565 1528 l 257
NamedP: "sv01"
 576 1487 595 1457 621 1440 c 256
 648 1421 683 1413 738 1413 c 256
NamedP: "hr01"
 793 1413 840 1422 876 1441 c 256
 911 1460 938 1489 956 1528 c 257
NamedP: "hr02"
 1077 1528 l 257
 1055 1453 1013 1394 952 1351 c 256
 889 1308 816 1286 731 1286 c 256
NamedP: "dv01"
EndSplineSet
PickledDataWithLists: "(dp1
S'com.schriftgestaltung.Glyphs.lastChange'
p2
S'2017-07-11 17:15:08 +0000'
p3
s."
EndChar

StartChar: c6476
Encoding: 209 -1 209
GlifName: c6476
Width: 1233
VWidth: 0
Flags: W
LayerCount: 2
Fore
SplineSet
654 1294 m 258
NamedP: "hr00"
 636 1294 627 1302 627 1318 c 256
 627 1322 627 1325 628 1327 c 258
 657 1472 l 257
 660 1490 670 1499 689 1499 c 258
NamedP: "at01"
 831 1499 l 258
 851 1499 862 1486 858 1466 c 258
 830 1321 l 258
 827 1303 816 1294 798 1294 c 258
NamedP: "sv01"
 654 1294 l 258
NamedP: "hr00"
EndSplineSet
PickledDataWithLists: "(dp1
S'com.schriftgestaltung.Glyphs.lastChange'
p2
S'2017-07-11 17:15:08 +0000'
p3
s."
EndChar

StartChar: c6477
Encoding: 210 -1 210
GlifName: c6477
Width: 1233
VWidth: 0
Flags: W
LayerCount: 2
Fore
SplineSet
47 612 m 257
NamedP: "hr00"
 1106 870 l 257
NamedP: "av02"
 1133 762 l 257
 70 504 l 257
NamedP: "av01"
 47 612 l 257
NamedP: "hr00"
EndSplineSet
PickledDataWithLists: "(dp1
S'com.schriftgestaltung.Glyphs.lastChange'
p2
S'2017-07-11 17:15:08 +0000'
p3
s."
EndChar

StartChar: c6478
Encoding: 211 -1 211
GlifName: c6478
Width: 1233
VWidth: 0
Flags: W
LayerCount: 2
Fore
SplineSet
662 852 m 257
NamedP: "sv02"
 276 852 l 257
 299 973 l 257
 764 1503 l 257
NamedP: "at01"
 926 1503 l 257
 821 963 l 257
NamedP: "hr01"
 938 963 l 257
 918 852 l 257
NamedP: "sv03"
 799 852 l 257
 766 668 l 257
NamedP: "dv01"
 627 668 l 257
 662 852 l 257
NamedP: "sv02"
684 963 m 257
NamedP: "sv01"
 760 1354 l 257
NamedP: "hr02"
 418 963 l 257
 684 963 l 257
NamedP: "sv01"
EndSplineSet
PickledDataWithLists: "(dp1
S'com.schriftgestaltung.Glyphs.lastChange'
p2
S'2017-07-11 17:15:08 +0000'
p3
s."
EndChar

StartChar: cacute
Encoding: 212 263 212
GlifName: cacute
Width: 1233
VWidth: 0
Flags: W
LayerCount: 2
Fore
SplineSet
997 1673 m 257
NamedP: "hr00"
 1216 1673 l 257
 821 1297 l 257
 665 1297 l 257
NamedP: "iv01"
 997 1673 l 257
NamedP: "hr00"
607 -29 m 256
NamedP: "dv01"
 454 -29 344 12 271 84 c 256
 194 160 156 271 156 412 c 256
NamedP: "dh01"
 156 619 233 816 354 950 c 256
 418 1021 495 1070 559 1098 c 256
 632 1131 714 1147 804 1147 c 256
NamedP: "at01"
 863 1147 920 1140 975 1126 c 256
 1026 1113 1084 1090 1137 1061 c 257
 1100 879 l 257
 1013 956 921 991 810 991 c 256
NamedP: "sv01"
 736 991 671 976 614 947 c 256
 558 918 509 873 469 813 c 256
 434 762 403 698 382 626 c 256
 361 554 350 485 350 418 c 256
NamedP: "dh02"
 350 326 371 251 418 200 c 256
 461 153 526 127 625 127 c 256
NamedP: "dv02"
 685 127 748 137 808 158 c 256
 871 181 928 213 979 252 c 257
 940 51 l 257
 883 20 835 4 784 -8 c 256
 725 -23 671 -29 607 -29 c 256
NamedP: "dv01"
EndSplineSet
PickledDataWithLists: "(dp1
S'com.schriftgestaltung.Glyphs.lastChange'
p2
S'2017-07-11 17:15:08 +0000'
p3
s."
EndChar

StartChar: caron
Encoding: 213 711 213
GlifName: caron
Width: 1233
VWidth: 0
Flags: W
LayerCount: 2
Fore
SplineSet
471 1638 m 257
NamedP: "hr00"
 602 1638 l 257
 721 1395 l 257
NamedP: "iv01"
 946 1638 l 257
NamedP: "av02"
 1102 1638 l 257
 782 1262 l 257
NamedP: "av01"
 635 1262 l 257
 471 1638 l 257
NamedP: "hr00"
EndSplineSet
PickledDataWithLists: "(dp1
S'com.schriftgestaltung.Glyphs.lastChange'
p2
S'2017-07-11 17:15:08 +0000'
p3
s."
EndChar

StartChar: carriagereturn
Encoding: 214 8629 214
GlifName: carriagereturn
Width: 1233
VWidth: 0
Flags: W
LayerCount: 2
Fore
SplineSet
64 291 m 257
NamedP: "hr00"
 64 373 l 257
 354 664 l 257
 444 574 l 257
 284 414 l 257
 1006 414 l 257
NamedP: "dh01"
 1006 861 l 257
NamedP: "av01"
 1170 861 l 257
 1170 250 l 257
NamedP: "dh02"
 284 250 l 257
 444 90 l 257
 354 0 l 257
NamedP: "ab01"
 64 291 l 257
NamedP: "hr00"
EndSplineSet
PickledDataWithLists: "(dp1
S'com.schriftgestaltung.Glyphs.lastChange'
p2
S'2017-07-11 17:15:08 +0000'
p3
s."
EndChar

StartChar: ccaron
Encoding: 215 269 215
GlifName: ccaron
Width: 1233
VWidth: 0
Flags: W
LayerCount: 2
Fore
SplineSet
561 1673 m 257
NamedP: "hr00"
 692 1673 l 257
 811 1430 l 257
NamedP: "iv01"
 1036 1673 l 257
NamedP: "av01"
 1192 1673 l 257
 872 1297 l 257
 725 1297 l 257
 561 1673 l 257
NamedP: "hr00"
607 -29 m 256
NamedP: "dv01"
 454 -29 344 12 271 84 c 256
 194 160 156 271 156 412 c 256
NamedP: "dh01"
 156 619 233 816 354 950 c 256
 418 1021 495 1070 559 1098 c 256
 632 1131 714 1147 804 1147 c 256
NamedP: "at01"
 863 1147 920 1140 975 1126 c 256
 1026 1113 1084 1090 1137 1061 c 257
 1100 879 l 257
 1013 956 921 991 810 991 c 256
NamedP: "sv01"
 736 991 671 976 614 947 c 256
 558 918 509 873 469 813 c 256
 434 762 403 698 382 626 c 256
 361 554 350 485 350 418 c 256
NamedP: "dh02"
 350 326 371 251 418 200 c 256
 461 153 526 127 625 127 c 256
NamedP: "dv02"
 685 127 748 137 808 158 c 256
 871 181 928 213 979 252 c 257
 940 51 l 257
 883 20 835 4 784 -8 c 256
 725 -23 671 -29 607 -29 c 256
NamedP: "dv01"
EndSplineSet
PickledDataWithLists: "(dp1
S'com.schriftgestaltung.Glyphs.lastChange'
p2
S'2017-07-11 17:15:08 +0000'
p3
s."
EndChar

StartChar: ccedilla
Encoding: 216 231 216
GlifName: ccedilla
Width: 1233
VWidth: 0
Flags: W
LayerCount: 2
Fore
SplineSet
469 813 m 256
NamedP: "hr00"
 434 762 403 698 382 626 c 256
 361 554 350 485 350 418 c 256
NamedP: "sh02"
 350 326 371 251 418 200 c 256
 461 153 526 127 625 127 c 256
NamedP: "sh03"
 685 127 748 137 808 158 c 256
 871 181 928 213 979 252 c 257
 940 51 l 257
 883 20 835 4 784 -8 c 256
 752 -16 720 -21 688 -25 c 257
NamedP: "ih01"
 707 -57 718 -86 729 -111 c 256
 740 -141 746 -170 746 -198 c 256
NamedP: "sh04"
 746 -254 723 -304 676 -341 c 256
 630 -377 566 -395 485 -395 c 256
NamedP: "dv01"
 458 -395 426 -393 395 -388 c 256
 365 -383 334 -376 301 -365 c 257
 326 -236 l 257
NamedP: "ih02"
 353 -249 384 -260 403 -265 c 256
 426 -271 449 -274 472 -274 c 256
NamedP: "dv02"
 559 -274 613 -230 613 -163 c 256
NamedP: "ah01"
 613 -140 607 -114 599 -93 c 256
NamedP: "sh05"
 595 -81 583 -56 570 -28 c 257
NamedP: "dv03"
 435 -21 339 17 271 84 c 256
 194 160 156 271 156 412 c 256
NamedP: "sh01"
 156 619 233 816 354 950 c 256
NamedP: "sh06"
 418 1021 495 1070 559 1098 c 256
 632 1131 714 1147 804 1147 c 256
NamedP: "at01"
 863 1147 920 1140 975 1126 c 256
 1026 1113 1084 1090 1137 1061 c 257
 1100 879 l 257
 1013 956 921 991 810 991 c 256
NamedP: "sv01"
 736 991 671 976 614 947 c 256
NamedP: "sh07"
 558 918 509 873 469 813 c 256
NamedP: "hr00"
EndSplineSet
PickledDataWithLists: "(dp1
S'com.schriftgestaltung.Glyphs.lastChange'
p2
S'2017-07-11 17:15:08 +0000'
p3
s."
EndChar

StartChar: ccircumflex
Encoding: 217 265 217
GlifName: ccircumflex
Width: 1233
VWidth: 0
Flags: W
LayerCount: 2
Fore
SplineSet
603 1297 m 257
NamedP: "hr00"
 828 1538 l 257
 945 1297 l 257
 1078 1297 l 257
 914 1673 l 257
 767 1673 l 257
 447 1297 l 257
 603 1297 l 257
NamedP: "hr00"
930 51 m 257
 969 252 l 257
 864 172 739 127 615 127 c 256
 432 127 340 224 340 418 c 256
 340 551 386 705 459 813 c 257
 538 932 651 991 800 991 c 256
 912 991 1003 956 1090 879 c 257
 1127 1061 l 257
 1022 1118 911 1147 794 1147 c 256
 701 1147 619 1131 549 1098 c 257
 473 1066 400 1014 344 950 c 256
 283 883 235 802 199 709 c 256
 164 617 146 518 146 412 c 256
 146 127 302 -29 597 -29 c 256
 720 -29 831 -2 930 51 c 257
EndSplineSet
PickledDataWithLists: "(dp1
S'com.schriftgestaltung.Glyphs.lastChange'
p2
S'2017-07-11 17:15:08 +0000'
p3
s."
EndChar

StartChar: cdotaccent
Encoding: 218 267 218
GlifName: cdotaccent
Width: 1233
VWidth: 0
Flags: W
LayerCount: 2
Fore
SplineSet
739 1348 m 258
NamedP: "hr00"
 721 1348 712 1356 712 1372 c 256
 712 1376 712 1379 713 1381 c 258
 742 1525 l 257
 745 1543 755 1552 774 1552 c 258
NamedP: "dv03"
 919 1552 l 258
 937 1552 946 1544 946 1528 c 256
 946 1524 946 1521 945 1519 c 258
 916 1375 l 258
 912 1357 901 1348 884 1348 c 258
 739 1348 l 258
NamedP: "hr00"
606 -29 m 256
NamedP: "dv01"
 311 -29 156 121 156 414 c 256
NamedP: "dh01"
 156 613 229 812 354 950 c 256
 471 1079 625 1147 805 1147 c 256
NamedP: "at01"
 921 1147 1032 1118 1137 1061 c 257
 1100 879 l 257
 1012 956 923 991 808 991 c 256
NamedP: "sv01"
 655 991 549 929 469 813 c 256
 395 704 350 555 350 418 c 256
NamedP: "dh02"
 350 219 440 127 627 127 c 256
NamedP: "dv02"
 750 127 867 168 979 252 c 257
 940 51 l 257
 843 -1 733 -29 606 -29 c 256
NamedP: "dv01"
EndSplineSet
PickledDataWithLists: "(dp1
S'com.schriftgestaltung.Glyphs.lastChange'
p2
S'2017-07-11 17:15:08 +0000'
p3
s."
EndChar

StartChar: cedilla
Encoding: 219 184 219
GlifName: cedilla
Width: 1233
VWidth: 0
Flags: W
LayerCount: 2
Fore
SplineSet
366 -395 m 256
NamedP: "hr00"
 339 -395 307 -393 276 -388 c 256
 246 -383 215 -376 182 -365 c 257
 207 -236 l 257
 234 -249 259 -258 284 -265 c 256
 308 -271 331 -274 352 -274 c 256
NamedP: "dv01"
 397 -274 432 -264 457 -244 c 256
 482 -224 494 -195 494 -163 c 256
NamedP: "dh01"
 494 -140 488 -114 480 -93 c 256
 473 -77 456 -37 436 0 c 257
NamedP: "ab01"
 555 0 l 257
 580 -43 598 -80 610 -111 c 256
 621 -141 627 -170 627 -198 c 256
NamedP: "dh02"
 627 -254 604 -304 557 -341 c 256
 511 -377 447 -395 366 -395 c 256
NamedP: "hr00"
EndSplineSet
PickledDataWithLists: "(dp1
S'com.schriftgestaltung.Glyphs.lastChange'
p2
S'2017-07-11 17:15:08 +0000'
p3
s."
EndChar

StartChar: cent
Encoding: 220 162 220
GlifName: cent
Width: 1233
VWidth: 0
Flags: W
LayerCount: 2
Fore
SplineSet
510 -27 m 257
NamedP: "hr00"
 269 -2 123 168 123 434 c 256
NamedP: "dh01"
 123 551 149 670 204 778 c 256
 263 895 341 979 425 1036 c 256
 476 1071 526 1095 574 1112 c 256
 625 1130 679 1141 737 1145 c 257
 793 1432 l 257
NamedP: "av01"
 895 1432 l 257
 840 1145 l 257
 879 1143 920 1136 963 1125 c 256
 1006 1114 1047 1098 1087 1077 c 257
 1055 905 l 257
NamedP: "iv01"
 988 956 910 985 811 993 c 257
 641 123 l 257
NamedP: "iv02"
 727 128 821 161 920 213 c 257
NamedP: "iv03"
 887 41 l 257
 834 17 770 1 744 -7 c 256
 704 -18 655 -24 612 -27 c 257
 557 -313 l 257
NamedP: "av02"
 455 -313 l 257
 510 -27 l 257
NamedP: "hr00"
709 991 m 257
NamedP: "iv04"
 599 981 506 921 430 812 c 256
 353 700 315 570 315 431 c 256
NamedP: "dh02"
 315 331 335 267 374 216 c 256
 411 168 461 136 541 127 c 257
 709 991 l 257
NamedP: "iv04"
EndSplineSet
PickledDataWithLists: "(dp1
S'com.schriftgestaltung.Glyphs.lastChange'
p2
S'2017-07-11 17:15:08 +0000'
p3
s."
EndChar

StartChar: chi
Encoding: 221 967 221
GlifName: chi
Width: 1233
VWidth: 0
Flags: W
LayerCount: 2
Fore
SplineSet
524 351 m 257
NamedP: "hr00"
 436 836 l 258
 421 920 361 962 258 962 c 258
NamedP: "sv01"
 209 962 l 257
 239 1120 l 257
NamedP: "at01"
 309 1120 l 258
 480 1120 577 1061 598 944 c 258
 667 564 l 257
 1041 1120 l 257
NamedP: "at02"
 1232 1120 l 257
 708 340 l 257
 796 -142 l 258
 811 -226 870 -268 975 -268 c 258
NamedP: "dv02"
 1024 -268 l 257
 994 -426 l 257
NamedP: "dv01"
 924 -426 l 258
 752 -426 655 -367 634 -250 c 258
 565 128 l 257
 193 -426 l 257
NamedP: "sv02"
 2 -426 l 257
 524 351 l 257
NamedP: "hr00"
EndSplineSet
PickledDataWithLists: "(dp1
S'com.schriftgestaltung.Glyphs.lastChange'
p2
S'2017-07-11 17:15:08 +0000'
p3
s."
EndChar

StartChar: circle
Encoding: 222 9675 222
GlifName: circle
Width: 1233
VWidth: 0
Flags: W
LayerCount: 2
Fore
SplineSet
617 -84 m 256
NamedP: "hr00"
 524 -84 413 -55 310 2 c 256
 118 109 6 301 6 532 c 256
NamedP: "sh01"
 6 765 118 953 310 1062 c 256
 413 1119 524 1148 617 1148 c 256
NamedP: "dv03"
 710 1148 818 1120 922 1061 c 256
 1117 952 1227 772 1227 532 c 256
NamedP: "sh02"
 1227 292 1117 112 922 3 c 256
 818 -56 710 -84 617 -84 c 256
NamedP: "hr00"
616 39 m 256
NamedP: "dv01"
 692 39 778 62 861 109 c 256
 1021 200 1105 349 1105 532 c 256
NamedP: "ah01"
 1105 715 1021 864 861 955 c 256
 778 1002 692 1025 616 1025 c 256
NamedP: "dv02"
 540 1025 454 1002 371 955 c 256
 216 867 128 723 128 532 c 256
NamedP: "sh03"
 128 341 216 197 371 109 c 256
 454 62 540 39 616 39 c 256
NamedP: "dv01"
EndSplineSet
PickledDataWithLists: "(dp1
S'com.schriftgestaltung.Glyphs.lastChange'
p2
S'2017-07-11 17:15:08 +0000'
p3
s."
EndChar

StartChar: circlemultiply
Encoding: 223 8855 223
GlifName: circlemultiply
Width: 1233
VWidth: 0
Flags: W
LayerCount: 2
Fore
SplineSet
617 106 m 256
NamedP: "hr00"
 465 106 331 168 236 263 c 256
 132 367 80 503 80 644 c 256
NamedP: "sh01"
 80 793 137 925 237 1024 c 256
 289 1076 352 1117 412 1142 c 256
 479 1170 544 1182 613 1182 c 256
NamedP: "dv03"
 770 1182 901 1120 997 1024 c 256
 1101 920 1153 786 1153 643 c 256
NamedP: "sh02"
 1153 504 1102 368 997 263 c 256
 904 170 770 106 617 106 c 256
NamedP: "hr00"
616 246 m 256
NamedP: "dv01"
 721 246 822 289 897 362 c 256
 969 434 1012 532 1012 645 c 256
NamedP: "ah01"
 1012 745 979 843 896 924 c 256
 857 963 814 992 768 1011 c 256
 721 1031 671 1041 619 1041 c 256
NamedP: "dv02"
 515 1041 413 1001 336 925 c 256
 259 848 221 746 221 642 c 256
NamedP: "sh03"
 221 530 264 434 337 362 c 256
 412 289 509 246 616 246 c 256
NamedP: "dv01"
324 448 m 257
 518 642 l 257
 322 838 l 257
 421 937 l 257
 617 741 l 257
 812 936 l 257
 911 837 l 257
 716 642 l 257
 910 448 l 257
 811 349 l 257
 617 543 l 257
 423 349 l 257
 324 448 l 257
EndSplineSet
PickledDataWithLists: "(dp1
S'com.schriftgestaltung.Glyphs.lastChange'
p2
S'2017-07-11 17:15:08 +0000'
p3
s."
EndChar

